Eczar-Medium.ufo
<glyph name="quotedbl" format="1">
  <advance width="376"/>
  <unicode hex="0022"/>
  <outline>
    <contour>
      <point x="99" y="437" type="line"/>
      <point x="163" y="535"/>
      <point x="184" y="660"/>
      <point x="182" y="676" type="curve"/>
      <point x="97" y="694" type="line"/>
      <point x="64" y="665" type="line"/>
      <point x="63" y="628"/>
      <point x="56" y="553"/>
      <point x="22" y="462" type="curve"/>
    </contour>
    <contour>
      <point x="288" y="437" type="line"/>
      <point x="352" y="535"/>
      <point x="373" y="660"/>
      <point x="371" y="676" type="curve"/>
      <point x="286" y="694" type="line"/>
      <point x="253" y="665" type="line"/>
      <point x="252" y="628"/>
      <point x="245" y="553"/>
      <point x="211" y="462" type="curve"/>
    </contour>
  </outline>
</glyph>
<glyph name="percent" format="1">
  <advance width="826"/>
  <unicode hex="0025"/>
  <outline>
    <contour>
      <point x="206" y="-29" type="line"/>
      <point x="657" y="542" type="line"/>
      <point x="600" y="589" type="line"/>
      <point x="149" y="18" type="line"/>
    </contour>
    <contour>
      <point x="163" y="335"/>
      <point x="133" y="384"/>
      <point x="133" y="436" type="curve" smooth="yes"/>
      <point x="133" y="468"/>
      <point x="144" y="500"/>
      <point x="166" y="521" type="curve"/>
      <point x="234" y="538"/>
      <point x="267" y="486"/>
      <point x="267" y="432" type="curve" smooth="yes"/>
      <point x="267" y="398"/>
      <point x="255" y="365"/>
      <point x="230" y="345" type="curve"/>
    </contour>
    <contour>
      <point x="54" y="347"/>
      <point x="123" y="278"/>
      <point x="206" y="278" type="curve" smooth="yes"/>
      <point x="289" y="278"/>
      <point x="349" y="346"/>
      <point x="349" y="431" type="curve" smooth="yes"/>
      <point x="349" y="519"/>
      <point x="283" y="594"/>
      <point x="201" y="594" type="curve" smooth="yes"/>
      <point x="119" y="594"/>
      <point x="54" y="518"/>
      <point x="54" y="434" type="curve" smooth="yes"/>
    </contour>
    <contour>
      <point x="586" y="38"/>
      <point x="556" y="87"/>
      <point x="556" y="139" type="curve" smooth="yes"/>
      <point x="556" y="170"/>
      <point x="567" y="202"/>
      <point x="589" y="223" type="curve"/>
      <point x="657" y="241"/>
      <point x="690" y="189"/>
      <point x="690" y="134" type="curve" smooth="yes"/>
      <point x="690" y="101"/>
      <point x="678" y="67"/>
      <point x="653" y="48" type="curve"/>
    </contour>
    <contour>
      <point x="476" y="49"/>
      <point x="545" y="-20"/>
      <point x="628" y="-20" type="curve" smooth="yes"/>
      <point x="711" y="-20"/>
      <point x="771" y="49"/>
      <point x="771" y="134" type="curve" smooth="yes"/>
      <point x="771" y="222"/>
      <point x="705" y="296"/>
      <point x="623" y="296" type="curve" smooth="yes"/>
      <point x="541" y="296"/>
      <point x="476" y="221"/>
      <point x="476" y="136" type="curve" smooth="yes"/>
    </contour>
  </outline>
</glyph>
<glyph name="quotesingle" format="1">
  <advance width="175"/>
  <unicode hex="0027"/>
  <outline>
    <contour>
      <point x="53" y="491" type="line"/>
      <point x="98" y="563"/>
      <point x="128" y="652"/>
      <point x="133" y="730" type="curve"/>
      <point x="48" y="746" type="line"/>
      <point x="15" y="717" type="line"/>
      <point x="15" y="680"/>
      <point x="11" y="607"/>
      <point x="-23" y="516" type="curve"/>
    </contour>
  </outline>
</glyph>
<glyph name="parenright" format="1">
  <advance width="302"/>
  <unicode hex="0029"/>
  <outline>
    <contour>
      <point x="211" y="-15"/>
      <point x="277" y="136"/>
      <point x="277" y="297" type="curve" smooth="yes"/>
      <point x="277" y="436"/>
      <point x="223" y="585"/>
      <point x="95" y="732" type="curve"/>
      <point x="27" y="696" type="line"/>
      <point x="116" y="561"/>
      <point x="156" y="426"/>
      <point x="156" y="302" type="curve" smooth="yes"/>
      <point x="156" y="158"/>
      <point x="109" y="16"/>
      <point x="34" y="-118" type="curve"/>
      <point x="104" y="-155" type="line"/>
    </contour>
  </outline>
</glyph>
<glyph name="asterisk" format="1">
  <advance width="385"/>
  <unicode hex="002A"/>
  <outline>
    <contour>
      <point x="87" y="708" type="line"/>
      <point x="142" y="597" type="line"/>
      <point x="179" y="618" type="line"/>
      <point x="157" y="762" type="line"/>
    </contour>
    <contour>
      <point x="271" y="715" type="line"/>
      <point x="183" y="628" type="line"/>
      <point x="214" y="599" type="line"/>
      <point x="344" y="664" type="line"/>
    </contour>
    <contour>
      <point x="340" y="543" type="line"/>
      <point x="230" y="599" type="line"/>
      <point x="212" y="561" type="line"/>
      <point x="314" y="459" type="line"/>
    </contour>
    <contour>
      <point x="196" y="425" type="line"/>
      <point x="215" y="548" type="line"/>
      <point x="174" y="553" type="line"/>
      <point x="107" y="424" type="line"/>
    </contour>
    <contour>
      <point x="40" y="529" type="line"/>
      <point x="163" y="548" type="line"/>
      <point x="155" y="589" type="line"/>
      <point x="12" y="614" type="line"/>
    </contour>
  </outline>
</glyph>
<glyph name="two" format="1">
  <advance width="563"/>
  <unicode hex="0032"/>
  <outline>
    <contour>
      <point x="143" y="438" type="line"/>
      <point x="175" y="596" type="line"/>
      <point x="58" y="606" type="line"/>
      <point x="54" y="556"/>
      <point x="59" y="489"/>
      <point x="69" y="439" type="curve"/>
    </contour>
    <contour>
      <point x="60" y="0" type="line"/>
      <point x="476" y="0" type="line"/>
      <point x="476" y="99" type="line"/>
      <point x="185" y="73" type="line"/>
      <point x="181" y="81" type="line"/>
      <point x="341" y="249" type="line"/>
      <point x="431" y="347"/>
      <point x="479" y="409"/>
      <point x="479" y="486" type="curve" smooth="yes"/>
      <point x="479" y="589"/>
      <point x="394" y="666"/>
      <point x="284" y="670" type="curve" smooth="yes"/>
      <point x="214" y="673"/>
      <point x="124" y="646"/>
      <point x="57" y="606" type="curve"/>
      <point x="119" y="565" type="line"/>
      <point x="164" y="584"/>
      <point x="220" y="593"/>
      <point x="251" y="593" type="curve" smooth="yes"/>
      <point x="327" y="593"/>
      <point x="355" y="541"/>
      <point x="355" y="494" type="curve" smooth="yes"/>
      <point x="355" y="443"/>
      <point x="322" y="383"/>
      <point x="236" y="289" type="curve" smooth="yes"/>
      <point x="41" y="73" type="line"/>
    </contour>
    <contour>
      <point x="450" y="191" type="line"/>
      <point x="373" y="32" type="line"/>
      <point x="482" y="0" type="line"/>
      <point x="496" y="50"/>
      <point x="507" y="121"/>
      <point x="512" y="179" type="curve"/>
    </contour>
  </outline>
</glyph>
<glyph name="four" format="1">
  <advance width="582"/>
  <unicode hex="0034"/>
  <outline>
    <contour>
      <point x="115" y="211" type="line"/>
      <point x="357" y="581" type="line"/>
      <point x="392" y="553" type="line"/>
      <point x="417" y="658" type="line"/>
      <point x="342" y="670" type="line"/>
      <point x="21" y="238" type="line"/>
      <point x="48" y="169" type="line"/>
      <point x="523" y="169" type="line"/>
      <point x="552" y="196" type="line"/>
      <point x="550" y="256" type="line"/>
      <point x="87" y="244" type="line"/>
    </contour>
    <contour>
      <point x="322" y="0" type="line"/>
      <point x="437" y="0" type="line"/>
      <point x="437" y="658" type="line"/>
      <point x="334" y="642" type="line"/>
      <point x="336" y="582" type="line"/>
      <point x="322" y="456" type="line"/>
    </contour>
    <contour>
      <point x="352" y="0" type="line"/>
      <point x="363" y="85" type="line"/>
      <point x="310" y="72"/>
      <point x="255" y="55"/>
      <point x="208" y="34" type="curve"/>
      <point x="214" y="0" type="line"/>
    </contour>
    <contour>
      <point x="511" y="0" type="line"/>
      <point x="516" y="50" type="line"/>
      <point x="377" y="70" type="line"/>
      <point x="375" y="0" type="line"/>
    </contour>
  </outline>
</glyph>
<glyph name="five" format="1">
  <advance width="556"/>
  <unicode hex="0035"/>
  <outline>
    <contour>
      <point x="472" y="525"/>
      <point x="477" y="600"/>
      <point x="474" y="650" type="curve"/>
      <point x="361" y="641" type="line"/>
      <point x="389" y="474" type="line"/>
      <point x="462" y="475" type="line"/>
    </contour>
    <contour>
      <point x="44" y="50" type="line"/>
      <point x="112" y="6"/>
      <point x="202" y="-21"/>
      <point x="276" y="-21" type="curve" smooth="yes"/>
      <point x="415" y="-21"/>
      <point x="507" y="71"/>
      <point x="507" y="191" type="curve" smooth="yes"/>
      <point x="507" y="333"/>
      <point x="382" y="395"/>
      <point x="272" y="395" type="curve" smooth="yes"/>
      <point x="243" y="395"/>
      <point x="206" y="392"/>
      <point x="181" y="380" type="curve"/>
      <point x="199" y="574" type="line"/>
      <point x="448" y="562" type="line"/>
      <point x="457" y="650" type="line"/>
      <point x="111" y="650" type="line"/>
      <point x="77" y="325" type="line"/>
      <point x="128" y="278" type="line"/>
      <point x="160" y="290"/>
      <point x="200" y="298"/>
      <point x="234" y="298" type="curve" smooth="yes"/>
      <point x="320" y="298"/>
      <point x="397" y="259"/>
      <point x="397" y="167" type="curve" smooth="yes"/>
      <point x="397" y="140"/>
      <point x="390" y="107"/>
      <point x="352" y="71" type="curve"/>
      <point x="268" y="63"/>
      <point x="171" y="96"/>
      <point x="88" y="157" type="curve"/>
    </contour>
  </outline>
</glyph>
<glyph name="six" format="1">
  <advance width="547"/>
  <unicode hex="0036"/>
  <outline>
    <contour>
      <point x="215" y="279" type="line"/>
      <point x="246" y="301"/>
      <point x="276" y="312"/>
      <point x="302" y="312" type="curve" smooth="yes"/>
      <point x="362" y="312"/>
      <point x="397" y="249"/>
      <point x="397" y="180" type="curve" smooth="yes"/>
      <point x="397" y="123"/>
      <point x="373" y="78"/>
      <point x="329" y="53" type="curve"/>
      <point x="215" y="45"/>
      <point x="159" y="147"/>
      <point x="159" y="271" type="curve" smooth="yes"/>
      <point x="159" y="386"/>
      <point x="206" y="510"/>
      <point x="297" y="553" type="curve"/>
      <point x="458" y="540" type="line"/>
      <point x="457" y="662" type="line"/>
      <point x="155" y="656"/>
      <point x="38" y="436"/>
      <point x="38" y="262" type="curve" smooth="yes"/>
      <point x="38" y="92"/>
      <point x="150" y="-20"/>
      <point x="293" y="-20" type="curve" smooth="yes"/>
      <point x="430" y="-20"/>
      <point x="515" y="82"/>
      <point x="515" y="199" type="curve" smooth="yes"/>
      <point x="515" y="305"/>
      <point x="445" y="395"/>
      <point x="346" y="395" type="curve" smooth="yes"/>
      <point x="309" y="395"/>
      <point x="251" y="383"/>
      <point x="192" y="331" type="curve"/>
    </contour>
  </outline>
</glyph>
<glyph name="seven" format="1">
  <advance width="476"/>
  <unicode hex="0037"/>
  <outline>
    <contour>
      <point x="433" y="650" type="line"/>
      <point x="28" y="650" type="line"/>
      <point x="74" y="556" type="line"/>
      <point x="358" y="567" type="line"/>
      <point x="365" y="558" type="line"/>
      <point x="254" y="395"/>
      <point x="163" y="214"/>
      <point x="87" y="21" type="curve"/>
      <point x="203" y="-15" type="line"/>
      <point x="274" y="190"/>
      <point x="359" y="383"/>
      <point x="472" y="568" type="curve"/>
    </contour>
    <contour>
      <point x="112" y="466" type="line"/>
      <point x="137" y="641" type="line"/>
      <point x="25" y="650" type="line"/>
      <point x="21" y="600"/>
      <point x="26" y="517"/>
      <point x="36" y="467" type="curve"/>
    </contour>
  </outline>
</glyph>
<glyph name="nine" format="1">
  <advance width="525"/>
  <unicode hex="0039"/>
  <outline>
    <contour>
      <point x="224" y="295"/>
      <point x="151" y="365"/>
      <point x="151" y="461" type="curve" smooth="yes"/>
      <point x="151" y="514"/>
      <point x="172" y="569"/>
      <point x="214" y="593" type="curve"/>
      <point x="331" y="623"/>
      <point x="378" y="501"/>
      <point x="378" y="372" type="curve" smooth="yes"/>
      <point x="378" y="266"/>
      <point x="347" y="155"/>
      <point x="257" y="99" type="curve"/>
      <point x="87" y="120" type="line"/>
      <point x="107" y="-9" type="line"/>
      <point x="313" y="-13"/>
      <point x="496" y="138"/>
      <point x="496" y="377" type="curve" smooth="yes"/>
      <point x="496" y="546"/>
      <point x="404" y="670"/>
      <point x="254" y="670" type="curve" smooth="yes"/>
      <point x="130" y="670"/>
      <point x="29" y="585"/>
      <point x="29" y="455" type="curve" smooth="yes"/>
      <point x="29" y="307"/>
      <point x="158" y="194"/>
      <point x="337" y="257" type="curve"/>
      <point x="326" y="323" type="line"/>
    </contour>
  </outline>
</glyph>
<glyph name="less" format="1">
  <advance width="574"/>
  <unicode hex="003C"/>
  <outline>
    <contour>
      <point x="74" y="272" type="line"/>
      <point x="81" y="202" type="line"/>
      <point x="460" y="-6" type="line"/>
      <point x="498" y="63" type="line"/>
      <point x="181" y="236" type="line"/>
      <point x="180" y="242" type="line"/>
      <point x="499" y="435" type="line"/>
      <point x="460" y="500" type="line"/>
    </contour>
  </outline>
</glyph>
<glyph name="greater" format="1">
  <advance width="574"/>
  <unicode hex="003E"/>
  <outline>
    <contour>
      <point x="394" y="242" type="line"/>
      <point x="393" y="236" type="line"/>
      <point x="76" y="63" type="line"/>
      <point x="115" y="-6" type="line"/>
      <point x="494" y="202" type="line"/>
      <point x="500" y="272" type="line"/>
      <point x="114" y="500" type="line"/>
      <point x="75" y="435" type="line"/>
    </contour>
  </outline>
</glyph>
<glyph name="at" format="1">
  <advance width="1052"/>
  <unicode hex="0040"/>
  <outline>
    <contour>
      <point x="448" y="407" type="line"/>
      <point x="470" y="414"/>
      <point x="510" y="421"/>
      <point x="542" y="422" type="curve"/>
      <point x="574" y="406"/>
      <point x="590" y="379"/>
      <point x="590" y="317" type="curve" smooth="yes"/>
      <point x="590" y="69" type="line"/>
      <point x="597" y="63" type="line"/>
      <point x="613" y="21"/>
      <point x="654" y="-16"/>
      <point x="701" y="-16" type="curve"/>
      <point x="881" y="8"/>
      <point x="974" y="152"/>
      <point x="974" y="305" type="curve" smooth="yes"/>
      <point x="974" y="491"/>
      <point x="836" y="689"/>
      <point x="541" y="689" type="curve" smooth="yes"/>
      <point x="254" y="689"/>
      <point x="84" y="501"/>
      <point x="84" y="292" type="curve" smooth="yes"/>
      <point x="84" y="183"/>
      <point x="130" y="68"/>
      <point x="226" y="-31" type="curve"/>
      <point x="298" y="15" type="line"/>
      <point x="236" y="98"/>
      <point x="206" y="190"/>
      <point x="206" y="277" type="curve" smooth="yes"/>
      <point x="206" y="455"/>
      <point x="332" y="606"/>
      <point x="546" y="606" type="curve" smooth="yes"/>
      <point x="758" y="606"/>
      <point x="856" y="456"/>
      <point x="856" y="302" type="curve" smooth="yes"/>
      <point x="856" y="215"/>
      <point x="825" y="125"/>
      <point x="767" y="84" type="curve" smooth="yes"/>
      <point x="743" y="66"/>
      <point x="707" y="54"/>
      <point x="707" y="101" type="curve" smooth="yes"/>
      <point x="707" y="320" type="line" smooth="yes"/>
      <point x="707" y="386"/>
      <point x="705" y="407"/>
      <point x="695" y="423" type="curve" smooth="yes"/>
      <point x="676" y="456"/>
      <point x="624" y="494"/>
      <point x="577" y="494" type="curve" smooth="yes"/>
      <point x="530" y="494"/>
      <point x="409" y="461"/>
      <point x="341" y="428" type="curve"/>
      <point x="341" y="383"/>
      <point x="349" y="343"/>
      <point x="366" y="298" type="curve"/>
      <point x="434" y="301" type="line"/>
    </contour>
    <contour>
      <point x="344" y="190"/>
      <point x="323" y="146"/>
      <point x="323" y="107" type="curve" smooth="yes"/>
      <point x="323" y="46"/>
      <point x="376" y="-28"/>
      <point x="490" y="-14" type="curve"/>
      <point x="612" y="62" type="line"/>
      <point x="608" y="104" type="line"/>
      <point x="578" y="91"/>
      <point x="517" y="65"/>
      <point x="466" y="66" type="curve"/>
      <point x="450" y="77"/>
      <point x="443" y="94"/>
      <point x="443" y="111" type="curve" smooth="yes"/>
      <point x="443" y="168"/>
      <point x="529" y="173"/>
      <point x="594" y="167" type="curve"/>
      <point x="614" y="167" type="line"/>
      <point x="609" y="224" type="line"/>
      <point x="397" y="218" type="line"/>
    </contour>
  </outline>
</glyph>
<glyph name="A" format="1">
  <advance width="707"/>
  <unicode hex="0041"/>
  <outline>
    <contour>
      <point x="35" y="0" type="line"/>
      <point x="130" y="0" type="line"/>
      <point x="368" y="616" type="line"/>
      <point x="298" y="639" type="line"/>
    </contour>
    <contour>
      <point x="281" y="647" type="line"/>
      <point x="532" y="0" type="line"/>
      <point x="663" y="0" type="line"/>
      <point x="386" y="678" type="line"/>
    </contour>
    <contour>
      <point x="182" y="260" type="line"/>
      <point x="182" y="191" type="line"/>
      <point x="484" y="191" type="line"/>
      <point x="484" y="260" type="line"/>
    </contour>
    <contour>
      <point x="45" y="61"/>
      <point x="10" y="48"/>
      <point x="-20" y="32" type="curve"/>
      <point x="-14" y="0" type="line"/>
      <point x="80" y="0" type="line"/>
      <point x="79" y="73" type="line"/>
    </contour>
    <contour>
      <point x="111" y="0" type="line"/>
      <point x="251" y="0" type="line"/>
      <point x="252" y="49" type="line"/>
      <point x="114" y="67" type="line"/>
    </contour>
    <contour>
      <point x="478" y="61"/>
      <point x="443" y="48"/>
      <point x="413" y="32" type="curve"/>
      <point x="419" y="0" type="line"/>
      <point x="555" y="0" type="line"/>
      <point x="512" y="73" type="line"/>
    </contour>
    <contour>
      <point x="570" y="0" type="line"/>
      <point x="710" y="0" type="line"/>
      <point x="711" y="49" type="line"/>
      <point x="573" y="67" type="line"/>
    </contour>
    <contour>
      <point x="651" y="1" type="move" name="ogonek"/>
    </contour>
    <contour>
      <point x="341" y="650" type="move" name="top"/>
    </contour>
  </outline>
</glyph>
<glyph name="B" format="1">
  <advance width="644"/>
  <unicode hex="0042"/>
  <outline>
    <contour>
      <point x="246" y="662"/>
      <point x="130" y="658"/>
      <point x="43" y="654" type="curve"/>
      <point x="225" y="578" type="line"/>
      <point x="359" y="594" type="line"/>
      <point x="412" y="583"/>
      <point x="448" y="533"/>
      <point x="448" y="483" type="curve" smooth="yes"/>
      <point x="448" y="427"/>
      <point x="403" y="372"/>
      <point x="284" y="372" type="curve" smooth="yes"/>
      <point x="208" y="372" type="line"/>
      <point x="208" y="315" type="line"/>
      <point x="290" y="323" type="line"/>
      <point x="421" y="346" type="line"/>
      <point x="529" y="352"/>
      <point x="577" y="426"/>
      <point x="577" y="494" type="curve" smooth="yes"/>
      <point x="577" y="579"/>
      <point x="504" y="662"/>
      <point x="330" y="662" type="curve"/>
    </contour>
    <contour>
      <point x="93" y="61"/>
      <point x="58" y="48"/>
      <point x="28" y="32" type="curve"/>
      <point x="34" y="0" type="line"/>
      <point x="128" y="0" type="line"/>
      <point x="127" y="73" type="line"/>
    </contour>
    <contour>
      <point x="113" y="653" type="line"/>
      <point x="113" y="0" type="line"/>
      <point x="235" y="0" type="line"/>
      <point x="235" y="653" type="line"/>
    </contour>
    <contour>
      <point x="231" y="334" type="line"/>
      <point x="214" y="312" type="line"/>
      <point x="325" y="312" type="line" smooth="yes"/>
      <point x="423" y="312"/>
      <point x="476" y="244"/>
      <point x="476" y="181" type="curve" smooth="yes"/>
      <point x="476" y="119"/>
      <point x="427" y="60"/>
      <point x="325" y="69" type="curve" smooth="yes"/>
      <point x="214" y="79" type="line"/>
      <point x="211" y="0" type="line"/>
      <point x="339" y="0" type="line" smooth="yes"/>
      <point x="528" y="0"/>
      <point x="610" y="87"/>
      <point x="610" y="181" type="curve" smooth="yes"/>
      <point x="610" y="277"/>
      <point x="524" y="363"/>
      <point x="363" y="350" type="curve"/>
    </contour>
    <contour>
      <point x="43" y="654" type="line"/>
      <point x="42" y="604" type="line"/>
      <point x="147" y="594" type="line"/>
      <point x="146" y="654" type="line"/>
    </contour>
  </outline>
</glyph>
<glyph name="F" format="1">
  <advance width="576"/>
  <unicode hex="0046"/>
  <outline>
    <contour>
      <point x="111" y="654" type="line"/>
      <point x="111" y="0" type="line"/>
      <point x="233" y="0" type="line"/>
      <point x="233" y="654" type="line"/>
    </contour>
    <contour>
      <point x="93" y="61"/>
      <point x="58" y="48"/>
      <point x="28" y="32" type="curve"/>
      <point x="34" y="0" type="line"/>
      <point x="128" y="0" type="line"/>
      <point x="127" y="73" type="line"/>
    </contour>
    <contour>
      <point x="211" y="0" type="line"/>
      <point x="351" y="0" type="line"/>
      <point x="352" y="49" type="line"/>
      <point x="214" y="67" type="line"/>
    </contour>
    <contour>
      <point x="220" y="339" type="line"/>
      <point x="220" y="271" type="line"/>
      <point x="460" y="261" type="line"/>
      <point x="460" y="357" type="line"/>
    </contour>
    <contour>
      <point x="134" y="654" type="line"/>
      <point x="209" y="588" type="line"/>
      <point x="508" y="567" type="line"/>
      <point x="529" y="654" type="line"/>
    </contour>
    <contour>
      <point x="40" y="654" type="line"/>
      <point x="39" y="604" type="line"/>
      <point x="144" y="594" type="line"/>
      <point x="143" y="654" type="line"/>
    </contour>
    <contour>
      <point x="516" y="475" type="line"/>
      <point x="528" y="538"/>
      <point x="532" y="618"/>
      <point x="529" y="654" type="curve"/>
      <point x="425" y="618" type="line"/>
      <point x="447" y="475" type="line"/>
    </contour>
    <contour>
      <point x="232" y="520" type="move" name="top"/>
    </contour>
    <contour>
      <point x="232" y="0" type="move" name="bottom"/>
    </contour>
  </outline>
</glyph>
<glyph name="G" format="1">
  <advance width="683"/>
  <unicode hex="0047"/>
  <outline>
    <contour>
      <point x="131" y="674"/>
      <point x="13" y="496"/>
      <point x="13" y="314" type="curve" smooth="yes"/>
      <point x="13" y="146"/>
      <point x="122" y="-34"/>
      <point x="377" y="-20" type="curve"/>
      <point x="581" y="70" type="line"/>
      <point x="536" y="105" type="line"/>
      <point x="494" y="86"/>
      <point x="420" y="65"/>
      <point x="356" y="66" type="curve" smooth="yes"/>
      <point x="213" y="68"/>
      <point x="141" y="195"/>
      <point x="141" y="328" type="curve" smooth="yes"/>
      <point x="141" y="435"/>
      <point x="176" y="543"/>
      <point x="257" y="593" type="curve"/>
      <point x="420" y="609"/>
      <point x="531" y="518"/>
      <point x="545" y="506" type="curve"/>
      <point x="574" y="613" type="line"/>
      <point x="541" y="637"/>
      <point x="469" y="674"/>
      <point x="368" y="674" type="curve" smooth="yes"/>
    </contour>
    <contour>
      <point x="359" y="268" type="line"/>
      <point x="399" y="247"/>
      <point x="448" y="231"/>
      <point x="485" y="219" type="curve"/>
      <point x="474" y="302" type="line"/>
      <point x="365" y="302" type="line"/>
    </contour>
    <contour>
      <point x="464" y="61" type="line"/>
      <point x="580" y="70" type="line"/>
      <point x="580" y="302" type="line"/>
      <point x="464" y="302" type="line"/>
    </contour>
    <contour>
      <point x="482" y="302" type="line"/>
      <point x="508" y="229" type="line"/>
      <point x="657" y="254" type="line"/>
      <point x="656" y="302" type="line"/>
    </contour>
    <contour>
      <point x="555" y="456" type="line"/>
      <point x="571" y="515"/>
      <point x="577" y="577"/>
      <point x="573" y="613" type="curve"/>
      <point x="459" y="580" type="line"/>
      <point x="480" y="456" type="line"/>
    </contour>
    <contour>
      <point x="344" y="650" type="move" name="top"/>
    </contour>
    <contour>
      <point x="344" y="0" type="move" name="bottom"/>
    </contour>
  </outline>
</glyph>
<glyph name="H" format="1">
  <advance width="777"/>
  <unicode hex="0048"/>
  <outline>
    <contour>
      <point x="174" y="587" type="line"/>
      <point x="177" y="654" type="line"/>
      <point x="37" y="654" type="line"/>
      <point x="36" y="605" type="line"/>
    </contour>
    <contour>
      <point x="113" y="654" type="line"/>
      <point x="113" y="0" type="line"/>
      <point x="235" y="0" type="line"/>
      <point x="235" y="654" type="line"/>
    </contour>
    <contour>
      <point x="220" y="654" type="line"/>
      <point x="221" y="581" type="line"/>
      <point x="255" y="593"/>
      <point x="291" y="606"/>
      <point x="320" y="622" type="curve"/>
      <point x="314" y="654" type="line"/>
    </contour>
    <contour>
      <point x="456" y="654" type="line"/>
      <point x="455" y="605" type="line"/>
      <point x="593" y="587" type="line"/>
      <point x="596" y="654" type="line"/>
    </contour>
    <contour>
      <point x="532" y="654" type="line"/>
      <point x="532" y="0" type="line"/>
      <point x="654" y="0" type="line"/>
      <point x="654" y="654" type="line"/>
    </contour>
    <contour>
      <point x="639" y="654" type="line"/>
      <point x="640" y="581" type="line"/>
      <point x="674" y="593"/>
      <point x="710" y="606"/>
      <point x="739" y="622" type="curve"/>
      <point x="733" y="654" type="line"/>
    </contour>
    <contour>
      <point x="208" y="364" type="line"/>
      <point x="208" y="286" type="line"/>
      <point x="582" y="286" type="line"/>
      <point x="582" y="364" type="line"/>
    </contour>
    <contour>
      <point x="93" y="61"/>
      <point x="58" y="48"/>
      <point x="28" y="32" type="curve"/>
      <point x="34" y="0" type="line"/>
      <point x="128" y="0" type="line"/>
      <point x="127" y="73" type="line"/>
    </contour>
    <contour>
      <point x="189" y="0" type="line"/>
      <point x="329" y="0" type="line"/>
      <point x="330" y="49" type="line"/>
      <point x="192" y="67" type="line"/>
    </contour>
    <contour>
      <point x="512" y="61"/>
      <point x="477" y="48"/>
      <point x="447" y="32" type="curve"/>
      <point x="453" y="0" type="line"/>
      <point x="547" y="0" type="line"/>
      <point x="546" y="73" type="line"/>
    </contour>
    <contour>
      <point x="608" y="0" type="line"/>
      <point x="748" y="0" type="line"/>
      <point x="749" y="49" type="line"/>
      <point x="611" y="67" type="line"/>
    </contour>
    <contour>
      <point x="389" y="325" type="move" name="center"/>
    </contour>
    <contour>
      <point x="389" y="650" type="move" name="top"/>
    </contour>
  </outline>
</glyph>
<glyph name="J" format="1">
  <advance width="367"/>
  <unicode hex="004A"/>
  <outline>
    <contour>
      <point x="40" y="654" type="line"/>
      <point x="39" y="605" type="line"/>
      <point x="177" y="587" type="line"/>
      <point x="180" y="654" type="line"/>
    </contour>
    <contour>
      <point x="133" y="654" type="line"/>
      <point x="133" y="134" type="line" smooth="yes"/>
      <point x="133" y="-16"/>
      <point x="74" y="-78"/>
      <point x="-11" y="-131" type="curve"/>
      <point x="25" y="-184" type="line"/>
      <point x="148" y="-126"/>
      <point x="255" y="-47"/>
      <point x="255" y="105" type="curve" smooth="yes"/>
      <point x="255" y="654" type="line"/>
    </contour>
    <contour>
      <point x="239" y="654" type="line"/>
      <point x="240" y="581" type="line"/>
      <point x="274" y="593"/>
      <point x="310" y="606"/>
      <point x="339" y="622" type="curve"/>
      <point x="333" y="654" type="line"/>
    </contour>
    <contour>
      <point x="193" y="650" type="move" name="top"/>
    </contour>
  </outline>
</glyph>
<glyph name="P" format="1">
  <advance width="606"/>
  <unicode hex="0050"/>
  <outline>
    <contour>
      <point x="40" y="654" type="line"/>
      <point x="220" y="578" type="line"/>
      <point x="390" y="594" type="line"/>
      <point x="436" y="570"/>
      <point x="460" y="511"/>
      <point x="460" y="453" type="curve" smooth="yes"/>
      <point x="460" y="380"/>
      <point x="421" y="311"/>
      <point x="324" y="311" type="curve" smooth="yes"/>
      <point x="301" y="311"/>
      <point x="246" y="315"/>
      <point x="205" y="325" type="curve"/>
      <point x="202" y="241" type="line"/>
      <point x="350" y="241" type="line" smooth="yes"/>
      <point x="504" y="242"/>
      <point x="589" y="342"/>
      <point x="589" y="450" type="curve" smooth="yes"/>
      <point x="589" y="556"/>
      <point x="506" y="663"/>
      <point x="341" y="662" type="curve" smooth="yes"/>
    </contour>
    <contour>
      <point x="93" y="61"/>
      <point x="58" y="48"/>
      <point x="28" y="32" type="curve"/>
      <point x="34" y="0" type="line"/>
      <point x="128" y="0" type="line"/>
      <point x="127" y="73" type="line"/>
    </contour>
    <contour>
      <point x="211" y="0" type="line"/>
      <point x="351" y="0" type="line"/>
      <point x="352" y="49" type="line"/>
      <point x="214" y="67" type="line"/>
    </contour>
    <contour>
      <point x="111" y="654" type="line"/>
      <point x="111" y="0" type="line"/>
      <point x="233" y="0" type="line"/>
      <point x="233" y="654" type="line"/>
    </contour>
    <contour>
      <point x="40" y="654" type="line"/>
      <point x="39" y="604" type="line"/>
      <point x="144" y="594" type="line"/>
      <point x="143" y="654" type="line"/>
    </contour>
  </outline>
</glyph>
<glyph name="R" format="1">
  <advance width="665"/>
  <unicode hex="0052"/>
  <outline>
    <contour>
      <point x="42" y="654" type="line"/>
      <point x="224" y="578" type="line"/>
      <point x="392" y="594" type="line"/>
      <point x="440" y="567"/>
      <point x="461" y="517"/>
      <point x="461" y="463" type="curve" smooth="yes"/>
      <point x="461" y="397"/>
      <point x="431" y="324"/>
      <point x="311" y="324" type="curve" smooth="yes"/>
      <point x="282" y="324"/>
      <point x="243" y="329"/>
      <point x="203" y="340" type="curve"/>
      <point x="204" y="256" type="line"/>
      <point x="354" y="257" type="line" smooth="yes"/>
      <point x="506" y="259"/>
      <point x="591" y="363"/>
      <point x="591" y="464" type="curve" smooth="yes"/>
      <point x="591" y="566"/>
      <point x="504" y="662"/>
      <point x="341" y="662" type="curve"/>
    </contour>
    <contour>
      <point x="93" y="61"/>
      <point x="58" y="48"/>
      <point x="28" y="32" type="curve"/>
      <point x="34" y="0" type="line"/>
      <point x="128" y="0" type="line"/>
      <point x="127" y="73" type="line"/>
    </contour>
    <contour>
      <point x="193" y="0" type="line"/>
      <point x="333" y="0" type="line"/>
      <point x="334" y="49" type="line"/>
      <point x="196" y="67" type="line"/>
    </contour>
    <contour>
      <point x="113" y="654" type="line"/>
      <point x="113" y="0" type="line"/>
      <point x="235" y="0" type="line"/>
      <point x="235" y="654" type="line"/>
    </contour>
    <contour>
      <point x="42" y="654" type="line"/>
      <point x="41" y="604" type="line"/>
      <point x="146" y="594" type="line"/>
      <point x="145" y="654" type="line"/>
    </contour>
    <contour>
      <point x="315" y="296" type="line"/>
      <point x="476" y="0" type="line"/>
      <point x="622" y="0" type="line"/>
      <point x="434" y="305" type="line"/>
    </contour>
    <contour>
      <point x="512" y="0" type="line"/>
      <point x="652" y="0" type="line"/>
      <point x="653" y="49" type="line"/>
      <point x="515" y="65" type="line"/>
    </contour>
    <contour>
      <point x="299" y="650" type="move" name="top"/>
    </contour>
    <contour>
      <point x="319" y="0" type="move" name="bottom"/>
    </contour>
  </outline>
</glyph>
<glyph name="S" format="1">
  <advance width="555"/>
  <unicode hex="0053"/>
  <outline>
    <contour>
      <point x="170" y="674"/>
      <point x="57" y="605"/>
      <point x="57" y="485" type="curve" smooth="yes"/>
      <point x="57" y="374"/>
      <point x="154" y="325"/>
      <point x="241" y="284" type="curve" smooth="yes"/>
      <point x="328" y="243"/>
      <point x="390" y="214"/>
      <point x="390" y="148" type="curve" smooth="yes"/>
      <point x="390" y="113"/>
      <point x="373" y="75"/>
      <point x="334" y="55" type="curve"/>
      <point x="256" y="50"/>
      <point x="152" y="70"/>
      <point x="84" y="160" type="curve"/>
      <point x="54" y="47" type="line"/>
      <point x="107" y="3"/>
      <point x="210" y="-20"/>
      <point x="279" y="-20" type="curve" smooth="yes"/>
      <point x="402" y="-20"/>
      <point x="513" y="51"/>
      <point x="513" y="177" type="curve" smooth="yes"/>
      <point x="513" y="293"/>
      <point x="420" y="341"/>
      <point x="327" y="384" type="curve" smooth="yes"/>
      <point x="242" y="424"/>
      <point x="175" y="452"/>
      <point x="175" y="514" type="curve" smooth="yes"/>
      <point x="175" y="545"/>
      <point x="190" y="581"/>
      <point x="222" y="600" type="curve"/>
      <point x="295" y="607"/>
      <point x="374" y="590"/>
      <point x="431" y="530" type="curve"/>
      <point x="483" y="641" type="line"/>
      <point x="438" y="656"/>
      <point x="369" y="674"/>
      <point x="302" y="674" type="curve" smooth="yes"/>
    </contour>
    <contour>
      <point x="470" y="464" type="line"/>
      <point x="482" y="525"/>
      <point x="485" y="600"/>
      <point x="483" y="641" type="curve"/>
      <point x="373" y="625" type="line"/>
      <point x="403" y="464" type="line"/>
    </contour>
    <contour>
      <point x="55" y="165"/>
      <point x="51" y="83"/>
      <point x="55" y="47" type="curve"/>
      <point x="173" y="44" type="line"/>
      <point x="130" y="224" type="line"/>
      <point x="67" y="224" type="line"/>
    </contour>
    <contour>
      <point x="283" y="650" type="move" name="top"/>
    </contour>
    <contour>
      <point x="271" y="0" type="move" name="bottom"/>
    </contour>
  </outline>
</glyph>
<glyph name="Y" format="1">
  <advance width="622"/>
  <unicode hex="0059"/>
  <outline>
    <contour>
      <point x="31" y="654" type="line"/>
      <point x="260" y="228" type="line"/>
      <point x="353" y="292" type="line"/>
      <point x="338" y="322" type="line"/>
      <point x="320" y="321" type="line"/>
      <point x="293" y="404" type="line"/>
      <point x="160" y="654" type="line"/>
    </contour>
    <contour>
      <point x="0" y="654" type="line"/>
      <point x="-1" y="605" type="line"/>
      <point x="137" y="587" type="line"/>
      <point x="140" y="654" type="line"/>
    </contour>
    <contour>
      <point x="137" y="654" type="line"/>
      <point x="154" y="581" type="line"/>
      <point x="188" y="593"/>
      <point x="224" y="606"/>
      <point x="253" y="622" type="curve"/>
      <point x="247" y="654" type="line"/>
    </contour>
    <contour>
      <point x="491" y="654" type="line"/>
      <point x="302" y="275" type="line"/>
      <point x="361" y="242" type="line"/>
      <point x="584" y="654" type="line"/>
    </contour>
    <contour>
      <point x="386" y="654" type="line"/>
      <point x="385" y="605" type="line"/>
      <point x="523" y="587" type="line"/>
      <point x="526" y="654" type="line"/>
    </contour>
    <contour>
      <point x="508" y="654" type="line"/>
      <point x="525" y="581" type="line"/>
      <point x="559" y="593"/>
      <point x="595" y="606"/>
      <point x="624" y="622" type="curve"/>
      <point x="618" y="654" type="line"/>
    </contour>
    <contour>
      <point x="248" y="0" type="line"/>
      <point x="368" y="0" type="line"/>
      <point x="368" y="291" type="line"/>
      <point x="248" y="291" type="line"/>
    </contour>
    <contour>
      <point x="234" y="61"/>
      <point x="199" y="48"/>
      <point x="169" y="32" type="curve"/>
      <point x="175" y="0" type="line"/>
      <point x="269" y="0" type="line"/>
      <point x="268" y="73" type="line"/>
    </contour>
    <contour>
      <point x="310" y="0" type="line"/>
      <point x="450" y="0" type="line"/>
      <point x="451" y="49" type="line"/>
      <point x="313" y="67" type="line"/>
    </contour>
    <contour>
      <point x="321" y="650" type="move" name="top"/>
    </contour>
  </outline>
</glyph>
<glyph name="bracketleft" format="1">
  <advance width="370"/>
  <unicode hex="005B"/>
  <outline>
    <contour>
      <point x="95" y="712" type="line"/>
      <point x="95" y="-122" type="line"/>
      <point x="331" y="-122" type="line"/>
      <point x="337" y="-64" type="line"/>
      <point x="207" y="-38" type="line"/>
      <point x="207" y="628" type="line"/>
      <point x="337" y="654" type="line"/>
      <point x="331" y="712" type="line"/>
    </contour>
  </outline>
</glyph>
<glyph name="bracketright" format="1">
  <advance width="373"/>
  <unicode hex="005D"/>
  <outline>
    <contour>
      <point x="33" y="654" type="line"/>
      <point x="163" y="628" type="line"/>
      <point x="163" y="-38" type="line"/>
      <point x="33" y="-64" type="line"/>
      <point x="39" y="-122" type="line"/>
      <point x="275" y="-122" type="line"/>
      <point x="275" y="712" type="line"/>
      <point x="39" y="712" type="line"/>
    </contour>
  </outline>
</glyph>
<glyph name="asciicircum" format="1">
  <advance width="525"/>
  <unicode hex="005E"/>
  <outline>
    <contour>
      <point x="32" y="363" type="line"/>
      <point x="93" y="324" type="line"/>
      <point x="260" y="576" type="line"/>
      <point x="267" y="576" type="line"/>
      <point x="443" y="328" type="line"/>
      <point x="501" y="369" type="line"/>
      <point x="298" y="649" type="line"/>
      <point x="225" y="649" type="line"/>
    </contour>
  </outline>
</glyph>
<glyph name="underscore" format="1">
  <advance width="532"/>
  <unicode hex="005F"/>
  <outline>
    <contour>
      <point x="10" y="-135" type="line"/>
      <point x="10" y="-208" type="line"/>
      <point x="522" y="-208" type="line"/>
      <point x="522" y="-135" type="line"/>
    </contour>
  </outline>
</glyph>
<glyph name="a" format="1">
  <advance width="526"/>
  <unicode hex="0061"/>
  <outline>
    <contour>
      <point x="64" y="190"/>
      <point x="43" y="146"/>
      <point x="43" y="107" type="curve" smooth="yes"/>
      <point x="43" y="46"/>
      <point x="96" y="-28"/>
      <point x="210" y="-14" type="curve"/>
      <point x="332" y="62" type="line"/>
      <point x="328" y="104" type="line"/>
      <point x="298" y="91"/>
      <point x="237" y="66"/>
      <point x="186" y="66" type="curve"/>
      <point x="170" y="77"/>
      <point x="163" y="94"/>
      <point x="163" y="111" type="curve" smooth="yes"/>
      <point x="163" y="168"/>
      <point x="249" y="173"/>
      <point x="314" y="168" type="curve"/>
      <point x="334" y="167" type="line"/>
      <point x="337" y="224" type="line"/>
      <point x="117" y="218" type="line"/>
    </contour>
    <contour>
      <point x="61" y="385"/>
      <point x="69" y="336"/>
      <point x="87" y="299" type="curve"/>
      <point x="155" y="302" type="line"/>
      <point x="168" y="408" type="line"/>
      <point x="191" y="416"/>
      <point x="230" y="423"/>
      <point x="262" y="424" type="curve"/>
      <point x="294" y="407"/>
      <point x="310" y="381"/>
      <point x="310" y="319" type="curve" smooth="yes"/>
      <point x="310" y="80" type="line"/>
      <point x="315" y="69" type="line"/>
      <point x="328" y="25"/>
      <point x="374" y="-14"/>
      <point x="402" y="-16" type="curve"/>
      <point x="513" y="40" type="line"/>
      <point x="501" y="84" type="line"/>
      <point x="485" y="81"/>
      <point x="468" y="77"/>
      <point x="453" y="77" type="curve" smooth="yes"/>
      <point x="438" y="77"/>
      <point x="428" y="83"/>
      <point x="428" y="98" type="curve"/>
      <point x="428" y="322" type="line"/>
      <point x="428" y="388"/>
      <point x="425" y="408"/>
      <point x="416" y="425" type="curve" smooth="yes"/>
      <point x="394" y="460"/>
      <point x="344" y="496"/>
      <point x="297" y="496" type="curve" smooth="yes"/>
      <point x="252" y="496"/>
      <point x="129" y="463"/>
      <point x="62" y="429" type="curve"/>
    </contour>
    <contour>
      <point x="252" y="468" type="move" name="top"/>
    </contour>
  </outline>
</glyph>
<glyph name="c" format="1">
  <advance width="431"/>
  <unicode hex="0063"/>
  <outline>
    <contour>
      <point x="394" y="97" type="line"/>
      <point x="357" y="80"/>
      <point x="319" y="71"/>
      <point x="288" y="71" type="curve" smooth="yes"/>
      <point x="189" y="71"/>
      <point x="135" y="151"/>
      <point x="135" y="258" type="curve" smooth="yes"/>
      <point x="135" y="317"/>
      <point x="152" y="374"/>
      <point x="192" y="420" type="curve"/>
      <point x="245" y="410"/>
      <point x="297" y="377"/>
      <point x="340" y="332" type="curve"/>
      <point x="421" y="405" type="line"/>
      <point x="383" y="463"/>
      <point x="324" y="492"/>
      <point x="253" y="492" type="curve" smooth="yes"/>
      <point x="119" y="492"/>
      <point x="17" y="388"/>
      <point x="17" y="236" type="curve" smooth="yes"/>
      <point x="17" y="87"/>
      <point x="118" y="-24"/>
      <point x="274" y="-14" type="curve"/>
      <point x="413" y="50" type="line"/>
    </contour>
    <contour>
      <point x="245" y="468" type="move" name="top"/>
    </contour>
    <contour>
      <point x="241" y="0" type="move" name="bottom"/>
    </contour>
  </outline>
</glyph>
<glyph name="e" format="1">
  <advance width="467"/>
  <unicode hex="0065"/>
  <outline>
    <contour>
      <point x="420" y="107" type="line"/>
      <point x="374" y="86"/>
      <point x="333" y="73"/>
      <point x="292" y="73" type="curve" smooth="yes"/>
      <point x="202" y="73"/>
      <point x="134" y="137"/>
      <point x="134" y="250" type="curve" smooth="yes"/>
      <point x="134" y="314"/>
      <point x="156" y="392"/>
      <point x="212" y="424" type="curve"/>
      <point x="291" y="427"/>
      <point x="348" y="357"/>
      <point x="338" y="276" type="curve"/>
      <point x="447" y="304" type="line"/>
      <point x="449" y="423"/>
      <point x="357" y="492"/>
      <point x="255" y="492" type="curve" smooth="yes"/>
      <point x="119" y="492"/>
      <point x="17" y="370"/>
      <point x="17" y="229" type="curve" smooth="yes"/>
      <point x="17" y="90"/>
      <point x="118" y="-22"/>
      <point x="282" y="-14" type="curve"/>
      <point x="438" y="60" type="line"/>
    </contour>
    <contour>
      <point x="113" y="252" type="line"/>
      <point x="389" y="248" type="line"/>
      <point x="447" y="304" type="line"/>
      <point x="412" y="326" type="line"/>
      <point x="109" y="310" type="line"/>
    </contour>
    <contour>
      <point x="436" y="43" type="move" name="ogonek"/>
    </contour>
    <contour>
      <point x="250" y="0" type="move" name="bottom"/>
    </contour>
    <contour>
      <point x="248" y="468" type="move" name="top"/>
    </contour>
  </outline>
</glyph>
<glyph name="f" format="1">
  <advance width="346"/>
  <unicode hex="0066"/>
  <outline>
    <contour>
      <point x="386" y="702" type="line"/>
      <point x="348" y="736"/>
      <point x="302" y="751"/>
      <point x="261" y="751" type="curve" smooth="yes"/>
      <point x="168" y="751"/>
      <point x="83" y="674"/>
      <point x="83" y="554" type="curve" smooth="yes"/>
      <point x="83" y="0" type="line"/>
      <point x="200" y="0" type="line"/>
      <point x="200" y="436" type="line"/>
      <point x="205" y="460" type="line"/>
      <point x="168" y="656" type="line"/>
      <point x="219" y="662"/>
      <point x="274" y="642"/>
      <point x="319" y="598" type="curve"/>
    </contour>
    <contour>
      <point x="137" y="383" type="line"/>
      <point x="170" y="440" type="line"/>
      <point x="133" y="476" type="line"/>
      <point x="95" y="466"/>
      <point x="54" y="453"/>
      <point x="12" y="432" type="curve"/>
      <point x="17" y="381" type="line"/>
    </contour>
    <contour>
      <point x="109" y="0" type="line"/>
      <point x="122" y="72" type="line"/>
      <point x="92" y="65"/>
      <point x="44" y="49"/>
      <point x="15" y="34" type="curve"/>
      <point x="19" y="0" type="line"/>
    </contour>
    <contour>
      <point x="287" y="0" type="line"/>
      <point x="291" y="48" type="line"/>
      <point x="264" y="63"/>
      <point x="222" y="72"/>
      <point x="185" y="77" type="curve"/>
      <point x="176" y="0" type="line"/>
    </contour>
    <contour>
      <point x="153" y="381" type="line"/>
      <point x="265" y="381" type="line"/>
      <point x="313" y="435" type="line"/>
      <point x="311" y="470" type="line"/>
      <point x="153" y="470" type="line"/>
    </contour>
  </outline>
</glyph>
<glyph name="h" format="1">
  <advance width="605"/>
  <unicode hex="0068"/>
  <outline>
    <contour>
      <point x="123" y="652" type="line"/>
      <point x="177" y="695" type="line"/>
      <point x="169" y="736" type="line"/>
      <point x="117" y="734"/>
      <point x="58" y="722"/>
      <point x="12" y="703" type="curve"/>
      <point x="22" y="655" type="line"/>
    </contour>
    <contour>
      <point x="97" y="0" type="line"/>
      <point x="214" y="0" type="line"/>
      <point x="214" y="696" type="line"/>
      <point x="169" y="736" type="line"/>
      <point x="97" y="693" type="line"/>
    </contour>
    <contour>
      <point x="116" y="0" type="line"/>
      <point x="129" y="72" type="line"/>
      <point x="99" y="65"/>
      <point x="51" y="49"/>
      <point x="22" y="34" type="curve"/>
      <point x="26" y="0" type="line"/>
    </contour>
    <contour>
      <point x="272" y="0" type="line"/>
      <point x="276" y="48" type="line"/>
      <point x="249" y="64"/>
      <point x="207" y="74"/>
      <point x="170" y="79" type="curve"/>
      <point x="161" y="0" type="line"/>
    </contour>
    <contour>
      <point x="438" y="0" type="line"/>
      <point x="451" y="72" type="line"/>
      <point x="421" y="65"/>
      <point x="373" y="49"/>
      <point x="344" y="34" type="curve"/>
      <point x="348" y="0" type="line"/>
    </contour>
    <contour>
      <point x="585" y="0" type="line"/>
      <point x="589" y="48" type="line"/>
      <point x="561" y="63"/>
      <point x="518" y="73"/>
      <point x="481" y="79" type="curve"/>
      <point x="474" y="0" type="line"/>
    </contour>
    <contour>
      <point x="400" y="0" type="line"/>
      <point x="517" y="0" type="line"/>
      <point x="517" y="299" type="line" smooth="yes"/>
      <point x="517" y="373"/>
      <point x="514" y="401"/>
      <point x="504" y="419" type="curve" smooth="yes"/>
      <point x="482" y="456"/>
      <point x="435" y="483"/>
      <point x="397" y="488" type="curve"/>
      <point x="349" y="480"/>
      <point x="257" y="428"/>
      <point x="166" y="356" type="curve"/>
      <point x="180" y="320" type="line"/>
      <point x="228" y="356"/>
      <point x="293" y="395"/>
      <point x="335" y="395" type="curve" smooth="yes"/>
      <point x="372" y="396"/>
      <point x="400" y="367"/>
      <point x="400" y="292" type="curve" smooth="yes"/>
    </contour>
    <contour>
      <point x="304" y="234" type="move" name="center"/>
    </contour>
    <contour>
      <point x="122" y="712" type="move" name="top"/>
    </contour>
  </outline>
</glyph>
<glyph name="j" format="1">
  <advance width="291"/>
  <unicode hex="006A"/>
  <outline>
    <contour>
      <point x="192" y="585"/>
      <point x="221" y="620"/>
      <point x="234" y="652" type="curve"/>
      <point x="215" y="679"/>
      <point x="180" y="711"/>
      <point x="147" y="726" type="curve"/>
      <point x="119" y="707"/>
      <point x="91" y="671"/>
      <point x="73" y="635" type="curve"/>
      <point x="94" y="608"/>
      <point x="132" y="578"/>
      <point x="164" y="565" type="curve"/>
    </contour>
    <contour>
      <point x="172" y="489" type="line"/>
      <point x="100" y="447" type="line"/>
      <point x="100" y="-26" type="line" smooth="yes"/>
      <point x="100" y="-104"/>
      <point x="74" y="-143"/>
      <point x="-4" y="-169" type="curve"/>
      <point x="11" y="-213" type="line"/>
      <point x="168" y="-185"/>
      <point x="217" y="-106"/>
      <point x="217" y="-56" type="curve" smooth="yes"/>
      <point x="217" y="449" type="line"/>
    </contour>
    <contour>
      <point x="126" y="406" type="line"/>
      <point x="180" y="449" type="line"/>
      <point x="172" y="489" type="line"/>
      <point x="120" y="487"/>
      <point x="61" y="475"/>
      <point x="15" y="456" type="curve"/>
      <point x="25" y="408" type="line"/>
    </contour>
    <contour>
      <point x="119" y="400" type="move" name="top"/>
    </contour>
  </outline>
</glyph>
<glyph name="k" format="1">
  <advance width="587"/>
  <unicode hex="006B"/>
  <outline>
    <contour>
      <point x="123" y="652" type="line"/>
      <point x="177" y="695" type="line"/>
      <point x="169" y="736" type="line"/>
      <point x="117" y="734"/>
      <point x="58" y="722"/>
      <point x="12" y="703" type="curve"/>
      <point x="22" y="655" type="line"/>
    </contour>
    <contour>
      <point x="97" y="0" type="line"/>
      <point x="214" y="0" type="line"/>
      <point x="214" y="696" type="line"/>
      <point x="169" y="736" type="line"/>
      <point x="97" y="693" type="line"/>
    </contour>
    <contour>
      <point x="116" y="0" type="line"/>
      <point x="129" y="72" type="line"/>
      <point x="99" y="65"/>
      <point x="51" y="49"/>
      <point x="22" y="34" type="curve"/>
      <point x="26" y="0" type="line"/>
    </contour>
    <contour>
      <point x="264" y="0" type="line"/>
      <point x="268" y="48" type="line"/>
      <point x="241" y="64"/>
      <point x="199" y="74"/>
      <point x="162" y="79" type="curve"/>
      <point x="153" y="0" type="line"/>
    </contour>
    <contour>
      <point x="310" y="408" type="line"/>
      <point x="437" y="414" type="line"/>
      <point x="481" y="442" type="line"/>
      <point x="483" y="489" type="line"/>
      <point x="432" y="487"/>
      <point x="353" y="475"/>
      <point x="300" y="456" type="curve"/>
    </contour>
    <contour>
      <point x="482" y="489" type="line"/>
      <point x="415" y="447" type="line"/>
      <point x="270" y="272" type="line"/>
      <point x="156" y="204" type="line"/>
      <point x="171" y="182" type="line"/>
      <point x="320" y="200" type="line"/>
      <point x="518" y="433" type="line"/>
    </contour>
    <contour>
      <point x="511" y="67"/>
      <point x="490" y="69"/>
      <point x="472" y="95" type="curve" smooth="yes"/>
      <point x="352" y="268" type="line"/>
      <point x="253" y="230" type="line"/>
      <point x="367" y="50" type="line" smooth="yes"/>
      <point x="389" y="16"/>
      <point x="404" y="-3"/>
      <point x="432" y="-12" type="curve"/>
      <point x="560" y="25" type="line"/>
      <point x="548" y="73" type="line"/>
    </contour>
    <contour>
      <point x="291" y="0" type="move" name="bottom"/>
    </contour>
  </outline>
</glyph>
<glyph name="o" format="1">
  <advance width="503"/>
  <unicode hex="006F"/>
  <outline>
    <contour>
      <point x="17" y="78"/>
      <point x="126" y="-20"/>
      <point x="254" y="-20" type="curve" smooth="yes"/>
      <point x="376" y="-20"/>
      <point x="481" y="67"/>
      <point x="481" y="233" type="curve" smooth="yes"/>
      <point x="481" y="398"/>
      <point x="377" y="492"/>
      <point x="251" y="492" type="curve" smooth="yes"/>
      <point x="127" y="492"/>
      <point x="17" y="400"/>
      <point x="17" y="238" type="curve" smooth="yes"/>
    </contour>
    <contour>
      <point x="289" y="55"/>
      <point x="276" y="53"/>
      <point x="263" y="53" type="curve" smooth="yes"/>
      <point x="176" y="53"/>
      <point x="139" y="144"/>
      <point x="139" y="245" type="curve" smooth="yes"/>
      <point x="139" y="304"/>
      <point x="150" y="363"/>
      <point x="180" y="400" type="curve"/>
      <point x="195" y="411"/>
      <point x="218" y="419"/>
      <point x="244" y="419" type="curve" smooth="yes"/>
      <point x="328" y="419"/>
      <point x="360" y="327"/>
      <point x="360" y="222" type="curve" smooth="yes"/>
      <point x="360" y="164"/>
      <point x="352" y="92"/>
      <point x="305" y="60" type="curve"/>
    </contour>
    <contour>
      <point x="248" y="468" type="move" name="top"/>
    </contour>
  </outline>
</glyph>
<glyph name="r" format="1">
  <advance width="449"/>
  <unicode hex="0072"/>
  <outline>
    <contour>
      <point x="123" y="406" type="line"/>
      <point x="177" y="449" type="line"/>
      <point x="169" y="489" type="line"/>
      <point x="117" y="487"/>
      <point x="58" y="475"/>
      <point x="12" y="456" type="curve"/>
      <point x="22" y="408" type="line"/>
    </contour>
    <contour>
      <point x="97" y="0" type="line"/>
      <point x="214" y="0" type="line"/>
      <point x="214" y="449" type="line"/>
      <point x="169" y="489" type="line"/>
      <point x="97" y="447" type="line"/>
    </contour>
    <contour>
      <point x="117" y="0" type="line"/>
      <point x="130" y="72" type="line"/>
      <point x="100" y="65"/>
      <point x="52" y="49"/>
      <point x="23" y="34" type="curve"/>
      <point x="27" y="0" type="line"/>
    </contour>
    <contour>
      <point x="314" y="0" type="line"/>
      <point x="318" y="48" type="line"/>
      <point x="291" y="63"/>
      <point x="233" y="73"/>
      <point x="196" y="77" type="curve"/>
      <point x="187" y="0" type="line"/>
    </contour>
    <contour>
      <point x="153" y="298" type="line"/>
      <point x="181" y="240" type="line"/>
      <point x="219" y="309"/>
      <point x="285" y="366"/>
      <point x="332" y="397" type="curve"/>
      <point x="348" y="285" type="line"/>
      <point x="413" y="285" type="line"/>
      <point x="430" y="338"/>
      <point x="441" y="407"/>
      <point x="440" y="461" type="curve"/>
      <point x="410" y="484"/>
      <point x="363" y="493"/>
      <point x="316" y="475" type="curve"/>
    </contour>
    <contour>
      <point x="236" y="468" type="move" name="top"/>
    </contour>
    <contour>
      <point x="184" y="0" type="move" name="bottom"/>
    </contour>
  </outline>
</glyph>
<glyph name="s" format="1">
  <advance width="432"/>
  <unicode hex="0073"/>
  <outline>
    <contour>
      <point x="22" y="33" type="line"/>
      <point x="89" y="-4"/>
      <point x="153" y="-20"/>
      <point x="210" y="-20" type="curve" smooth="yes"/>
      <point x="320" y="-20"/>
      <point x="393" y="42"/>
      <point x="393" y="128" type="curve" smooth="yes"/>
      <point x="393" y="287"/>
      <point x="145" y="275"/>
      <point x="145" y="374" type="curve" smooth="yes"/>
      <point x="145" y="391"/>
      <point x="152" y="412"/>
      <point x="179" y="426" type="curve"/>
      <point x="229" y="429"/>
      <point x="298" y="413"/>
      <point x="342" y="378" type="curve"/>
      <point x="374" y="461" type="line"/>
      <point x="335" y="481"/>
      <point x="285" y="492"/>
      <point x="237" y="492" type="curve" smooth="yes"/>
      <point x="129" y="492"/>
      <point x="37" y="438"/>
      <point x="37" y="344" type="curve" smooth="yes"/>
      <point x="37" y="191"/>
      <point x="282" y="206"/>
      <point x="282" y="101" type="curve" smooth="yes"/>
      <point x="282" y="80"/>
      <point x="273" y="63"/>
      <point x="258" y="50" type="curve"/>
      <point x="187" y="64"/>
      <point x="117" y="98"/>
      <point x="66" y="135" type="curve"/>
    </contour>
    <contour>
      <point x="358" y="328" type="line"/>
      <point x="373" y="371"/>
      <point x="378" y="417"/>
      <point x="375" y="461" type="curve"/>
      <point x="269" y="459" type="line"/>
      <point x="293" y="328" type="line"/>
    </contour>
  </outline>
</glyph>
<glyph name="t" format="1">
  <advance width="363"/>
  <unicode hex="0074"/>
  <outline>
    <contour>
      <point x="325" y="101" type="line"/>
      <point x="296" y="92"/>
      <point x="261" y="82"/>
      <point x="237" y="82" type="curve" smooth="yes"/>
      <point x="211" y="82"/>
      <point x="202" y="95"/>
      <point x="202" y="133" type="curve" smooth="yes"/>
      <point x="202" y="446" type="line"/>
      <point x="192" y="595" type="line"/>
      <point x="134" y="595" type="line"/>
      <point x="85" y="454" type="line"/>
      <point x="85" y="77" type="line" smooth="yes"/>
      <point x="85" y="29"/>
      <point x="146" y="-19"/>
      <point x="197" y="-16" type="curve"/>
      <point x="338" y="53" type="line"/>
    </contour>
    <contour>
      <point x="139" y="383" type="line"/>
      <point x="173" y="440" type="line"/>
      <point x="148" y="487" type="line"/>
      <point x="102" y="473"/>
      <point x="57" y="457"/>
      <point x="14" y="432" type="curve"/>
      <point x="20" y="382" type="line"/>
    </contour>
    <contour>
      <point x="138" y="381" type="line"/>
      <point x="295" y="381" type="line"/>
      <point x="343" y="434" type="line"/>
      <point x="340" y="470" type="line"/>
      <point x="138" y="470" type="line"/>
    </contour>
    <contour>
      <point x="182" y="234" type="move" name="center"/>
    </contour>
    <contour>
      <point x="192" y="0" type="move" name="bottom"/>
    </contour>
    <contour>
      <point x="347" y="468" type="move" name="topright"/>
    </contour>
  </outline>
</glyph>
<glyph name="u" format="1">
  <advance width="590"/>
  <unicode hex="0075"/>
  <outline>
    <contour>
      <point x="111" y="406" type="line"/>
      <point x="165" y="449" type="line"/>
      <point x="157" y="489" type="line"/>
      <point x="105" y="487"/>
      <point x="46" y="475"/>
      <point x="0" y="456" type="curve"/>
      <point x="10" y="408" type="line"/>
    </contour>
    <contour>
      <point x="425" y="142" type="line"/>
      <point x="374" y="108"/>
      <point x="316" y="76"/>
      <point x="268" y="76" type="curve" smooth="yes"/>
      <point x="222" y="75"/>
      <point x="201" y="103"/>
      <point x="201" y="169" type="curve" smooth="yes"/>
      <point x="201" y="449" type="line"/>
      <point x="156" y="489" type="line"/>
      <point x="84" y="448" type="line"/>
      <point x="84" y="172" type="line" smooth="yes"/>
      <point x="84" y="98"/>
      <point x="88" y="72"/>
      <point x="100" y="53" type="curve" smooth="yes"/>
      <point x="122" y="18"/>
      <point x="166" y="-10"/>
      <point x="204" y="-16" type="curve"/>
      <point x="261" y="-8"/>
      <point x="364" y="38"/>
      <point x="438" y="104" type="curve"/>
    </contour>
    <contour>
      <point x="406" y="406" type="line"/>
      <point x="460" y="449" type="line"/>
      <point x="452" y="489" type="line"/>
      <point x="402" y="488"/>
      <point x="345" y="476"/>
      <point x="301" y="457" type="curve"/>
      <point x="311" y="409" type="line"/>
    </contour>
    <contour>
      <point x="554" y="81"/>
      <point x="537" y="77"/>
      <point x="523" y="77" type="curve" smooth="yes"/>
      <point x="507" y="77"/>
      <point x="497" y="83"/>
      <point x="497" y="98" type="curve"/>
      <point x="497" y="449" type="line"/>
      <point x="452" y="489" type="line"/>
      <point x="380" y="448" type="line"/>
      <point x="380" y="81" type="line"/>
      <point x="385" y="70" type="line"/>
      <point x="398" y="26"/>
      <point x="443" y="-14"/>
      <point x="471" y="-16" type="curve"/>
      <point x="582" y="40" type="line"/>
      <point x="570" y="84" type="line"/>
    </contour>
    <contour>
      <point x="528" y="12" type="move" name="ogonek"/>
    </contour>
    <contour>
      <point x="269" y="468" type="move" name="top"/>
    </contour>
  </outline>
</glyph>
<glyph name="v" format="1">
  <advance width="519"/>
  <unicode hex="0076"/>
  <outline>
    <contour>
      <point x="-16" y="421" type="line"/>
      <point x="123" y="383" type="line"/>
      <point x="150" y="472" type="line"/>
      <point x="-15" y="472" type="line"/>
    </contour>
    <contour>
      <point x="124" y="472" type="line"/>
      <point x="130" y="396" type="line"/>
      <point x="161" y="406"/>
      <point x="190" y="417"/>
      <point x="219" y="431" type="curve"/>
      <point x="214" y="472" type="line"/>
    </contour>
    <contour>
      <point x="225" y="-9"/>
      <point x="282" y="-9"/>
      <point x="318" y="3" type="curve"/>
      <point x="380" y="155"/>
      <point x="439" y="322"/>
      <point x="493" y="472" type="curve"/>
      <point x="368" y="472" type="line"/>
      <point x="342" y="355"/>
      <point x="308" y="213"/>
      <point x="273" y="96" type="curve"/>
      <point x="252" y="96" type="line"/>
      <point x="237" y="193" type="line"/>
      <point x="150" y="472" type="line"/>
      <point x="22" y="463" type="line"/>
      <point x="186" y="-3" type="line"/>
    </contour>
    <contour>
      <point x="430" y="393" type="line"/>
      <point x="442" y="472" type="line"/>
      <point x="303" y="472" type="line"/>
      <point x="302" y="421" type="line"/>
    </contour>
    <contour>
      <point x="419" y="472" type="line"/>
      <point x="439" y="396" type="line"/>
      <point x="470" y="406"/>
      <point x="499" y="417"/>
      <point x="528" y="431" type="curve"/>
      <point x="523" y="472" type="line"/>
    </contour>
  </outline>
</glyph>
<glyph name="z" format="1">
  <advance width="496"/>
  <unicode hex="007A"/>
  <outline>
    <contour>
      <point x="49" y="392" type="line"/>
      <point x="367" y="416" type="line"/>
      <point x="409" y="472" type="line"/>
      <point x="46" y="472" type="line"/>
    </contour>
    <contour>
      <point x="432" y="493" type="line"/>
      <point x="380" y="458" type="line"/>
      <point x="340" y="454" type="line"/>
      <point x="25" y="25" type="line"/>
      <point x="75" y="-16" type="line"/>
      <point x="135" y="35" type="line"/>
      <point x="178" y="58" type="line"/>
      <point x="473" y="456" type="line"/>
    </contour>
    <contour>
      <point x="418" y="160" type="line"/>
      <point x="391" y="87" type="line"/>
      <point x="121" y="82" type="line"/>
      <point x="85" y="23" type="line"/>
      <point x="444" y="-12" type="line"/>
      <point x="458" y="32"/>
      <point x="469" y="90"/>
      <point x="471" y="152" type="curve"/>
    </contour>
    <contour>
      <point x="117" y="299" type="line"/>
      <point x="145" y="428" type="line"/>
      <point x="46" y="472" type="line"/>
      <point x="40" y="421"/>
      <point x="43" y="350"/>
      <point x="54" y="299" type="curve"/>
    </contour>
    <contour>
      <point x="252" y="468" type="move" name="top"/>
    </contour>
  </outline>
</glyph>
<glyph name="braceright" format="1">
  <advance width="461"/>
  <unicode hex="007D"/>
  <outline>
    <contour>
      <point x="232" y="-135"/>
      <point x="309" y="-54"/>
      <point x="309" y="16" type="curve" smooth="yes"/>
      <point x="309" y="142" type="line" smooth="yes"/>
      <point x="309" y="223"/>
      <point x="314" y="262"/>
      <point x="390" y="268" type="curve"/>
      <point x="384" y="327" type="line"/>
      <point x="316" y="333"/>
      <point x="309" y="374"/>
      <point x="309" y="443" type="curve" smooth="yes"/>
      <point x="309" y="555" type="line" smooth="yes"/>
      <point x="309" y="634"/>
      <point x="246" y="715"/>
      <point x="93" y="729" type="curve"/>
      <point x="87" y="644" type="line"/>
      <point x="188" y="644" type="line"/>
      <point x="184" y="449" type="line" smooth="yes"/>
      <point x="183" y="398"/>
      <point x="199" y="350"/>
      <point x="236" y="304" type="curve"/>
      <point x="236" y="295" type="line"/>
      <point x="199" y="248"/>
      <point x="183" y="201"/>
      <point x="184" y="149" type="curve" smooth="yes"/>
      <point x="188" y="-48" type="line"/>
      <point x="90" y="-60" type="line"/>
      <point x="100" y="-145" type="line"/>
    </contour>
  </outline>
</glyph>
<glyph name="cent" format="1">
  <advance width="435"/>
  <unicode hex="00A2"/>
  <outline>
    <contour>
      <point x="212" y="458" type="line"/>
      <point x="286" y="458" type="line"/>
      <point x="286" y="603" type="line"/>
      <point x="212" y="603" type="line"/>
    </contour>
    <contour>
      <point x="212" y="-116" type="line"/>
      <point x="286" y="-116" type="line"/>
      <point x="286" y="30" type="line"/>
      <point x="212" y="30" type="line"/>
    </contour>
    <component base="c" yOffset="26" yScale="0.923"/>
  </outline>
</glyph>
<glyph name="currency" format="1">
  <advance width="510"/>
  <unicode hex="00A4"/>
  <outline>
    <contour>
      <point x="78" y="252"/>
      <point x="153" y="170"/>
      <point x="254" y="170" type="curve" smooth="yes"/>
      <point x="342" y="170"/>
      <point x="431" y="235"/>
      <point x="431" y="358" type="curve" smooth="yes"/>
      <point x="431" y="478"/>
      <point x="348" y="541"/>
      <point x="260" y="541" type="curve" smooth="yes"/>
      <point x="168" y="541"/>
      <point x="78" y="470"/>
      <point x="78" y="356" type="curve" smooth="yes"/>
    </contour>
    <contour>
      <point x="295" y="241"/>
      <point x="281" y="240"/>
      <point x="271" y="240" type="curve" smooth="yes"/>
      <point x="189" y="240"/>
      <point x="158" y="301"/>
      <point x="158" y="360" type="curve" smooth="yes"/>
      <point x="158" y="405"/>
      <point x="175" y="446"/>
      <point x="199" y="465" type="curve"/>
      <point x="212" y="468"/>
      <point x="223" y="469"/>
      <point x="234" y="469" type="curve" smooth="yes"/>
      <point x="322" y="469"/>
      <point x="349" y="404"/>
      <point x="349" y="347" type="curve" smooth="yes"/>
      <point x="349" y="299"/>
      <point x="329" y="253"/>
      <point x="309" y="244" type="curve"/>
    </contour>
    <contour>
      <point x="132" y="253" type="line"/>
      <point x="62" y="170" type="line"/>
      <point x="110" y="127" type="line"/>
      <point x="181" y="213" type="line"/>
    </contour>
    <contour>
      <point x="330" y="212" type="line"/>
      <point x="406" y="129" type="line"/>
      <point x="452" y="174" type="line"/>
      <point x="376" y="257" type="line"/>
    </contour>
    <contour>
      <point x="177" y="500" type="line"/>
      <point x="105" y="581" type="line"/>
      <point x="56" y="538" type="line"/>
      <point x="131" y="453" type="line"/>
    </contour>
    <contour>
      <point x="380" y="452" type="line"/>
      <point x="454" y="539" type="line"/>
      <point x="404" y="580" type="line"/>
      <point x="333" y="495" type="line"/>
    </contour>
  </outline>
</glyph>
<glyph name="guillemetleft" format="1">
  <advance width="544"/>
  <unicode hex="00AB"/>
  <outline>
    <contour>
      <point x="58" y="227" type="line"/>
      <point x="207" y="42" type="line"/>
      <point x="273" y="86" type="line"/>
      <point x="178" y="253" type="line"/>
      <point x="268" y="429" type="line"/>
      <point x="203" y="467" type="line"/>
      <point x="58" y="280" type="line"/>
    </contour>
    <contour>
      <point x="271" y="227" type="line"/>
      <point x="420" y="42" type="line"/>
      <point x="486" y="86" type="line"/>
      <point x="391" y="253" type="line"/>
      <point x="481" y="429" type="line"/>
      <point x="416" y="467" type="line"/>
      <point x="271" y="280" type="line"/>
    </contour>
  </outline>
</glyph>
<glyph name="registered" format="1">
  <advance width="571"/>
  <unicode hex="00AE"/>
  <outline>
    <contour>
      <point x="557" y="659"/>
      <point x="443" y="771"/>
      <point x="287" y="771" type="curve" smooth="yes"/>
      <point x="131" y="771"/>
      <point x="15" y="661"/>
      <point x="15" y="504" type="curve" smooth="yes"/>
      <point x="15" y="351"/>
      <point x="124" y="237"/>
      <point x="284" y="237" type="curve" smooth="yes"/>
      <point x="444" y="237"/>
      <point x="557" y="349"/>
      <point x="557" y="504" type="curve" smooth="yes"/>
    </contour>
    <contour>
      <point x="509" y="371"/>
      <point x="414" y="284"/>
      <point x="282" y="284" type="curve" smooth="yes"/>
      <point x="148" y="284"/>
      <point x="63" y="372"/>
      <point x="63" y="500" type="curve" smooth="yes"/>
      <point x="63" y="633"/>
      <point x="155" y="726"/>
      <point x="286" y="726" type="curve" smooth="yes"/>
      <point x="417" y="726"/>
      <point x="509" y="634"/>
      <point x="509" y="503" type="curve" smooth="yes"/>
    </contour>
    <contour>
      <point x="144" y="648" type="line"/>
      <point x="144" y="619" type="line"/>
      <point x="203" y="614" type="line"/>
      <point x="202" y="648" type="line"/>
    </contour>
    <contour>
      <point x="180" y="375" type="line"/>
      <point x="243" y="375" type="line"/>
      <point x="243" y="648" type="line"/>
      <point x="180" y="648" type="line"/>
    </contour>
    <contour>
      <point x="332" y="600"/>
      <point x="342" y="581"/>
      <point x="342" y="562" type="curve" smooth="yes"/>
      <point x="342" y="535"/>
      <point x="324" y="513"/>
      <point x="265" y="513" type="curve" smooth="yes"/>
      <point x="247" y="513"/>
      <point x="237" y="515"/>
      <point x="224" y="518" type="curve"/>
      <point x="222" y="476" type="line"/>
      <point x="288" y="476" type="line" smooth="yes"/>
      <point x="374" y="476"/>
      <point x="409" y="520"/>
      <point x="409" y="563" type="curve" smooth="yes"/>
      <point x="409" y="609"/>
      <point x="367" y="648"/>
      <point x="288" y="648" type="curve"/>
      <point x="223" y="648" type="line"/>
      <point x="232" y="606" type="line"/>
      <point x="303" y="613" type="line"/>
    </contour>
    <contour>
      <point x="195" y="416"/>
      <point x="156" y="404"/>
      <point x="140" y="395" type="curve"/>
      <point x="144" y="375" type="line"/>
      <point x="190" y="375" type="line"/>
      <point x="198" y="417" type="line"/>
    </contour>
    <contour>
      <point x="221" y="375" type="line"/>
      <point x="287" y="375" type="line"/>
      <point x="288" y="402" type="line"/>
      <point x="223" y="408" type="line"/>
    </contour>
    <contour>
      <point x="272" y="502" type="line"/>
      <point x="347" y="375" type="line"/>
      <point x="422" y="375" type="line"/>
      <point x="335" y="507" type="line"/>
    </contour>
    <contour>
      <point x="367" y="375" type="line"/>
      <point x="433" y="375" type="line"/>
      <point x="434" y="402" type="line"/>
      <point x="369" y="408" type="line"/>
    </contour>
  </outline>
</glyph>
<glyph name="degree" format="1">
  <advance width="358"/>
  <unicode hex="00B0"/>
  <outline>
    <contour>
      <point x="192" y="434"/>
      <point x="181" y="433"/>
      <point x="172" y="433" type="curve" smooth="yes"/>
      <point x="123" y="433"/>
      <point x="97" y="474"/>
      <point x="97" y="515" type="curve" smooth="yes"/>
      <point x="97" y="537"/>
      <point x="104" y="559"/>
      <point x="118" y="576" type="curve"/>
      <point x="132" y="581"/>
      <point x="144" y="584"/>
      <point x="156" y="584" type="curve" smooth="yes"/>
      <point x="201" y="584"/>
      <point x="229" y="542"/>
      <point x="229" y="500" type="curve" smooth="yes"/>
      <point x="229" y="477"/>
      <point x="221" y="454"/>
      <point x="203" y="438" type="curve"/>
    </contour>
    <contour>
      <point x="30" y="429"/>
      <point x="93" y="376"/>
      <point x="167" y="376" type="curve" smooth="yes"/>
      <point x="243" y="376"/>
      <point x="298" y="428"/>
      <point x="298" y="509" type="curve" smooth="yes"/>
      <point x="298" y="585"/>
      <point x="239" y="644"/>
      <point x="163" y="644" type="curve" smooth="yes"/>
      <point x="88" y="644"/>
      <point x="30" y="585"/>
      <point x="30" y="509" type="curve" smooth="yes"/>
    </contour>
  </outline>
</glyph>
<glyph name="twosuperior" format="1">
  <advance width="293"/>
  <unicode hex="00B2"/>
  <outline>
    <contour>
      <point x="81" y="622" type="line"/>
      <point x="104" y="711" type="line"/>
      <point x="27" y="715" type="line"/>
      <point x="25" y="690"/>
      <point x="29" y="647"/>
      <point x="35" y="622" type="curve"/>
    </contour>
    <contour>
      <point x="38" y="423" type="line"/>
      <point x="256" y="423" type="line"/>
      <point x="269" y="501" type="line"/>
      <point x="120" y="476" type="line"/>
      <point x="117" y="483" type="line"/>
      <point x="207" y="546"/>
      <point x="255" y="600"/>
      <point x="255" y="653" type="curve" smooth="yes"/>
      <point x="255" y="702"/>
      <point x="214" y="751"/>
      <point x="139" y="751" type="curve" smooth="yes"/>
      <point x="98" y="751"/>
      <point x="59" y="736"/>
      <point x="27" y="715" type="curve"/>
      <point x="67" y="695" type="line"/>
      <point x="86" y="704"/>
      <point x="109" y="708"/>
      <point x="122" y="708" type="curve" smooth="yes"/>
      <point x="152" y="708"/>
      <point x="177" y="687"/>
      <point x="177" y="652" type="curve" smooth="yes"/>
      <point x="177" y="633"/>
      <point x="168" y="605"/>
      <point x="107" y="546" type="curve" smooth="yes"/>
      <point x="22" y="464" type="line"/>
    </contour>
  </outline>
</glyph>
<glyph name="threesuperior" format="1">
  <advance width="302"/>
  <unicode hex="00B3"/>
  <outline>
    <contour>
      <point x="123" y="721" type="line"/>
      <point x="43" y="721" type="line"/>
      <point x="41" y="697"/>
      <point x="43" y="664"/>
      <point x="49" y="640" type="curve"/>
      <point x="89" y="640" type="line"/>
    </contour>
    <contour>
      <point x="98" y="599" type="line"/>
      <point x="100" y="556" type="line"/>
      <point x="200" y="587" type="line"/>
      <point x="200" y="591" type="line"/>
      <point x="241" y="604"/>
      <point x="257" y="638"/>
      <point x="257" y="666" type="curve" smooth="yes"/>
      <point x="257" y="714"/>
      <point x="210" y="751"/>
      <point x="148" y="751" type="curve" smooth="yes"/>
      <point x="112" y="751"/>
      <point x="69" y="739"/>
      <point x="43" y="721" type="curve"/>
      <point x="61" y="693" type="line"/>
      <point x="81" y="704"/>
      <point x="104" y="709"/>
      <point x="123" y="709" type="curve" smooth="yes"/>
      <point x="158" y="709"/>
      <point x="183" y="689"/>
      <point x="183" y="659" type="curve" smooth="yes"/>
      <point x="183" y="635"/>
      <point x="165" y="599"/>
      <point x="105" y="599" type="curve" smooth="yes"/>
    </contour>
    <contour>
      <point x="30" y="440" type="line"/>
      <point x="68" y="422"/>
      <point x="112" y="413"/>
      <point x="148" y="413" type="curve" smooth="yes"/>
      <point x="214" y="413"/>
      <point x="273" y="444"/>
      <point x="273" y="505" type="curve" smooth="yes"/>
      <point x="273" y="559"/>
      <point x="229" y="596"/>
      <point x="176" y="590" type="curve"/>
      <point x="184" y="600" type="line"/>
      <point x="98" y="599" type="line"/>
      <point x="91" y="599" type="line"/>
      <point x="91" y="555" type="line"/>
      <point x="124" y="555" type="line" smooth="yes"/>
      <point x="174" y="555"/>
      <point x="198" y="528"/>
      <point x="198" y="500" type="curve" smooth="yes"/>
      <point x="198" y="486"/>
      <point x="192" y="472"/>
      <point x="178" y="463" type="curve"/>
      <point x="141" y="465"/>
      <point x="90" y="487"/>
      <point x="51" y="512" type="curve"/>
    </contour>
  </outline>
</glyph>
<glyph name="periodcentered" format="1">
  <advance width="227"/>
  <unicode hex="00B7"/>
  <outline>
    <contour>
      <point x="137" y="205"/>
      <point x="163" y="239"/>
      <point x="174" y="268" type="curve"/>
      <point x="158" y="289"/>
      <point x="125" y="320"/>
      <point x="96" y="331" type="curve"/>
      <point x="71" y="317"/>
      <point x="46" y="283"/>
      <point x="30" y="251" type="curve"/>
      <point x="47" y="227"/>
      <point x="86" y="198"/>
      <point x="111" y="188" type="curve"/>
    </contour>
  </outline>
</glyph>
<glyph name="onesuperior" format="1">
  <advance width="245"/>
  <unicode hex="00B9"/>
  <outline>
    <contour>
      <point x="123" y="687" type="line"/>
      <point x="133" y="730" type="line"/>
      <point x="125" y="749" type="line"/>
      <point x="4" y="677" type="line"/>
      <point x="20" y="646" type="line"/>
    </contour>
    <contour>
      <point x="160" y="726" type="line"/>
      <point x="124" y="749" type="line"/>
      <point x="114" y="713" type="line"/>
    </contour>
    <contour>
      <point x="83" y="423" type="line"/>
      <point x="161" y="423" type="line"/>
      <point x="161" y="726" type="line"/>
      <point x="83" y="718" type="line"/>
    </contour>
    <contour>
      <point x="93" y="423" type="line"/>
      <point x="96" y="468" type="line"/>
      <point x="71" y="463"/>
      <point x="39" y="451"/>
      <point x="20" y="439" type="curve"/>
      <point x="23" y="423" type="line"/>
    </contour>
    <contour>
      <point x="217" y="423" type="line"/>
      <point x="218" y="449" type="line"/>
      <point x="150" y="463" type="line"/>
      <point x="149" y="423" type="line"/>
    </contour>
  </outline>
</glyph>
<glyph name="guillemetright" format="1">
  <advance width="544"/>
  <unicode hex="00BB"/>
  <outline>
    <contour>
      <point x="486" y="280" type="line"/>
      <point x="342" y="467" type="line"/>
      <point x="277" y="429" type="line"/>
      <point x="367" y="253" type="line"/>
      <point x="271" y="86" type="line"/>
      <point x="337" y="42" type="line"/>
      <point x="486" y="227" type="line"/>
    </contour>
    <contour>
      <point x="273" y="280" type="line"/>
      <point x="129" y="467" type="line"/>
      <point x="64" y="429" type="line"/>
      <point x="154" y="253" type="line"/>
      <point x="58" y="86" type="line"/>
      <point x="124" y="42" type="line"/>
      <point x="273" y="227" type="line"/>
    </contour>
  </outline>
</glyph>
<glyph name="multiply" format="1">
  <advance width="566"/>
  <unicode hex="00D7"/>
  <outline>
    <contour>
      <point x="284" y="294" type="line"/>
      <point x="130" y="456" type="line"/>
      <point x="70" y="402" type="line"/>
      <point x="228" y="238" type="line"/>
      <point x="72" y="77" type="line"/>
      <point x="129" y="21" type="line"/>
      <point x="283" y="183" type="line"/>
      <point x="436" y="21" type="line"/>
      <point x="494" y="77" type="line"/>
      <point x="337" y="239" type="line"/>
      <point x="496" y="403" type="line"/>
      <point x="437" y="457" type="line"/>
    </contour>
  </outline>
</glyph>
<glyph name="ae" format="1">
  <advance width="762"/>
  <unicode hex="00E6"/>
  <outline>
    <contour>
      <point x="62" y="383"/>
      <point x="69" y="336"/>
      <point x="86" y="299" type="curve"/>
      <point x="156" y="301" type="line"/>
      <point x="169" y="407" type="line"/>
      <point x="192" y="414"/>
      <point x="231" y="421"/>
      <point x="263" y="422" type="curve"/>
      <point x="295" y="406"/>
      <point x="311" y="380"/>
      <point x="311" y="317" type="curve" smooth="yes"/>
      <point x="311" y="194" type="line"/>
      <point x="377" y="168" type="line"/>
      <point x="411" y="414" type="line"/>
      <point x="393" y="447"/>
      <point x="347" y="494"/>
      <point x="302" y="495" type="curve" smooth="yes"/>
      <point x="249" y="495"/>
      <point x="131" y="461"/>
      <point x="63" y="428" type="curve"/>
    </contour>
    <contour>
      <point x="64" y="190"/>
      <point x="43" y="146"/>
      <point x="43" y="107" type="curve" smooth="yes"/>
      <point x="43" y="46"/>
      <point x="96" y="-28"/>
      <point x="210" y="-14" type="curve"/>
      <point x="369" y="70" type="line"/>
      <point x="364" y="118" type="line"/>
      <point x="334" y="105"/>
      <point x="237" y="66"/>
      <point x="186" y="66" type="curve"/>
      <point x="170" y="77"/>
      <point x="163" y="94"/>
      <point x="163" y="111" type="curve" smooth="yes"/>
      <point x="163" y="168"/>
      <point x="249" y="173"/>
      <point x="314" y="168" type="curve"/>
      <point x="334" y="167" type="line"/>
      <point x="337" y="224" type="line"/>
      <point x="117" y="218" type="line"/>
    </contour>
    <contour>
      <point x="405" y="252" type="line"/>
      <point x="681" y="248" type="line"/>
      <point x="739" y="304" type="line"/>
      <point x="704" y="326" type="line"/>
      <point x="401" y="310" type="line"/>
    </contour>
    <contour>
      <point x="714" y="107" type="line"/>
      <point x="668" y="86"/>
      <point x="628" y="73"/>
      <point x="583" y="73" type="curve" smooth="yes"/>
      <point x="496" y="73"/>
      <point x="424" y="121"/>
      <point x="424" y="251" type="curve" smooth="yes"/>
      <point x="424" y="326"/>
      <point x="448" y="391"/>
      <point x="506" y="424" type="curve"/>
      <point x="585" y="427"/>
      <point x="642" y="357"/>
      <point x="632" y="276" type="curve"/>
      <point x="741" y="304" type="line"/>
      <point x="743" y="423"/>
      <point x="651" y="492"/>
      <point x="549" y="492" type="curve" smooth="yes"/>
      <point x="486" y="492"/>
      <point x="431" y="466"/>
      <point x="391" y="425" type="curve"/>
      <point x="357" y="232" type="line"/>
      <point x="311" y="229" type="line"/>
      <point x="311" y="90"/>
      <point x="412" y="-22"/>
      <point x="576" y="-14" type="curve"/>
      <point x="732" y="60" type="line"/>
    </contour>
    <contour>
      <point x="563" y="41" type="move" name="ogonek"/>
    </contour>
    <contour>
      <point x="419" y="0" type="move" name="bottom"/>
    </contour>
    <contour>
      <point x="419" y="375" type="move" name="top"/>
    </contour>
  </outline>
</glyph>
<glyph name="thorn" format="1">
  <advance width="544"/>
  <unicode hex="00FE"/>
  <outline>
    <contour>
      <point x="-12" y="654" type="line"/>
      <point x="93" y="648" type="line"/>
      <point x="148" y="695" type="line"/>
      <point x="140" y="736" type="line"/>
      <point x="87" y="734"/>
      <point x="26" y="721"/>
      <point x="-21" y="702" type="curve"/>
    </contour>
    <contour>
      <point x="139" y="736" type="line"/>
      <point x="66" y="693" type="line"/>
      <point x="66" y="21" type="line"/>
      <point x="184" y="45" type="line"/>
      <point x="184" y="695" type="line"/>
    </contour>
    <contour>
      <point x="67" y="-203" type="line"/>
      <point x="184" y="-203" type="line"/>
      <point x="184" y="447" type="line"/>
      <point x="140" y="487" type="line"/>
      <point x="67" y="445" type="line"/>
    </contour>
    <contour>
      <point x="95" y="-203" type="line"/>
      <point x="108" y="-131" type="line"/>
      <point x="78" y="-141"/>
      <point x="30" y="-156"/>
      <point x="1" y="-170" type="curve"/>
      <point x="5" y="-203" type="line"/>
    </contour>
    <contour>
      <point x="265" y="-203" type="line"/>
      <point x="269" y="-155" type="line"/>
      <point x="242" y="-142"/>
      <point x="200" y="-132"/>
      <point x="163" y="-124" type="curve"/>
      <point x="154" y="-203" type="line"/>
    </contour>
    <contour>
      <point x="149" y="333" type="line"/>
      <point x="196" y="365"/>
      <point x="242" y="393"/>
      <point x="285" y="393" type="curve" smooth="yes"/>
      <point x="355" y="393"/>
      <point x="400" y="316"/>
      <point x="400" y="231" type="curve" smooth="yes"/>
      <point x="400" y="163"/>
      <point x="372" y="92"/>
      <point x="323" y="59" type="curve"/>
      <point x="230" y="45"/>
      <point x="165" y="87"/>
      <point x="143" y="121" type="curve"/>
      <point x="69" y="23" type="line"/>
      <point x="133" y="-4"/>
      <point x="196" y="-19"/>
      <point x="253" y="-19" type="curve" smooth="yes"/>
      <point x="419" y="-19"/>
      <point x="522" y="103"/>
      <point x="522" y="254" type="curve" smooth="yes"/>
      <point x="522" y="392"/>
      <point x="435" y="511"/>
      <point x="300" y="484" type="curve"/>
      <point x="140" y="377" type="line"/>
    </contour>
  </outline>
</glyph>
<glyph name="eogonek" format="1">
  <advance width="485"/>
  <unicode hex="0119"/>
  <outline>
    <contour>
      <point x="392" y="67" type="line"/>
      <point x="258" y="24"/>
      <point x="181" y="-53"/>
      <point x="181" y="-123" type="curve" smooth="yes"/>
      <point x="181" y="-180"/>
      <point x="230" y="-235"/>
      <point x="310" y="-229" type="curve"/>
      <point x="429" y="-170" type="line"/>
      <point x="410" y="-128" type="line"/>
      <point x="321" y="-177"/>
      <point x="269" y="-147"/>
      <point x="269" y="-97" type="curve" smooth="yes"/>
      <point x="269" y="-47"/>
      <point x="320" y="-2"/>
      <point x="393" y="36" type="curve" smooth="yes"/>
      <point x="438" y="60" type="line"/>
    </contour>
    <component base="e"/>
  </outline>
</glyph>
<glyph name="imacron" format="1">
  <advance width="329"/>
  <unicode hex="012B"/>
  <outline>
    <contour>
      <point x="96" y="657"/>
      <point x="53" y="651"/>
      <point x="14" y="632" type="curve"/>
      <point x="20" y="578" type="line"/>
      <point x="263" y="578" type="line"/>
      <point x="310" y="616" type="line"/>
      <point x="305" y="657" type="line"/>
      <point x="127" y="657" type="line"/>
    </contour>
    <component base="dotlessi" xOffset="21"/>
  </outline>
</glyph>
<glyph name="lslash" format="1">
  <advance width="383"/>
  <unicode hex="0142"/>
  <outline>
    <contour>
      <point x="12" y="320" type="line"/>
      <point x="44" y="263" type="line"/>
      <point x="333" y="419" type="line"/>
      <point x="333" y="466" type="line"/>
      <point x="310" y="483" type="line"/>
    </contour>
    <component base="l" xOffset="21"/>
  </outline>
</glyph>
<glyph name="OE" format="1">
  <advance width="929"/>
  <unicode hex="0152"/>
  <outline>
    <contour>
      <point x="489" y="101" type="line"/>
      <point x="463" y="72"/>
      <point x="415" y="66"/>
      <point x="370" y="66" type="curve" smooth="yes"/>
      <point x="228" y="66"/>
      <point x="166" y="196"/>
      <point x="166" y="330" type="curve" smooth="yes"/>
      <point x="166" y="429"/>
      <point x="201" y="528"/>
      <point x="260" y="573" type="curve"/>
      <point x="290" y="584"/>
      <point x="324" y="589"/>
      <point x="359" y="589" type="curve" smooth="yes"/>
      <point x="427" y="589"/>
      <point x="497" y="569"/>
      <point x="524" y="522" type="curve"/>
      <point x="546" y="628" type="line"/>
      <point x="496" y="655"/>
      <point x="436" y="669"/>
      <point x="377" y="669" type="curve" smooth="yes"/>
      <point x="219" y="669"/>
      <point x="38" y="568"/>
      <point x="38" y="333" type="curve" smooth="yes"/>
      <point x="38" y="90"/>
      <point x="200" y="-13"/>
      <point x="358" y="-13" type="curve" smooth="yes"/>
      <point x="422" y="-13"/>
      <point x="486" y="-3"/>
      <point x="538" y="36" type="curve"/>
    </contour>
    <contour>
      <point x="582" y="0" type="line"/>
      <point x="582" y="654" type="line"/>
      <point x="460" y="654" type="line"/>
      <point x="460" y="0" type="line"/>
    </contour>
    <contour>
      <point x="857" y="567" type="line"/>
      <point x="877" y="654" type="line"/>
      <point x="474" y="654" type="line"/>
      <point x="549" y="582" type="line"/>
    </contour>
    <contour>
      <point x="550" y="75" type="line"/>
      <point x="472" y="0" type="line"/>
      <point x="874" y="0" type="line"/>
      <point x="858" y="90" type="line"/>
    </contour>
    <contour>
      <point x="773" y="32" type="line"/>
      <point x="874" y="0" type="line"/>
      <point x="882" y="48"/>
      <point x="888" y="134"/>
      <point x="886" y="189" type="curve"/>
      <point x="818" y="194" type="line"/>
    </contour>
    <contour>
      <point x="864" y="477" type="line"/>
      <point x="876" y="540"/>
      <point x="880" y="618"/>
      <point x="877" y="654" type="curve"/>
      <point x="773" y="618" type="line"/>
      <point x="795" y="477" type="line"/>
    </contour>
    <contour>
      <point x="558" y="358" type="line"/>
      <point x="558" y="293" type="line"/>
      <point x="798" y="283" type="line"/>
      <point x="798" y="377" type="line"/>
    </contour>
  </outline>
</glyph>
<glyph name="acutecomb" format="1">
  <advance width="0"/>
  <unicode hex="0301"/>
  <outline>
    <contour>
      <point x="31" y="585"/>
      <point x="82" y="632"/>
      <point x="142" y="681" type="curve"/>
      <point x="57" y="753" type="line"/>
      <point x="-89" y="583" type="line"/>
      <point x="-25" y="532" type="line"/>
    </contour>
    <contour>
      <point x="0" y="470" type="move" name="_top"/>
    </contour>
  </outline>
</glyph>
<glyph name="circumflexcomb" format="1">
  <advance width="0"/>
  <unicode hex="0302"/>
  <outline>
    <contour>
      <point x="-117" y="533" type="line"/>
      <point x="1" y="644" type="line"/>
      <point x="131" y="537" type="line"/>
      <point x="178" y="582" type="line"/>
      <point x="51" y="726" type="line"/>
      <point x="-42" y="726" type="line"/>
      <point x="-170" y="575" type="line"/>
    </contour>
    <contour>
      <point x="0" y="470" type="move" name="_top"/>
    </contour>
  </outline>
</glyph>
<glyph name="macroncomb" format="1">
  <advance width="0"/>
  <unicode hex="0304"/>
  <outline>
    <contour>
      <point x="-80" y="643"/>
      <point x="-123" y="637"/>
      <point x="-162" y="618" type="curve"/>
      <point x="-156" y="564" type="line"/>
      <point x="147" y="564" type="line"/>
      <point x="194" y="602" type="line"/>
      <point x="189" y="643" type="line"/>
      <point x="-49" y="643" type="line"/>
    </contour>
    <contour>
      <point x="1" y="470" type="move" name="_top"/>
    </contour>
  </outline>
</glyph>
<glyph name="brevecomb" format="1">
  <advance width="0"/>
  <unicode hex="0306"/>
  <outline>
    <contour>
      <point x="67" y="714" type="line"/>
      <point x="66" y="660"/>
      <point x="40" y="627"/>
      <point x="-1" y="627" type="curve" smooth="yes"/>
      <point x="-36" y="627"/>
      <point x="-66" y="650"/>
      <point x="-75" y="717" type="curve"/>
      <point x="-152" y="707" type="line"/>
      <point x="-142" y="597"/>
      <point x="-68" y="551"/>
      <point x="5" y="551" type="curve" smooth="yes"/>
      <point x="85" y="551"/>
      <point x="151" y="604"/>
      <point x="154" y="708" type="curve"/>
    </contour>
    <contour>
      <point x="-1" y="470" type="move" name="_top"/>
    </contour>
  </outline>
</glyph>
<glyph name="dotbelowcomb" format="1">
  <advance width="0"/>
  <unicode hex="0323"/>
  <outline>
    <contour>
      <point x="65" y="-143"/>
      <point x="32" y="-112"/>
      <point x="-4" y="-99" type="curve"/>
      <point x="-37" y="-116"/>
      <point x="-64" y="-145"/>
      <point x="-69" y="-184" type="curve"/>
      <point x="-54" y="-217"/>
      <point x="-28" y="-237"/>
      <point x="9" y="-246" type="curve"/>
      <point x="40" y="-231"/>
      <point x="61" y="-206"/>
      <point x="70" y="-173" type="curve"/>
    </contour>
    <contour>
      <point x="0" y="0" type="move" name="_bottom"/>
    </contour>
  </outline>
</glyph>
<glyph name="commaaccentcomb" format="1">
  <advance width="0"/>
  <unicode hex="0326"/>
  <outline>
    <contour>
      <point x="-61" y="-132" type="line"/>
      <point x="-22" y="-160"/>
      <point x="-31" y="-202"/>
      <point x="-69" y="-252" type="curve"/>
      <point x="-24" y="-281" type="line"/>
      <point x="30" y="-234"/>
      <point x="105" y="-113"/>
      <point x="11" y="-62" type="curve"/>
      <point x="-63" y="-103" type="line"/>
    </contour>
    <contour>
      <point x="0" y="0" type="move" name="_bottom"/>
    </contour>
  </outline>
</glyph>
<glyph name="cedillacomb" format="1">
  <advance width="0"/>
  <unicode hex="0327"/>
  <outline>
    <contour>
      <point x="35" y="6" type="line"/>
      <point x="-20" y="6" type="line"/>
      <point x="-83" y="-67" type="line"/>
      <point x="-56" y="-108" type="line"/>
      <point x="54" y="-99"/>
      <point x="45" y="-192"/>
      <point x="-85" y="-233" type="curve"/>
      <point x="-70" y="-267" type="line"/>
      <point x="44" y="-252"/>
      <point x="107" y="-208"/>
      <point x="115" y="-153" type="curve" smooth="yes"/>
      <point x="122" y="-109"/>
      <point x="81" y="-58"/>
      <point x="-5" y="-58" type="curve"/>
    </contour>
    <contour>
      <point x="0" y="0" type="move" name="_bottom"/>
    </contour>
  </outline>
</glyph>
<glyph name="ogonekcomb" format="1">
  <advance width="0"/>
  <unicode hex="0328"/>
  <outline>
    <contour>
      <point x="-30" y="34" type="line"/>
      <point x="-144" y="-11"/>
      <point x="-209" y="-79"/>
      <point x="-209" y="-143" type="curve" smooth="yes"/>
      <point x="-209" y="-200"/>
      <point x="-160" y="-255"/>
      <point x="-80" y="-249" type="curve"/>
      <point x="40" y="-191" type="line"/>
      <point x="21" y="-148" type="line"/>
      <point x="-69" y="-197"/>
      <point x="-120" y="-167"/>
      <point x="-120" y="-117" type="curve" smooth="yes"/>
      <point x="-120" y="-67"/>
      <point x="-69" y="-22"/>
      <point x="3" y="16" type="curve" smooth="yes"/>
    </contour>
    <contour>
      <point x="0" y="9" type="move" name="_ogonek"/>
    </contour>
  </outline>
</glyph>
<glyph name="uni0904" format="1">
  <advance width="781"/>
  <unicode hex="0904"/>
  <outline>
    <component base="uni0905"/>
    <component base="uni0946" xOffset="775"/>
    <contour>
      <point x="747" y="625" type="move" name="bindu"/>
    </contour>
  </outline>
</glyph>
<glyph name="dvAa" format="1">
  <advance width="1057"/>
  <unicode hex="0906"/>
  <outline>
    <component base="dvA"/>
    <component base="dvMatraAa" xOffset="781"/>
    <contour>
      <point x="784" y="640" type="move" name="bindu"/>
    </contour>
    <contour>
      <point x="778" y="640" type="move" name="candrabindu"/>
    </contour>
  </outline>
</glyph>
<glyph name="uni0906" format="1">
  <advance width="1057"/>
  <unicode hex="0906"/>
  <outline>
    <component base="uni0905"/>
    <component base="uni093E" xOffset="781"/>
    <contour>
      <point x="784" y="640" type="move" name="bindu"/>
    </contour>
    <contour>
      <point x="778" y="640" type="move" name="candrabindu"/>
    </contour>
  </outline>
</glyph>
<glyph name="uni090E" format="1">
  <advance width="571"/>
  <unicode hex="090E"/>
  <outline>
    <component base="uni090F"/>
    <component base="uni0946" xOffset="552"/>
    <contour>
      <point x="530" y="625" type="move" name="bindu"/>
    </contour>
  </outline>
</glyph>
<glyph name="dvO" format="1">
  <advance width="1057"/>
  <unicode hex="0913"/>
  <outline>
    <component base="dvA"/>
    <component base="dvMatraO" xOffset="781"/>
    <contour>
      <point x="984" y="624" type="move" name="bindu"/>
    </contour>
  </outline>
</glyph>
<glyph name="dvAu" format="1">
  <advance width="1057"/>
  <unicode hex="0914"/>
  <outline>
    <component base="dvA"/>
    <component base="dvMatraAu" xOffset="781"/>
    <contour>
      <point x="1013" y="625" type="move" name="bindu"/>
    </contour>
  </outline>
</glyph>
<glyph name="dvNnna" format="1">
  <advance width="569"/>
  <unicode hex="0929"/>
  <outline>
    <component base="dvNa"/>
    <component base="dvNukta" xOffset="216" yOffset="133"/>
    <contour>
      <point x="409" y="640" type="move" name="candrabindu"/>
    </contour>
    <contour>
      <point x="616" y="640" type="move" name="candrabinduCXT"/>
    </contour>
    <contour>
      <point x="425" y="640" type="move" name="bindu"/>
    </contour>
    <contour>
      <point x="424" y="470" type="move" name="top"/>
    </contour>
    <contour>
      <point x="360" y="4" type="move" name="bottom"/>
    </contour>
  </outline>
</glyph>
<glyph name="dvRra" format="1">
  <advance width="420"/>
  <unicode hex="0931"/>
  <outline>
    <component base="dvRa"/>
    <component base="dvNukta" xOffset="128" yOffset="91"/>
    <contour>
      <point x="248" y="640" type="move" name="candrabindu"/>
    </contour>
    <contour>
      <point x="438" y="640" type="move" name="candrabinduCXT"/>
    </contour>
    <contour>
      <point x="239" y="640" type="move" name="bindu"/>
    </contour>
    <contour>
      <point x="254" y="470" type="move" name="top"/>
    </contour>
    <contour>
      <point x="253" y="-97" type="move" name="bottom"/>
    </contour>
  </outline>
</glyph>
<glyph name="uni0934" format="1">
  <advance width="741"/>
  <unicode hex="0934"/>
  <outline>
    <component base="uni0933"/>
    <component base="uni093C" xOffset="376" yOffset="69"/>
    <contour>
      <point x="494" y="640" type="move" name="candrabindu"/>
    </contour>
    <contour>
      <point x="711" y="640" type="move" name="candrabinduCXT"/>
    </contour>
    <contour>
      <point x="507" y="640" type="move" name="bindu"/>
    </contour>
    <contour>
      <point x="519" y="470" type="move" name="top"/>
    </contour>
    <contour>
      <point x="427" y="-156" type="move" name="bottom"/>
    </contour>
  </outline>
</glyph>
<glyph name="uni093B" format="1">
  <advance width="276"/>
  <unicode hex="093B"/>
  <outline>
    <contour>
      <point x="88" y="795" type="line"/>
      <point x="88" y="584" type="line"/>
      <point x="138" y="556" type="line"/>
      <point x="164" y="566" type="line"/>
      <point x="164" y="795" type="line"/>
    </contour>
    <component base="uni093E"/>
  </outline>
</glyph>
<glyph name="uni094A" format="1">
  <advance width="276"/>
  <unicode hex="094A"/>
  <outline>
    <component base="uni093E"/>
    <component base="uni0946" xOffset="282"/>
    <contour>
      <point x="256" y="625" type="move" name="bindu"/>
    </contour>
  </outline>
</glyph>
<glyph name="dvOm" format="1">
  <advance width="1025"/>
  <unicode hex="0950"/>
  <outline>
    <contour>
      <point x="15" y="274" type="line"/>
      <point x="116" y="58"/>
      <point x="225" y="2"/>
      <point x="318" y="2" type="curve" smooth="yes"/>
      <point x="433" y="2"/>
      <point x="500" y="89"/>
      <point x="500" y="174" type="curve" smooth="yes"/>
      <point x="500" y="245"/>
      <point x="453" y="327"/>
      <point x="351" y="370" type="curve"/>
      <point x="320" y="385" type="line"/>
      <point x="272" y="393"/>
      <point x="215" y="380"/>
      <point x="172" y="345" type="curve"/>
      <point x="232" y="247" type="line"/>
      <point x="375" y="325" type="line"/>
      <point x="290" y="310" type="line"/>
      <point x="371" y="311"/>
      <point x="409" y="257"/>
      <point x="409" y="206" type="curve" smooth="yes"/>
      <point x="409" y="153"/>
      <point x="368" y="95"/>
      <point x="290" y="95" type="curve" smooth="yes"/>
      <point x="193" y="95"/>
      <point x="131" y="183"/>
      <point x="72" y="309" type="curve"/>
    </contour>
    <contour>
      <point x="160" y="468" type="line"/>
      <point x="218" y="523"/>
      <point x="292" y="558"/>
      <point x="342" y="553" type="curve"/>
      <point x="356" y="543"/>
      <point x="368" y="523"/>
      <point x="368" y="501" type="curve" smooth="yes"/>
      <point x="368" y="457"/>
      <point x="328" y="396"/>
      <point x="228" y="366" type="curve"/>
      <point x="334" y="314" type="line"/>
      <point x="415" y="349"/>
      <point x="453" y="416"/>
      <point x="453" y="470" type="curve" smooth="yes"/>
      <point x="453" y="548"/>
      <point x="372" y="633"/>
      <point x="275" y="633" type="curve" smooth="yes"/>
      <point x="210" y="633"/>
      <point x="145" y="595"/>
      <point x="99" y="550" type="curve"/>
    </contour>
    <contour>
      <point x="415" y="267" type="line"/>
      <point x="465" y="198"/>
      <point x="501" y="181"/>
      <point x="544" y="181" type="curve" smooth="yes"/>
      <point x="725" y="181"/>
      <point x="725" y="480"/>
      <point x="853" y="480" type="curve" smooth="yes"/>
      <point x="896" y="480"/>
      <point x="925" y="446"/>
      <point x="925" y="402" type="curve" smooth="yes"/>
      <point x="925" y="321"/>
      <point x="827" y="209"/>
      <point x="719" y="158" type="curve"/>
      <point x="799" y="82" type="line"/>
      <point x="918" y="137"/>
      <point x="1012" y="250"/>
      <point x="1012" y="358" type="curve" smooth="yes"/>
      <point x="1012" y="456"/>
      <point x="937" y="555"/>
      <point x="824" y="555" type="curve" smooth="yes"/>
      <point x="625" y="555"/>
      <point x="623" y="248"/>
      <point x="513" y="248" type="curve" smooth="yes"/>
      <point x="486" y="248"/>
      <point x="460" y="268"/>
      <point x="435" y="300" type="curve"/>
    </contour>
    <contour>
      <point x="673" y="782" type="line"/>
      <point x="658" y="707"/>
      <point x="615" y="672"/>
      <point x="564" y="672" type="curve" smooth="yes"/>
      <point x="514" y="672"/>
      <point x="463" y="705"/>
      <point x="419" y="783" type="curve"/>
      <point x="373" y="742" type="line"/>
      <point x="428" y="637"/>
      <point x="517" y="584"/>
      <point x="593" y="584" type="curve" smooth="yes"/>
      <point x="676" y="584"/>
      <point x="744" y="648"/>
      <point x="761" y="742" type="curve"/>
    </contour>
    <contour>
      <point x="592" y="750"/>
      <point x="618" y="783"/>
      <point x="628" y="811" type="curve"/>
      <point x="613" y="831"/>
      <point x="580" y="861"/>
      <point x="552" y="872" type="curve"/>
      <point x="529" y="858"/>
      <point x="504" y="825"/>
      <point x="489" y="795" type="curve"/>
      <point x="506" y="771"/>
      <point x="543" y="743"/>
      <point x="568" y="734" type="curve"/>
    </contour>
  </outline>
</glyph>
<glyph name="uni0952" format="1">
  <advance width="0"/>
  <unicode hex="0952"/>
  <outline>
    <contour>
      <point x="-61" y="-193" type="line"/>
      <point x="-51" y="-167" type="line"/>
      <point x="-79" y="-117" type="line"/>
      <point x="-356" y="-117" type="line"/>
      <point x="-367" y="-143" type="line"/>
      <point x="-338" y="-193" type="line"/>
    </contour>
    <contour>
      <point x="-209" y="0" type="move" name="_bottom"/>
    </contour>
  </outline>
</glyph>
<glyph name="dvMatraCandraLongE" format="1">
  <advance width="331"/>
  <unicode hex="0955"/>
  <outline>
    <contour>
      <point x="346" y="538" type="line"/>
      <point x="359" y="565" type="line"/>
      <point x="320" y="624" type="line"/>
      <point x="-26" y="624" type="line"/>
      <point x="-39" y="596" type="line"/>
      <point x="0" y="538" type="line"/>
    </contour>
    <component base="dvMatraCandraE" xOffset="329"/>
  </outline>
</glyph>
<glyph name="uni0958" format="1">
  <advance width="755"/>
  <unicode hex="0958"/>
  <outline>
    <component base="uni093C" xOffset="171" yOffset="117"/>
    <component base="uni0915"/>
    <contour>
      <point x="401" y="640" type="move" name="candrabindu"/>
    </contour>
    <contour>
      <point x="678" y="640" type="move" name="candrabinduCXT"/>
    </contour>
    <contour>
      <point x="381" y="640" type="move" name="bindu"/>
    </contour>
    <contour>
      <point x="398" y="470" type="move" name="top"/>
    </contour>
    <contour>
      <point x="310" y="-55" type="move" name="bottom"/>
    </contour>
  </outline>
</glyph>
<glyph name="uni0959" format="1">
  <advance width="817"/>
  <unicode hex="0959"/>
  <outline>
    <component base="uni0916"/>
    <component base="uni093C" xOffset="181" yOffset="80"/>
    <contour>
      <point x="507" y="640" type="move" name="candrabindu"/>
    </contour>
    <contour>
      <point x="864" y="640" type="move" name="candrabinduCXT"/>
    </contour>
    <contour>
      <point x="488" y="640" type="move" name="bindu"/>
    </contour>
    <contour>
      <point x="672" y="470" type="move" name="top"/>
    </contour>
    <contour>
      <point x="608" y="-53" type="move" name="bottom"/>
    </contour>
  </outline>
</glyph>
<glyph name="dvGhha" format="1">
  <advance width="615"/>
  <unicode hex="095A"/>
  <outline>
    <component base="dvGa"/>
    <component base="dvNukta" xOffset="265" yOffset="118"/>
    <contour>
      <point x="355" y="640" type="move" name="candrabindu"/>
    </contour>
    <contour>
      <point x="663" y="640" type="move" name="candrabinduCXT"/>
    </contour>
    <contour>
      <point x="344" y="640" type="move" name="bindu"/>
    </contour>
    <contour>
      <point x="470" y="470" type="move" name="top"/>
    </contour>
    <contour>
      <point x="406" y="-73" type="move" name="bottom"/>
    </contour>
  </outline>
</glyph>
<glyph name="uni095B" format="1">
  <advance width="693"/>
  <unicode hex="095B"/>
  <outline>
    <component base="uni091C"/>
    <component base="uni093C" xOffset="311" yOffset="78"/>
    <contour>
      <point x="533" y="640" type="move" name="candrabindu"/>
    </contour>
    <contour>
      <point x="740" y="640" type="move" name="candrabinduCXT"/>
    </contour>
    <contour>
      <point x="549" y="640" type="move" name="bindu"/>
    </contour>
    <contour>
      <point x="548" y="470" type="move" name="top"/>
    </contour>
    <contour>
      <point x="462" y="-104" type="move" name="bottom"/>
    </contour>
  </outline>
</glyph>
<glyph name="uni095C" format="1">
  <advance width="602"/>
  <unicode hex="095C"/>
  <outline>
    <component base="uni0921"/>
    <component base="uni093C" xOffset="349" yOffset="-8"/>
    <contour>
      <point x="429" y="640" type="move" name="candrabindu"/>
    </contour>
    <contour>
      <point x="622" y="640" type="move" name="candrabinduCXT"/>
    </contour>
    <contour>
      <point x="439" y="640" type="move" name="bindu"/>
    </contour>
    <contour>
      <point x="451" y="470" type="move" name="top"/>
    </contour>
    <contour>
      <point x="329" y="-243" type="move" name="bottom"/>
    </contour>
  </outline>
</glyph>
<glyph name="uni095D" format="1">
  <advance width="581"/>
  <unicode hex="095D"/>
  <outline>
    <component base="uni0922"/>
    <component base="uni093C" xOffset="346" yOffset="-2"/>
    <contour>
      <point x="398" y="640" type="move" name="candrabindu"/>
    </contour>
    <contour>
      <point x="591" y="640" type="move" name="candrabinduCXT"/>
    </contour>
    <contour>
      <point x="408" y="640" type="move" name="bindu"/>
    </contour>
    <contour>
      <point x="417" y="470" type="move" name="top"/>
    </contour>
    <contour>
      <point x="348" y="-234" type="move" name="bottom"/>
    </contour>
  </outline>
</glyph>
<glyph name="dvFa" format="1">
  <advance width="782"/>
  <unicode hex="095E"/>
  <outline>
    <component base="dvPha"/>
    <component base="dvNukta" xOffset="189" yOffset="147"/>
    <contour>
      <point x="405" y="640" type="move" name="candrabindu"/>
    </contour>
    <contour>
      <point x="707" y="640" type="move" name="candrabinduCXT"/>
    </contour>
    <contour>
      <point x="384" y="640" type="move" name="bindu"/>
    </contour>
    <contour>
      <point x="405" y="470" type="move" name="top"/>
    </contour>
    <contour>
      <point x="328" y="-55" type="move" name="bottom"/>
    </contour>
  </outline>
</glyph>
<glyph name="uni095E" format="1">
  <advance width="782"/>
  <unicode hex="095E"/>
  <outline>
    <component base="uni092B"/>
    <component base="uni093C" xOffset="189" yOffset="147"/>
    <contour>
      <point x="405" y="640" type="move" name="candrabindu"/>
    </contour>
    <contour>
      <point x="707" y="640" type="move" name="candrabinduCXT"/>
    </contour>
    <contour>
      <point x="384" y="640" type="move" name="bindu"/>
    </contour>
    <contour>
      <point x="405" y="470" type="move" name="top"/>
    </contour>
    <contour>
      <point x="328" y="-55" type="move" name="bottom"/>
    </contour>
  </outline>
</glyph>
<glyph name="dvYya" format="1">
  <advance width="611"/>
  <unicode hex="095F"/>
  <outline>
    <component base="dvYa"/>
    <component base="dvNukta" xOffset="207" yOffset="124"/>
    <contour>
      <point x="358" y="640" type="move" name="candrabindu"/>
    </contour>
    <contour>
      <point x="658" y="640" type="move" name="candrabinduCXT"/>
    </contour>
    <contour>
      <point x="332" y="640" type="move" name="bindu"/>
    </contour>
    <contour>
      <point x="466" y="470" type="move" name="top"/>
    </contour>
    <contour>
      <point x="388" y="-79" type="move" name="bottom"/>
    </contour>
  </outline>
</glyph>
<glyph name="uni095F" format="1">
  <advance width="611"/>
  <unicode hex="095F"/>
  <outline>
    <component base="uni092F"/>
    <component base="uni093C" xOffset="207" yOffset="124"/>
    <contour>
      <point x="358" y="640" type="move" name="candrabindu"/>
    </contour>
    <contour>
      <point x="658" y="640" type="move" name="candrabinduCXT"/>
    </contour>
    <contour>
      <point x="332" y="640" type="move" name="bindu"/>
    </contour>
    <contour>
      <point x="466" y="470" type="move" name="top"/>
    </contour>
    <contour>
      <point x="388" y="-79" type="move" name="bottom"/>
    </contour>
  </outline>
</glyph>
<glyph name="dvThree" format="1">
  <advance width="550"/>
  <unicode hex="0969"/>
  <outline>
    <contour>
      <point x="170" y="258" type="line"/>
      <point x="328" y="321" type="line"/>
      <point x="246" y="319" type="line"/>
      <point x="349" y="310"/>
      <point x="397" y="266"/>
      <point x="397" y="216" type="curve" smooth="yes"/>
      <point x="397" y="160"/>
      <point x="336" y="113"/>
      <point x="248" y="113" type="curve" smooth="yes"/>
      <point x="220" y="113"/>
      <point x="193" y="118"/>
      <point x="165" y="127" type="curve"/>
      <point x="194" y="33" type="line"/>
      <point x="223" y="25"/>
      <point x="253" y="21"/>
      <point x="281" y="21" type="curve" smooth="yes"/>
      <point x="415" y="21"/>
      <point x="497" y="96"/>
      <point x="497" y="184" type="curve" smooth="yes"/>
      <point x="497" y="265"/>
      <point x="427" y="339"/>
      <point x="297" y="383" type="curve"/>
      <point x="271" y="392" type="line"/>
      <point x="226" y="401"/>
      <point x="160" y="392"/>
      <point x="112" y="357" type="curve"/>
    </contour>
    <contour>
      <point x="397" y="-126" type="line"/>
      <point x="396" y="-100" type="line"/>
      <point x="203" y="81" type="line"/>
      <point x="157" y="62" type="line"/>
      <point x="344" y="-165" type="line"/>
    </contour>
    <contour>
      <point x="71" y="84" type="line"/>
      <point x="93" y="61"/>
      <point x="158" y="25"/>
      <point x="203" y="22" type="curve"/>
      <point x="247" y="56" type="line"/>
      <point x="155" y="198" type="line"/>
      <point x="116" y="191" type="line"/>
    </contour>
    <contour>
      <point x="93" y="473" type="line"/>
      <point x="153" y="526"/>
      <point x="243" y="567"/>
      <point x="305" y="567" type="curve"/>
      <point x="335" y="550"/>
      <point x="346" y="521"/>
      <point x="346" y="496" type="curve" smooth="yes"/>
      <point x="346" y="439"/>
      <point x="291" y="397"/>
      <point x="213" y="382" type="curve"/>
      <point x="314" y="318" type="line"/>
      <point x="382" y="342"/>
      <point x="443" y="397"/>
      <point x="443" y="469" type="curve" smooth="yes"/>
      <point x="443" y="558"/>
      <point x="351" y="647"/>
      <point x="233" y="647" type="curve" smooth="yes"/>
      <point x="161" y="647"/>
      <point x="79" y="612"/>
      <point x="29" y="566" type="curve"/>
    </contour>
  </outline>
</glyph>
<glyph name="dvEight" format="1">
  <advance width="450"/>
  <unicode hex="096E"/>
  <outline>
    <contour>
      <point x="289" y="616" type="line"/>
      <point x="105" y="384" type="line" smooth="yes"/>
      <point x="50" y="316"/>
      <point x="32" y="259"/>
      <point x="32" y="218" type="curve" smooth="yes"/>
      <point x="32" y="118"/>
      <point x="136" y="1"/>
      <point x="254" y="1" type="curve" smooth="yes"/>
      <point x="328" y="1"/>
      <point x="388" y="48"/>
      <point x="433" y="121" type="curve"/>
      <point x="360" y="195" type="line"/>
      <point x="319" y="132"/>
      <point x="268" y="96"/>
      <point x="216" y="96" type="curve" smooth="yes"/>
      <point x="167" y="96"/>
      <point x="122" y="129"/>
      <point x="122" y="187" type="curve" smooth="yes"/>
      <point x="122" y="217"/>
      <point x="135" y="249"/>
      <point x="187" y="315" type="curve" smooth="yes"/>
      <point x="355" y="526" type="line"/>
    </contour>
  </outline>
</glyph>
<glyph name="dvAbbreviation" format="1">
  <advance width="323"/>
  <unicode hex="0970"/>
  <outline>
    <contour>
      <point x="319" y="375"/>
      <point x="326" y="350"/>
      <point x="326" y="329" type="curve" smooth="yes"/>
      <point x="326" y="267"/>
      <point x="267" y="216"/>
      <point x="191" y="244" type="curve"/>
      <point x="173" y="265"/>
      <point x="167" y="289"/>
      <point x="167" y="309" type="curve" smooth="yes"/>
      <point x="167" y="375"/>
      <point x="228" y="428"/>
      <point x="299" y="396" type="curve"/>
    </contour>
    <contour>
      <point x="345" y="155"/>
      <point x="410" y="213"/>
      <point x="410" y="302" type="curve" smooth="yes"/>
      <point x="410" y="403"/>
      <point x="325" y="488"/>
      <point x="229" y="488" type="curve" smooth="yes"/>
      <point x="150" y="488"/>
      <point x="77" y="431"/>
      <point x="77" y="339" type="curve" smooth="yes"/>
      <point x="77" y="230"/>
      <point x="181" y="155"/>
      <point x="268" y="155" type="curve" smooth="yes"/>
    </contour>
  </outline>
</glyph>
<glyph name="uni0973" format="1">
  <advance width="781"/>
  <unicode hex="0973"/>
  <outline>
    <contour>
      <point x="595" y="795" type="line"/>
      <point x="595" y="584" type="line"/>
      <point x="645" y="556" type="line"/>
      <point x="671" y="566" type="line"/>
      <point x="671" y="795" type="line"/>
    </contour>
    <component base="uni0905"/>
  </outline>
</glyph>
<glyph name="uni0975" format="1">
  <advance width="1057"/>
  <unicode hex="0975"/>
  <outline>
    <component base="uni0905"/>
    <component base="uni094F" xOffset="781"/>
    <contour>
      <point x="1042" y="625" type="move" name="bindu"/>
    </contour>
  </outline>
</glyph>
<glyph name="uni0976" format="1">
  <advance width="781"/>
  <unicode hex="0976"/>
  <outline>
    <component base="uni0905"/>
    <component base="uni0956" xOffset="739"/>
    <contour>
      <point x="637" y="640" type="move" name="bindu"/>
    </contour>
    <contour>
      <point x="621" y="640" type="move" name="candrabindu"/>
    </contour>
  </outline>
</glyph>
<glyph name="uni0977" format="1">
  <advance width="781"/>
  <unicode hex="0977"/>
  <outline>
    <component base="uni0905"/>
    <component base="uni0957" xOffset="737"/>
    <contour>
      <point x="637" y="640" type="move" name="bindu"/>
    </contour>
    <contour>
      <point x="621" y="640" type="move" name="candrabindu"/>
    </contour>
  </outline>
</glyph>
<glyph name="dvZha" format="1">
  <advance width="693"/>
  <unicode hex="0979"/>
  <outline>
    <component base="dvJa"/>
    <component base="dvNukta" xOffset="199" yOffset="78"/>
    <component base="dvNukta" xOffset="296" yOffset="-31"/>
    <component base="dvNukta" xOffset="382" yOffset="78"/>
    <contour>
      <point x="533" y="640" type="move" name="candrabindu"/>
    </contour>
    <contour>
      <point x="740" y="640" type="move" name="candrabinduCXT"/>
    </contour>
    <contour>
      <point x="549" y="640" type="move" name="bindu"/>
    </contour>
    <contour>
      <point x="548" y="470" type="move" name="top"/>
    </contour>
    <contour>
      <point x="464" y="-213" type="move" name="bottom"/>
    </contour>
  </outline>
</glyph>
<glyph name="uni0979" format="1">
  <advance width="693"/>
  <unicode hex="0979"/>
  <outline>
    <component base="uni091C"/>
    <component base="uni093C" xOffset="199" yOffset="78"/>
    <component base="uni093C" xOffset="296" yOffset="-31"/>
    <component base="uni093C" xOffset="382" yOffset="78"/>
    <contour>
      <point x="533" y="640" type="move" name="candrabindu"/>
    </contour>
    <contour>
      <point x="740" y="640" type="move" name="candrabinduCXT"/>
    </contour>
    <contour>
      <point x="549" y="640" type="move" name="bindu"/>
    </contour>
    <contour>
      <point x="548" y="470" type="move" name="top"/>
    </contour>
    <contour>
      <point x="464" y="-213" type="move" name="bottom"/>
    </contour>
  </outline>
</glyph>
<glyph name="uni097A" format="1">
  <advance width="611"/>
  <unicode hex="097A"/>
  <outline>
    <contour>
      <point x="434" y="172" type="line"/>
      <point x="485" y="208" type="line"/>
      <point x="252" y="422" type="line"/>
      <point x="197" y="390" type="line"/>
    </contour>
    <component base="uni092F"/>
    <contour>
      <point x="358" y="640" type="move" name="candrabindu"/>
    </contour>
    <contour>
      <point x="658" y="640" type="move" name="candrabinduCXT"/>
    </contour>
    <contour>
      <point x="332" y="640" type="move" name="bindu"/>
    </contour>
    <contour>
      <point x="466" y="470" type="move" name="top"/>
    </contour>
    <contour>
      <point x="402" y="4" type="move" name="bottom"/>
    </contour>
  </outline>
</glyph>
<glyph name="dvDdda" format="1">
  <advance width="602"/>
  <unicode hex="097E"/>
  <outline>
    <contour>
      <point x="570" y="-176" type="line"/>
      <point x="583" y="-149" type="line"/>
      <point x="544" y="-91" type="line"/>
      <point x="111" y="-91" type="line"/>
      <point x="98" y="-118" type="line"/>
      <point x="137" y="-176" type="line"/>
    </contour>
    <component base="dvDda"/>
    <contour>
      <point x="429" y="640" type="move" name="candrabindu"/>
    </contour>
    <contour>
      <point x="622" y="640" type="move" name="candrabinduCXT"/>
    </contour>
    <contour>
      <point x="439" y="640" type="move" name="bindu"/>
    </contour>
    <contour>
      <point x="451" y="470" type="move" name="top"/>
    </contour>
    <contour>
      <point x="319" y="-183" type="move" name="bottom"/>
    </contour>
  </outline>
</glyph>
<glyph name="emdash" format="1">
  <advance width="992"/>
  <unicode hex="2014"/>
  <outline>
    <contour>
      <point x="122" y="304"/>
      <point x="78" y="296"/>
      <point x="39" y="276" type="curve"/>
      <point x="46" y="219" type="line"/>
      <point x="902" y="219" type="line"/>
      <point x="949" y="268" type="line"/>
      <point x="945" y="304" type="line"/>
      <point x="153" y="304" type="line"/>
    </contour>
  </outline>
</glyph>
<glyph name="quoteright" format="1">
  <advance width="232"/>
  <unicode hex="2019"/>
  <outline>
    <contour>
      <point x="72" y="476" type="line"/>
      <point x="152" y="517"/>
      <point x="204" y="587"/>
      <point x="204" y="653" type="curve" smooth="yes"/>
      <point x="204" y="690"/>
      <point x="186" y="733"/>
      <point x="126" y="757" type="curve"/>
      <point x="88" y="744"/>
      <point x="59" y="706"/>
      <point x="54" y="671" type="curve"/>
      <point x="108" y="627" type="line"/>
      <point x="104" y="587"/>
      <point x="77" y="545"/>
      <point x="40" y="517" type="curve"/>
    </contour>
  </outline>
</glyph>
<glyph name="dagger" format="1">
  <advance width="543"/>
  <unicode hex="2020"/>
  <outline>
    <contour>
      <point x="200" y="653" type="line"/>
      <point x="221" y="-180" type="line"/>
      <point x="302" y="-180" type="line"/>
      <point x="328" y="685" type="line"/>
      <point x="236" y="689" type="line"/>
    </contour>
    <contour>
      <point x="497" y="437" type="line"/>
      <point x="491" y="468" type="line"/>
      <point x="89" y="468" type="line"/>
      <point x="46" y="421" type="line"/>
      <point x="52" y="390" type="line"/>
      <point x="454" y="390" type="line"/>
    </contour>
  </outline>
</glyph>
<glyph name="bullet" format="1">
  <advance width="413"/>
  <unicode hex="2022"/>
  <outline>
    <contour>
      <point x="314" y="327"/>
      <point x="264" y="375"/>
      <point x="198" y="400" type="curve"/>
      <point x="133" y="367"/>
      <point x="89" y="314"/>
      <point x="76" y="240" type="curve"/>
      <point x="103" y="181"/>
      <point x="152" y="141"/>
      <point x="220" y="122" type="curve"/>
      <point x="283" y="153"/>
      <point x="322" y="200"/>
      <point x="337" y="261" type="curve"/>
    </contour>
  </outline>
</glyph>
<glyph name="perthousand" format="1">
  <advance width="1184"/>
  <unicode hex="2030"/>
  <outline>
    <contour>
      <point x="224" y="-38" type="line"/>
      <point x="633" y="538" type="line"/>
      <point x="574" y="580" type="line"/>
      <point x="166" y="6" type="line"/>
    </contour>
    <contour>
      <point x="230" y="347"/>
      <point x="222" y="346"/>
      <point x="215" y="346" type="curve" smooth="yes"/>
      <point x="161" y="346"/>
      <point x="134" y="397"/>
      <point x="134" y="445" type="curve" smooth="yes"/>
      <point x="134" y="472"/>
      <point x="143" y="498"/>
      <point x="160" y="516" type="curve"/>
      <point x="171" y="520"/>
      <point x="181" y="522"/>
      <point x="190" y="522" type="curve" smooth="yes"/>
      <point x="238" y="522"/>
      <point x="268" y="474"/>
      <point x="268" y="424" type="curve" smooth="yes"/>
      <point x="268" y="396"/>
      <point x="259" y="368"/>
      <point x="238" y="349" type="curve"/>
    </contour>
    <contour>
      <point x="54" y="347"/>
      <point x="124" y="278"/>
      <point x="204" y="278" type="curve" smooth="yes"/>
      <point x="289" y="278"/>
      <point x="349" y="346"/>
      <point x="349" y="435" type="curve" smooth="yes"/>
      <point x="349" y="517"/>
      <point x="283" y="594"/>
      <point x="200" y="594" type="curve" smooth="yes"/>
      <point x="119" y="594"/>
      <point x="54" y="517"/>
      <point x="54" y="435" type="curve" smooth="yes"/>
    </contour>
    <contour>
      <point x="652" y="44"/>
      <point x="645" y="43"/>
      <point x="637" y="43" type="curve" smooth="yes"/>
      <point x="584" y="43"/>
      <point x="556" y="92"/>
      <point x="556" y="141" type="curve" smooth="yes"/>
      <point x="556" y="167"/>
      <point x="564" y="194"/>
      <point x="582" y="213" type="curve"/>
      <point x="593" y="217"/>
      <point x="603" y="219"/>
      <point x="612" y="219" type="curve" smooth="yes"/>
      <point x="661" y="219"/>
      <point x="690" y="169"/>
      <point x="690" y="120" type="curve" smooth="yes"/>
      <point x="690" y="93"/>
      <point x="681" y="65"/>
      <point x="660" y="46" type="curve"/>
    </contour>
    <contour>
      <point x="476" y="43"/>
      <point x="546" y="-26"/>
      <point x="626" y="-26" type="curve" smooth="yes"/>
      <point x="711" y="-26"/>
      <point x="771" y="42"/>
      <point x="771" y="132" type="curve" smooth="yes"/>
      <point x="771" y="214"/>
      <point x="705" y="290"/>
      <point x="622" y="290" type="curve" smooth="yes"/>
      <point x="541" y="290"/>
      <point x="476" y="214"/>
      <point x="476" y="132" type="curve" smooth="yes"/>
    </contour>
    <contour>
      <point x="1010" y="44"/>
      <point x="1003" y="43"/>
      <point x="995" y="43" type="curve" smooth="yes"/>
      <point x="942" y="43"/>
      <point x="914" y="92"/>
      <point x="914" y="141" type="curve" smooth="yes"/>
      <point x="914" y="166"/>
      <point x="922" y="194"/>
      <point x="940" y="213" type="curve"/>
      <point x="951" y="217"/>
      <point x="961" y="219"/>
      <point x="970" y="219" type="curve" smooth="yes"/>
      <point x="1019" y="219"/>
      <point x="1048" y="169"/>
      <point x="1048" y="120" type="curve" smooth="yes"/>
      <point x="1048" y="93"/>
      <point x="1039" y="65"/>
      <point x="1018" y="46" type="curve"/>
    </contour>
    <contour>
      <point x="834" y="43"/>
      <point x="904" y="-26"/>
      <point x="984" y="-26" type="curve" smooth="yes"/>
      <point x="1069" y="-26"/>
      <point x="1129" y="42"/>
      <point x="1129" y="132" type="curve" smooth="yes"/>
      <point x="1129" y="214"/>
      <point x="1063" y="290"/>
      <point x="980" y="290" type="curve" smooth="yes"/>
      <point x="899" y="290"/>
      <point x="834" y="214"/>
      <point x="834" y="132" type="curve" smooth="yes"/>
    </contour>
  </outline>
</glyph>
<glyph name="fraction" format="1">
  <advance width="143"/>
  <unicode hex="2044"/>
  <outline>
    <contour>
      <point x="-170" y="18" type="line"/>
      <point x="407" y="621" type="line"/>
      <point x="356" y="673" type="line"/>
      <point x="-223" y="68" type="line"/>
    </contour>
  </outline>
</glyph>
<glyph name="euro" format="1">
  <advance width="615"/>
  <unicode hex="20AC"/>
  <outline>
    <contour>
      <point x="571" y="114" type="line"/>
      <point x="425" y="73" type="line"/>
      <point x="266" y="82"/>
      <point x="210" y="186"/>
      <point x="210" y="319" type="curve" smooth="yes"/>
      <point x="210" y="439"/>
      <point x="257" y="547"/>
      <point x="335" y="597" type="curve"/>
      <point x="411" y="605"/>
      <point x="489" y="574"/>
      <point x="562" y="513" type="curve"/>
      <point x="592" y="609" type="line"/>
      <point x="543" y="648"/>
      <point x="479" y="670"/>
      <point x="403" y="670" type="curve" smooth="yes"/>
      <point x="182" y="670"/>
      <point x="84" y="484"/>
      <point x="84" y="312" type="curve" smooth="yes"/>
      <point x="84" y="139"/>
      <point x="183" y="-17"/>
      <point x="407" y="-21" type="curve"/>
      <point x="592" y="56" type="line"/>
    </contour>
    <contour>
      <point x="568" y="462" type="line"/>
      <point x="579" y="496"/>
      <point x="589" y="554"/>
      <point x="593" y="609" type="curve"/>
      <point x="492" y="584" type="line"/>
      <point x="505" y="462" type="line"/>
    </contour>
    <contour>
      <point x="542" y="389" type="line"/>
      <point x="536" y="410" type="line"/>
      <point x="32" y="410" type="line"/>
      <point x="-4" y="370" type="line"/>
      <point x="2" y="349" type="line"/>
      <point x="507" y="349" type="line"/>
    </contour>
    <contour>
      <point x="502" y="246" type="line"/>
      <point x="496" y="267" type="line"/>
      <point x="6" y="267" type="line"/>
      <point x="-30" y="227" type="line"/>
      <point x="-24" y="206" type="line"/>
      <point x="466" y="206" type="line"/>
    </contour>
    <contour>
      <point x="406" y="650" type="move" name="top"/>
    </contour>
    <contour>
      <point x="406" y="0" type="move" name="bottom"/>
    </contour>
  </outline>
</glyph>
<glyph name="ruble" format="1">
  <advance width="627"/>
  <unicode hex="20BD"/>
  <outline>
    <contour>
      <point x="43" y="654" type="line"/>
      <point x="222" y="586" type="line"/>
      <point x="393" y="596" type="line"/>
      <point x="439" y="572"/>
      <point x="463" y="509"/>
      <point x="463" y="451" type="curve" smooth="yes"/>
      <point x="463" y="378"/>
      <point x="424" y="309"/>
      <point x="327" y="309" type="curve" smooth="yes"/>
      <point x="208" y="309" type="line"/>
      <point x="205" y="241" type="line"/>
      <point x="353" y="241" type="line" smooth="yes"/>
      <point x="507" y="241"/>
      <point x="592" y="342"/>
      <point x="592" y="450" type="curve" smooth="yes"/>
      <point x="592" y="556"/>
      <point x="509" y="663"/>
      <point x="344" y="662" type="curve" smooth="yes"/>
    </contour>
    <contour>
      <point x="96" y="61"/>
      <point x="61" y="48"/>
      <point x="31" y="32" type="curve"/>
      <point x="37" y="0" type="line"/>
      <point x="131" y="0" type="line"/>
      <point x="130" y="73" type="line"/>
    </contour>
    <contour>
      <point x="214" y="0" type="line"/>
      <point x="354" y="0" type="line"/>
      <point x="355" y="49" type="line"/>
      <point x="217" y="67" type="line"/>
    </contour>
    <contour>
      <point x="114" y="654" type="line"/>
      <point x="114" y="0" type="line"/>
      <point x="236" y="0" type="line"/>
      <point x="236" y="654" type="line"/>
    </contour>
    <contour>
      <point x="43" y="654" type="line"/>
      <point x="42" y="604" type="line"/>
      <point x="147" y="594" type="line"/>
      <point x="146" y="654" type="line"/>
    </contour>
    <contour>
      <point x="378" y="158" type="line"/>
      <point x="374" y="190" type="line"/>
      <point x="72" y="190" type="line"/>
      <point x="29" y="161" type="line"/>
      <point x="35" y="130" type="line"/>
      <point x="337" y="130" type="line"/>
    </contour>
    <contour>
      <point x="380" y="272" type="line"/>
      <point x="374" y="308" type="line"/>
      <point x="72" y="308" type="line"/>
      <point x="29" y="274" type="line"/>
      <point x="35" y="243" type="line"/>
      <point x="337" y="243" type="line"/>
    </contour>
  </outline>
</glyph>
<glyph name="trademark" format="1">
  <advance width="780"/>
  <unicode hex="2122"/>
  <outline>
    <contour>
      <point x="118" y="733" type="line"/>
      <point x="118" y="449" type="line"/>
      <point x="200" y="449" type="line"/>
      <point x="200" y="733" type="line"/>
    </contour>
    <contour>
      <point x="107" y="480"/>
      <point x="87" y="472"/>
      <point x="74" y="463" type="curve"/>
      <point x="77" y="449" type="line"/>
      <point x="124" y="449" type="line"/>
      <point x="124" y="487" type="line"/>
    </contour>
    <contour>
      <point x="183" y="449" type="line"/>
      <point x="246" y="449" type="line"/>
      <point x="247" y="472" type="line"/>
      <point x="184" y="482" type="line"/>
    </contour>
    <contour>
      <point x="183" y="735"/>
      <point x="137" y="735"/>
      <point x="8" y="738" type="curve"/>
      <point x="21" y="691" type="line"/>
      <point x="159" y="699" type="line"/>
      <point x="296" y="691" type="line"/>
      <point x="309" y="738" type="line"/>
    </contour>
    <contour>
      <point x="301" y="627" type="line"/>
      <point x="307" y="650"/>
      <point x="312" y="718"/>
      <point x="310" y="738" type="curve"/>
      <point x="239" y="727" type="line"/>
      <point x="256" y="627" type="line" smooth="yes"/>
    </contour>
    <contour>
      <point x="78" y="727" type="line"/>
      <point x="8" y="738" type="line"/>
      <point x="6" y="718"/>
      <point x="10" y="650"/>
      <point x="17" y="627" type="curve"/>
      <point x="62" y="627" type="line"/>
    </contour>
    <contour>
      <point x="337" y="735" type="line"/>
      <point x="337" y="712" type="line"/>
      <point x="399" y="702" type="line"/>
      <point x="401" y="735" type="line"/>
    </contour>
    <contour>
      <point x="374" y="735" type="line"/>
      <point x="365" y="449" type="line"/>
      <point x="421" y="449" type="line"/>
      <point x="424" y="597" type="line"/>
      <point x="416" y="690" type="line"/>
      <point x="469" y="735" type="line"/>
    </contour>
    <contour>
      <point x="354" y="480"/>
      <point x="338" y="472"/>
      <point x="326" y="463" type="curve"/>
      <point x="328" y="449" type="line"/>
      <point x="371" y="449" type="line"/>
      <point x="371" y="487" type="line"/>
    </contour>
    <contour>
      <point x="397" y="449" type="line"/>
      <point x="461" y="449" type="line"/>
      <point x="461" y="472" type="line" smooth="yes"/>
      <point x="399" y="482" type="line"/>
    </contour>
    <contour>
      <point x="399" y="715" type="line"/>
      <point x="500" y="446" type="line"/>
      <point x="559" y="456" type="line"/>
      <point x="556" y="503" type="line"/>
      <point x="470" y="735" type="line"/>
    </contour>
    <contour>
      <point x="522" y="465" type="line"/>
      <point x="558" y="456" type="line"/>
      <point x="658" y="719" type="line"/>
      <point x="624" y="735" type="line"/>
    </contour>
    <contour>
      <point x="624" y="735" type="line"/>
      <point x="640" y="691" type="line"/>
      <point x="633" y="596" type="line"/>
      <point x="637" y="449" type="line"/>
      <point x="712" y="449" type="line"/>
      <point x="704" y="735" type="line"/>
    </contour>
    <contour>
      <point x="696" y="735" type="line"/>
      <point x="696" y="697" type="line"/>
      <point x="713" y="704"/>
      <point x="728" y="712"/>
      <point x="741" y="721" type="curve"/>
      <point x="738" y="735" type="line"/>
    </contour>
    <contour>
      <point x="625" y="480"/>
      <point x="609" y="472"/>
      <point x="597" y="463" type="curve"/>
      <point x="599" y="449" type="line"/>
      <point x="642" y="449" type="line"/>
      <point x="642" y="487" type="line"/>
    </contour>
    <contour>
      <point x="688" y="449" type="line"/>
      <point x="752" y="449" type="line"/>
      <point x="752" y="472" type="line"/>
      <point x="689" y="482" type="line"/>
    </contour>
    <contour>
      <point x="164" y="233" type="move" name="center"/>
    </contour>
    <contour>
      <point x="296" y="90" type="move" name="bottom"/>
    </contour>
    <contour>
      <point x="296" y="376" type="move" name="top"/>
    </contour>
  </outline>
</glyph>
<glyph name="bulletoperator" format="1">
  <advance width="227"/>
  <unicode hex="2219"/>
  <outline>
    <contour>
      <point x="137" y="192"/>
      <point x="163" y="226"/>
      <point x="174" y="255" type="curve"/>
      <point x="158" y="276"/>
      <point x="125" y="307"/>
      <point x="96" y="318" type="curve"/>
      <point x="71" y="304"/>
      <point x="46" y="270"/>
      <point x="30" y="238" type="curve"/>
      <point x="47" y="214"/>
      <point x="86" y="185"/>
      <point x="111" y="175" type="curve"/>
    </contour>
  </outline>
</glyph>
<glyph name="radical" format="1">
  <advance width="714"/>
  <unicode hex="221A"/>
  <outline>
    <contour>
      <point x="238" y="470" type="line"/>
      <point x="391" y="-39" type="line"/>
      <point x="333" y="-38" type="line"/>
      <point x="542" y="751" type="line"/>
      <point x="631" y="717" type="line"/>
      <point x="421" y="-66" type="line"/>
      <point x="387" y="-80"/>
      <point x="348" y="-85"/>
      <point x="310" y="-83" type="curve"/>
      <point x="147" y="420" type="line"/>
      <point x="212" y="386" type="line"/>
      <point x="72" y="295" type="line"/>
      <point x="25" y="354" type="line"/>
      <point x="161" y="470" type="line"/>
    </contour>
  </outline>
</glyph>
<glyph name="integral" format="1">
  <advance width="330"/>
  <unicode hex="222B"/>
  <outline>
    <contour>
      <point x="286" y="-88"/>
      <point x="189" y="-175"/>
      <point x="93" y="-177" type="curve" smooth="yes"/>
      <point x="49" y="-179"/>
      <point x="4" y="-162"/>
      <point x="-42" y="-128" type="curve"/>
      <point x="24" y="-24" type="line"/>
      <point x="37" y="-37"/>
      <point x="105" y="-97"/>
      <point x="179" y="-84" type="curve"/>
      <point x="46" y="535" type="line"/>
      <point x="46" y="663"/>
      <point x="142" y="749"/>
      <point x="238" y="751" type="curve" smooth="yes"/>
      <point x="283" y="752"/>
      <point x="327" y="736"/>
      <point x="371" y="701" type="curve"/>
      <point x="306" y="598" type="line"/>
      <point x="294" y="610"/>
      <point x="228" y="671"/>
      <point x="154" y="657" type="curve"/>
      <point x="286" y="39" type="line"/>
    </contour>
  </outline>
</glyph>
<glyph name="lozenge" format="1">
  <advance width="562"/>
  <unicode hex="25CA"/>
  <outline>
    <contour>
      <point x="118" y="413" type="line"/>
      <point x="46" y="368" type="line"/>
      <point x="252" y="-8" type="line"/>
      <point x="330" y="0" type="line"/>
      <point x="516" y="367" type="line"/>
      <point x="440" y="410" type="line"/>
      <point x="293" y="105" type="line"/>
      <point x="287" y="104" type="line"/>
    </contour>
    <contour>
      <point x="444" y="322" type="line"/>
      <point x="516" y="367" type="line"/>
      <point x="310" y="743" type="line"/>
      <point x="232" y="735" type="line"/>
      <point x="46" y="368" type="line"/>
      <point x="122" y="325" type="line"/>
      <point x="270" y="630" type="line"/>
      <point x="276" y="631" type="line"/>
    </contour>
  </outline>
</glyph>
<glyph name="dottedCircle" format="1">
  <advance width="722"/>
  <unicode hex="25CC"/>
  <outline>
    <contour>
      <point x="272" y="449"/>
      <point x="285" y="469"/>
      <point x="285" y="488" type="curve" smooth="yes"/>
      <point x="285" y="508"/>
      <point x="272" y="527"/>
      <point x="248" y="527" type="curve" smooth="yes"/>
      <point x="223" y="527"/>
      <point x="211" y="508"/>
      <point x="211" y="488" type="curve" smooth="yes"/>
      <point x="211" y="469"/>
      <point x="223" y="449"/>
      <point x="248" y="449" type="curve" smooth="yes"/>
    </contour>
    <contour>
      <point x="386" y="478"/>
      <point x="399" y="498"/>
      <point x="399" y="517" type="curve" smooth="yes"/>
      <point x="399" y="537"/>
      <point x="386" y="556"/>
      <point x="362" y="556" type="curve" smooth="yes"/>
      <point x="337" y="556"/>
      <point x="325" y="537"/>
      <point x="325" y="517" type="curve" smooth="yes"/>
      <point x="325" y="498"/>
      <point x="337" y="478"/>
      <point x="362" y="478" type="curve" smooth="yes"/>
    </contour>
    <contour>
      <point x="498" y="449"/>
      <point x="511" y="469"/>
      <point x="511" y="488" type="curve" smooth="yes"/>
      <point x="511" y="508"/>
      <point x="498" y="527"/>
      <point x="474" y="527" type="curve" smooth="yes"/>
      <point x="449" y="527"/>
      <point x="437" y="508"/>
      <point x="437" y="488" type="curve" smooth="yes"/>
      <point x="437" y="469"/>
      <point x="449" y="449"/>
      <point x="474" y="449" type="curve" smooth="yes"/>
    </contour>
    <contour>
      <point x="582" y="366"/>
      <point x="595" y="386"/>
      <point x="595" y="405" type="curve" smooth="yes"/>
      <point x="595" y="425"/>
      <point x="582" y="444"/>
      <point x="558" y="444" type="curve" smooth="yes"/>
      <point x="533" y="444"/>
      <point x="521" y="425"/>
      <point x="521" y="405" type="curve" smooth="yes"/>
      <point x="521" y="386"/>
      <point x="533" y="366"/>
      <point x="558" y="366" type="curve" smooth="yes"/>
    </contour>
    <contour>
      <point x="189" y="366"/>
      <point x="202" y="386"/>
      <point x="202" y="405" type="curve" smooth="yes"/>
      <point x="202" y="425"/>
      <point x="189" y="444"/>
      <point x="165" y="444" type="curve" smooth="yes"/>
      <point x="140" y="444"/>
      <point x="128" y="425"/>
      <point x="128" y="405" type="curve" smooth="yes"/>
      <point x="128" y="386"/>
      <point x="140" y="366"/>
      <point x="165" y="366" type="curve" smooth="yes"/>
    </contour>
    <contour>
      <point x="160" y="253"/>
      <point x="173" y="273"/>
      <point x="173" y="292" type="curve" smooth="yes"/>
      <point x="173" y="312"/>
      <point x="160" y="331"/>
      <point x="136" y="331" type="curve" smooth="yes"/>
      <point x="111" y="331"/>
      <point x="99" y="312"/>
      <point x="99" y="292" type="curve" smooth="yes"/>
      <point x="99" y="273"/>
      <point x="111" y="253"/>
      <point x="136" y="253" type="curve" smooth="yes"/>
    </contour>
    <contour>
      <point x="189" y="141"/>
      <point x="202" y="161"/>
      <point x="202" y="180" type="curve" smooth="yes"/>
      <point x="202" y="200"/>
      <point x="189" y="219"/>
      <point x="165" y="219" type="curve" smooth="yes"/>
      <point x="140" y="219"/>
      <point x="128" y="200"/>
      <point x="128" y="180" type="curve" smooth="yes"/>
      <point x="128" y="161"/>
      <point x="140" y="141"/>
      <point x="165" y="141" type="curve" smooth="yes"/>
    </contour>
    <contour>
      <point x="273" y="57"/>
      <point x="286" y="77"/>
      <point x="286" y="96" type="curve" smooth="yes"/>
      <point x="286" y="116"/>
      <point x="273" y="135"/>
      <point x="249" y="135" type="curve" smooth="yes"/>
      <point x="224" y="135"/>
      <point x="212" y="116"/>
      <point x="212" y="96" type="curve" smooth="yes"/>
      <point x="212" y="77"/>
      <point x="224" y="57"/>
      <point x="249" y="57" type="curve" smooth="yes"/>
    </contour>
    <contour>
      <point x="387" y="29"/>
      <point x="400" y="49"/>
      <point x="400" y="68" type="curve" smooth="yes"/>
      <point x="400" y="88"/>
      <point x="387" y="107"/>
      <point x="363" y="107" type="curve" smooth="yes"/>
      <point x="338" y="107"/>
      <point x="326" y="88"/>
      <point x="326" y="68" type="curve" smooth="yes"/>
      <point x="326" y="49"/>
      <point x="338" y="29"/>
      <point x="363" y="29" type="curve" smooth="yes"/>
    </contour>
    <contour>
      <point x="498" y="57"/>
      <point x="511" y="77"/>
      <point x="511" y="96" type="curve" smooth="yes"/>
      <point x="511" y="116"/>
      <point x="498" y="135"/>
      <point x="474" y="135" type="curve" smooth="yes"/>
      <point x="449" y="135"/>
      <point x="437" y="116"/>
      <point x="437" y="96" type="curve" smooth="yes"/>
      <point x="437" y="77"/>
      <point x="449" y="57"/>
      <point x="474" y="57" type="curve" smooth="yes"/>
    </contour>
    <contour>
      <point x="582" y="141"/>
      <point x="595" y="161"/>
      <point x="595" y="180" type="curve" smooth="yes"/>
      <point x="595" y="200"/>
      <point x="582" y="219"/>
      <point x="558" y="219" type="curve" smooth="yes"/>
      <point x="533" y="219"/>
      <point x="521" y="200"/>
      <point x="521" y="180" type="curve" smooth="yes"/>
      <point x="521" y="161"/>
      <point x="533" y="141"/>
      <point x="558" y="141" type="curve" smooth="yes"/>
    </contour>
    <contour>
      <point x="610" y="253"/>
      <point x="623" y="273"/>
      <point x="623" y="292" type="curve" smooth="yes"/>
      <point x="623" y="312"/>
      <point x="610" y="331"/>
      <point x="586" y="331" type="curve" smooth="yes"/>
      <point x="561" y="331"/>
      <point x="549" y="312"/>
      <point x="549" y="292" type="curve" smooth="yes"/>
      <point x="549" y="273"/>
      <point x="561" y="253"/>
      <point x="586" y="253" type="curve" smooth="yes"/>
    </contour>
  </outline>
</glyph>
<glyph name="brevecomb.case" format="1">
  <advance width="0"/>
  <outline>
    <contour>
      <point x="67" y="862" type="line"/>
      <point x="63" y="810"/>
      <point x="34" y="784"/>
      <point x="-3" y="784" type="curve" smooth="yes"/>
      <point x="-42" y="784"/>
      <point x="-67" y="814"/>
      <point x="-74" y="864" type="curve"/>
      <point x="-153" y="853" type="line"/>
      <point x="-139" y="760"/>
      <point x="-73" y="709"/>
      <point x="4" y="709" type="curve" smooth="yes"/>
      <point x="81" y="709"/>
      <point x="146" y="759"/>
      <point x="154" y="856" type="curve"/>
    </contour>
    <contour>
      <point x="-1" y="650" type="move" name="_top"/>
    </contour>
  </outline>
</glyph>
<glyph name="circumflexcomb.case" format="1">
  <advance width="0"/>
  <outline>
    <contour>
      <point x="-145" y="664" type="line"/>
      <point x="0" y="772" type="line"/>
      <point x="150" y="664" type="line"/>
      <point x="198" y="711" type="line"/>
      <point x="49" y="856" type="line"/>
      <point x="-51" y="856" type="line"/>
      <point x="-195" y="711" type="line"/>
    </contour>
    <contour>
      <point x="-1" y="615" type="move" name="_top"/>
    </contour>
  </outline>
</glyph>
<glyph name="dvB" format="1">
  <advance width="426"/>
  <outline>
    <contour>
      <point x="271" y="459" type="line"/>
      <point x="147" y="489"/>
      <point x="29" y="411"/>
      <point x="29" y="296" type="curve" smooth="yes"/>
      <point x="29" y="167"/>
      <point x="174" y="69"/>
      <point x="303" y="69" type="curve" smooth="yes"/>
      <point x="458" y="69"/>
      <point x="561" y="214"/>
      <point x="455" y="362" type="curve"/>
      <point x="395" y="340" type="line"/>
      <point x="450" y="228"/>
      <point x="356" y="151"/>
      <point x="256" y="151" type="curve" smooth="yes"/>
      <point x="227" y="151"/>
      <point x="189" y="157"/>
      <point x="163" y="176" type="curve"/>
      <point x="98" y="253"/>
      <point x="142" y="374"/>
      <point x="264" y="374" type="curve" smooth="yes"/>
      <point x="321" y="374"/>
      <point x="373" y="348"/>
      <point x="438" y="291" type="curve"/>
      <point x="455" y="362" type="line"/>
    </contour>
    <contour>
      <point x="453" y="538" type="line"/>
      <point x="466" y="565" type="line"/>
      <point x="427" y="624" type="line"/>
      <point x="-26" y="624" type="line"/>
      <point x="-39" y="596" type="line"/>
      <point x="0" y="538" type="line"/>
    </contour>
    <contour>
      <point x="326" y="135" type="line"/>
      <point x="369" y="163" type="line"/>
      <point x="217" y="407" type="line"/>
      <point x="169" y="382" type="line"/>
    </contour>
  </outline>
</glyph>
<glyph name="dvBLYa" format="1">
  <advance width="1497"/>
  <outline>
    <component base="uni092C094D"/>
    <component base="uni0932094D.alt" xOffset="370"/>
    <component base="uni092F" xOffset="886"/>
    <contour>
      <point x="1244" y="640" type="move" name="candrabindu"/>
    </contour>
    <contour>
      <point x="1544" y="640" type="move" name="candrabinduCXT"/>
    </contour>
    <contour>
      <point x="1218" y="640" type="move" name="bindu"/>
    </contour>
    <contour>
      <point x="1352" y="470" type="move" name="top"/>
    </contour>
    <contour>
      <point x="1288" y="4" type="move" name="bottom"/>
    </contour>
  </outline>
</glyph>
<glyph name="dvBh" format="1">
  <advance width="435"/>
  <outline>
    <contour>
      <point x="93" y="268" type="line"/>
      <point x="117" y="205"/>
      <point x="197" y="125"/>
      <point x="254" y="97" type="curve"/>
      <point x="306" y="121" type="line"/>
      <point x="306" y="275" type="line"/>
      <point x="239" y="311" type="line"/>
      <point x="122" y="311" type="line"/>
    </contour>
    <contour>
      <point x="545" y="538" type="line"/>
      <point x="558" y="565" type="line"/>
      <point x="519" y="624" type="line"/>
      <point x="360" y="624" type="line"/>
      <point x="347" y="596" type="line"/>
      <point x="386" y="538" type="line"/>
    </contour>
    <contour>
      <point x="508" y="311" type="line"/>
      <point x="185" y="311" type="line"/>
      <point x="216" y="215" type="line"/>
      <point x="538" y="215" type="line"/>
    </contour>
    <contour>
      <point x="53" y="647"/>
      <point x="2" y="605"/>
      <point x="2" y="546" type="curve" smooth="yes"/>
      <point x="2" y="507"/>
      <point x="25" y="458"/>
      <point x="110" y="404" type="curve"/>
      <point x="146" y="443" type="line"/>
      <point x="67" y="491"/>
      <point x="96" y="579"/>
      <point x="167" y="571" type="curve"/>
      <point x="192" y="550"/>
      <point x="196" y="520"/>
      <point x="196" y="486" type="curve" smooth="yes"/>
      <point x="197" y="262" type="line"/>
      <point x="302" y="235" type="line"/>
      <point x="302" y="448" type="line"/>
      <point x="300" y="544"/>
      <point x="211" y="647"/>
      <point x="114" y="647" type="curve" smooth="yes"/>
    </contour>
  </outline>
</glyph>
<glyph name="dvCChVa" format="1">
  <advance width="1194"/>
  <outline>
    <component base="dvC"/>
    <component base="dvChVa" xOffset="441"/>
    <contour>
      <point x="851" y="640" type="move" name="candrabindu"/>
    </contour>
    <contour>
      <point x="1169" y="640" type="move" name="candrabinduCXT"/>
    </contour>
    <contour>
      <point x="827" y="640" type="move" name="bindu"/>
    </contour>
    <contour>
      <point x="988" y="470" type="move" name="top"/>
    </contour>
    <contour>
      <point x="864" y="-313" type="move" name="bottom"/>
    </contour>
  </outline>
</glyph>
<glyph name="dvCCha" format="1">
  <advance width="1194"/>
  <outline>
    <component base="dvC"/>
    <component base="dvCha" xOffset="442"/>
    <contour>
      <point x="852" y="640" type="move" name="candrabindu"/>
    </contour>
    <contour>
      <point x="1169" y="640" type="move" name="candrabinduCXT"/>
    </contour>
    <contour>
      <point x="828" y="640" type="move" name="bindu"/>
    </contour>
    <contour>
      <point x="989" y="470" type="move" name="top"/>
    </contour>
    <contour>
      <point x="824" y="-45" type="move" name="bottom"/>
    </contour>
  </outline>
</glyph>
<glyph name="dvCh" format="1">
  <advance width="753"/>
  <outline>
    <contour>
      <point x="395" y="214" type="line"/>
      <point x="342" y="287" type="line"/>
      <point x="217" y="317"/>
      <point x="124" y="248"/>
      <point x="124" y="162" type="curve" smooth="yes"/>
      <point x="124" y="64"/>
      <point x="244" y="-43"/>
      <point x="395" y="-43" type="curve" smooth="yes"/>
      <point x="572" y="-43"/>
      <point x="706" y="104"/>
      <point x="706" y="266" type="curve" smooth="yes"/>
      <point x="706" y="400"/>
      <point x="613" y="503"/>
      <point x="510" y="503" type="curve" smooth="yes"/>
      <point x="433" y="503"/>
      <point x="380" y="445"/>
      <point x="380" y="378" type="curve" smooth="yes"/>
      <point x="380" y="300"/>
      <point x="448" y="230"/>
      <point x="585" y="153" type="curve"/>
      <point x="610" y="200" type="line"/>
      <point x="517" y="246"/>
      <point x="480" y="296"/>
      <point x="480" y="347" type="curve" smooth="yes"/>
      <point x="480" y="407"/>
      <point x="536" y="444"/>
      <point x="592" y="409" type="curve"/>
      <point x="608" y="389"/>
      <point x="615" y="347"/>
      <point x="615" y="310" type="curve" smooth="yes"/>
      <point x="615" y="165"/>
      <point x="491" y="39"/>
      <point x="329" y="39" type="curve" smooth="yes"/>
      <point x="302" y="39"/>
      <point x="284" y="43"/>
      <point x="267" y="49" type="curve"/>
      <point x="241" y="67"/>
      <point x="228" y="95"/>
      <point x="228" y="120" type="curve" smooth="yes"/>
      <point x="228" y="170"/>
      <point x="279" y="211"/>
      <point x="375" y="186" type="curve"/>
    </contour>
    <contour>
      <point x="779" y="538" type="line"/>
      <point x="792" y="565" type="line"/>
      <point x="753" y="624" type="line"/>
      <point x="-26" y="624" type="line"/>
      <point x="-39" y="596" type="line"/>
      <point x="0" y="538" type="line"/>
    </contour>
    <contour>
      <point x="324" y="416" type="line"/>
      <point x="274" y="491" type="line"/>
      <point x="183" y="491" type="line" smooth="yes"/>
      <point x="77" y="491"/>
      <point x="33" y="432"/>
      <point x="33" y="373" type="curve" smooth="yes"/>
      <point x="33" y="313"/>
      <point x="79" y="261"/>
      <point x="156" y="216" type="curve"/>
      <point x="210" y="241" type="line"/>
      <point x="150" y="279"/>
      <point x="130" y="302"/>
      <point x="130" y="332" type="curve" smooth="yes"/>
      <point x="130" y="376"/>
      <point x="174" y="391"/>
      <point x="226" y="391" type="curve" smooth="yes"/>
      <point x="309" y="391" type="line"/>
    </contour>
  </outline>
</glyph>
<glyph name="dvChRYa" format="1">
  <advance width="1318"/>
  <outline>
    <component base="dvChYa"/>
    <component base="uni094D0930" xOffset="387" yOffset="6"/>
    <contour>
      <point x="1066" y="640" type="move" name="candrabindu"/>
    </contour>
    <contour>
      <point x="1366" y="640" type="move" name="candrabinduCXT"/>
    </contour>
    <contour>
      <point x="1039" y="640" type="move" name="bindu"/>
    </contour>
    <contour>
      <point x="1173" y="470" type="move" name="top"/>
    </contour>
    <contour>
      <point x="1109" y="-24" type="move" name="bottom"/>
    </contour>
  </outline>
</glyph>
<glyph name="dvDBhYa" format="1">
  <advance width="1401"/>
  <outline>
    <component base="dvDBha"/>
    <component base="uni092F.post" xOffset="783"/>
    <contour>
      <point x="1148" y="640" type="move" name="candrabindu"/>
    </contour>
    <contour>
      <point x="1448" y="640" type="move" name="candrabinduCXT"/>
    </contour>
    <contour>
      <point x="1122" y="640" type="move" name="bindu"/>
    </contour>
    <contour>
      <point x="1256" y="470" type="move" name="top"/>
    </contour>
    <contour>
      <point x="1192" y="-24" type="move" name="bottom"/>
    </contour>
  </outline>
</glyph>
<glyph name="dvDRYa" format="1">
  <advance width="1138"/>
  <outline>
    <component base="dvDRa" xOffset="-11"/>
    <component base="dvYa.post" xOffset="522"/>
    <contour>
      <point x="887" y="640" type="move" name="candrabindu"/>
    </contour>
    <contour>
      <point x="1187" y="640" type="move" name="candrabinduCXT"/>
    </contour>
    <contour>
      <point x="861" y="640" type="move" name="bindu"/>
    </contour>
    <contour>
      <point x="995" y="470" type="move" name="top"/>
    </contour>
    <contour>
      <point x="931" y="-24" type="move" name="bottom"/>
    </contour>
  </outline>
</glyph>
<glyph name="dvDVYa" format="1">
  <advance width="1143"/>
  <outline>
    <component base="dvDVa"/>
    <component base="dvYa.post" xOffset="525"/>
    <contour>
      <point x="891" y="640" type="move" name="candrabindu"/>
    </contour>
    <contour>
      <point x="1191" y="640" type="move" name="candrabinduCXT"/>
    </contour>
    <contour>
      <point x="865" y="640" type="move" name="bindu"/>
    </contour>
    <contour>
      <point x="998" y="470" type="move" name="top"/>
    </contour>
    <contour>
      <point x="935" y="-24" type="move" name="bottom"/>
    </contour>
  </outline>
</glyph>
<glyph name="dvDdhRYa" format="1">
  <advance width="1179"/>
  <outline>
    <component base="dvDdhYa"/>
    <component base="uni094D0930" xOffset="341" yOffset="13"/>
    <contour>
      <point x="926" y="640" type="move" name="candrabindu"/>
    </contour>
    <contour>
      <point x="1226" y="640" type="move" name="candrabinduCXT"/>
    </contour>
    <contour>
      <point x="900" y="640" type="move" name="bindu"/>
    </contour>
    <contour>
      <point x="1034" y="470" type="move" name="top"/>
    </contour>
    <contour>
      <point x="970" y="-24" type="move" name="bottom"/>
    </contour>
  </outline>
</glyph>
<glyph name="dvDdhYa" format="1">
  <advance width="1179"/>
  <outline>
    <component base="uni0922"/>
    <component base="uni092F.post" xOffset="561"/>
    <contour>
      <point x="927" y="640" type="move" name="candrabindu"/>
    </contour>
    <contour>
      <point x="1226" y="640" type="move" name="candrabinduCXT"/>
    </contour>
    <contour>
      <point x="901" y="640" type="move" name="bindu"/>
    </contour>
    <contour>
      <point x="1034" y="470" type="move" name="top"/>
    </contour>
    <contour>
      <point x="970" y="-24" type="move" name="bottom"/>
    </contour>
  </outline>
</glyph>
<glyph name="dvDh" format="1">
  <advance width="464"/>
  <outline>
    <contour>
      <point x="533" y="538" type="line"/>
      <point x="546" y="565" type="line"/>
      <point x="507" y="624" type="line"/>
      <point x="367" y="624" type="line"/>
      <point x="354" y="596" type="line"/>
      <point x="393" y="538" type="line"/>
    </contour>
    <contour>
      <point x="348" y="493" type="line"/>
      <point x="300" y="599"/>
      <point x="243" y="649"/>
      <point x="167" y="649" type="curve" smooth="yes"/>
      <point x="90" y="649"/>
      <point x="35" y="597"/>
      <point x="35" y="527" type="curve" smooth="yes"/>
      <point x="35" y="452"/>
      <point x="99" y="389"/>
      <point x="212" y="325" type="curve"/>
      <point x="248" y="364" type="line"/>
      <point x="171" y="404"/>
      <point x="142" y="454"/>
      <point x="142" y="492" type="curve" smooth="yes"/>
      <point x="142" y="538"/>
      <point x="183" y="570"/>
      <point x="229" y="559" type="curve"/>
      <point x="260" y="535"/>
      <point x="280" y="501"/>
      <point x="301" y="462" type="curve"/>
    </contour>
    <contour>
      <point x="392" y="341" type="line"/>
      <point x="338" y="414" type="line"/>
      <point x="189" y="439"/>
      <point x="112" y="351"/>
      <point x="112" y="274" type="curve" smooth="yes"/>
      <point x="112" y="214"/>
      <point x="158" y="161"/>
      <point x="205" y="127" type="curve" smooth="yes"/>
      <point x="246" y="98"/>
      <point x="298" y="76"/>
      <point x="349" y="76" type="curve" smooth="yes"/>
      <point x="428" y="76"/>
      <point x="523" y="127"/>
      <point x="569" y="216" type="curve"/>
      <point x="498" y="298" type="line"/>
      <point x="457" y="200"/>
      <point x="318" y="144"/>
      <point x="239" y="170" type="curve"/>
      <point x="177" y="234"/>
      <point x="234" y="338"/>
      <point x="379" y="314" type="curve"/>
    </contour>
  </outline>
</glyph>
<glyph name="dvDhVa" format="1">
  <advance width="1037"/>
  <outline>
    <component base="dvDh"/>
    <component base="dvVa" xOffset="447"/>
    <contour>
      <point x="877" y="640" type="move" name="candrabindu"/>
    </contour>
    <contour>
      <point x="1084" y="640" type="move" name="candrabinduCXT"/>
    </contour>
    <contour>
      <point x="893" y="640" type="move" name="bindu"/>
    </contour>
    <contour>
      <point x="892" y="470" type="move" name="top"/>
    </contour>
    <contour>
      <point x="828" y="4" type="move" name="bottom"/>
    </contour>
  </outline>
</glyph>
<glyph name="dvFFa" format="1">
  <advance width="1338"/>
  <outline>
    <component base="uni095E094D"/>
    <component base="uni095E" xOffset="556"/>
    <contour>
      <point x="961" y="640" type="move" name="candrabindu"/>
    </contour>
    <contour>
      <point x="1263" y="640" type="move" name="candrabinduCXT"/>
    </contour>
    <contour>
      <point x="940" y="640" type="move" name="bindu"/>
    </contour>
    <contour>
      <point x="961" y="470" type="move" name="top"/>
    </contour>
    <contour>
      <point x="884" y="-55" type="move" name="bottom"/>
    </contour>
  </outline>
</glyph>
<glyph name="dvFSa" format="1">
  <advance width="1338"/>
  <outline>
    <component base="uni095E094D"/>
    <component base="uni0938" xOffset="614"/>
    <contour>
      <point x="1052" y="640" type="move" name="candrabindu"/>
    </contour>
    <contour>
      <point x="1386" y="640" type="move" name="candrabinduCXT"/>
    </contour>
    <contour>
      <point x="1027" y="640" type="move" name="bindu"/>
    </contour>
    <contour>
      <point x="1193" y="470" type="move" name="top"/>
    </contour>
    <contour>
      <point x="1129" y="4" type="move" name="bottom"/>
    </contour>
  </outline>
</glyph>
<glyph name="dvFTa" format="1">
  <advance width="1155"/>
  <outline>
    <component base="uni095E094D"/>
    <component base="uni0924" xOffset="562"/>
    <contour>
      <point x="995" y="640" type="move" name="candrabindu"/>
    </contour>
    <contour>
      <point x="1203" y="640" type="move" name="candrabinduCXT"/>
    </contour>
    <contour>
      <point x="1011" y="640" type="move" name="bindu"/>
    </contour>
    <contour>
      <point x="1010" y="470" type="move" name="top"/>
    </contour>
    <contour>
      <point x="946" y="4" type="move" name="bottom"/>
    </contour>
  </outline>
</glyph>
<glyph name="dvFZa" format="1">
  <advance width="1306"/>
  <outline>
    <component base="uni095E094D"/>
    <component base="uni095B" xOffset="613"/>
    <contour>
      <point x="1146" y="640" type="move" name="candrabindu"/>
    </contour>
    <contour>
      <point x="1353" y="640" type="move" name="candrabinduCXT"/>
    </contour>
    <contour>
      <point x="1162" y="640" type="move" name="bindu"/>
    </contour>
    <contour>
      <point x="1161" y="470" type="move" name="top"/>
    </contour>
    <contour>
      <point x="1097" y="-120" type="move" name="bottom"/>
    </contour>
  </outline>
</glyph>
<glyph name="dvFive.ss05" format="1">
  <advance width="558"/>
  <outline>
    <contour>
      <point x="433" y="316" type="line"/>
      <point x="413" y="241"/>
      <point x="350" y="185"/>
      <point x="277" y="185" type="curve" smooth="yes"/>
      <point x="185" y="185"/>
      <point x="66" y="270"/>
      <point x="66" y="411" type="curve" smooth="yes"/>
      <point x="66" y="462"/>
      <point x="82" y="552"/>
      <point x="122" y="637" type="curve"/>
      <point x="223" y="599" type="line"/>
      <point x="179" y="487"/>
      <point x="146" y="358"/>
      <point x="176" y="290" type="curve"/>
      <point x="264" y="240"/>
      <point x="369" y="309"/>
      <point x="379" y="391" type="curve"/>
    </contour>
    <contour>
      <point x="466" y="570" type="line"/>
      <point x="475" y="344"/>
      <point x="411" y="155"/>
      <point x="289" y="42" type="curve"/>
      <point x="210" y="88" type="line"/>
      <point x="342" y="208"/>
      <point x="374" y="422"/>
      <point x="370" y="598" type="curve"/>
    </contour>
    <contour>
      <point x="439" y="-82" type="line"/>
      <point x="211" y="29" type="line"/>
      <point x="255" y="82" type="line"/>
      <point x="485" y="-19" type="line"/>
      <point x="484" y="-50" type="line"/>
    </contour>
    <contour>
      <point x="260" y="7"/>
      <point x="177" y="-24"/>
      <point x="117" y="-12" type="curve"/>
      <point x="117" y="112" type="line"/>
      <point x="153" y="133" type="line"/>
      <point x="259" y="76" type="line"/>
      <point x="280" y="33" type="line"/>
    </contour>
  </outline>
</glyph>
<glyph name="dvH" format="1">
  <advance width="518"/>
  <outline>
    <contour>
      <point x="350" y="398" type="line"/>
      <point x="450" y="372" type="line"/>
      <point x="450" y="497" type="line"/>
      <point x="377" y="555" type="line"/>
      <point x="350" y="571" type="line"/>
    </contour>
    <contour>
      <point x="571" y="538" type="line"/>
      <point x="584" y="565" type="line"/>
      <point x="545" y="624" type="line"/>
      <point x="-26" y="624" type="line"/>
      <point x="-39" y="596" type="line"/>
      <point x="0" y="538" type="line"/>
    </contour>
    <contour>
      <point x="585" y="282" type="line"/>
      <point x="281" y="282" type="line"/>
      <point x="168" y="282"/>
      <point x="67" y="232"/>
      <point x="67" y="122" type="curve" smooth="yes"/>
      <point x="67" y="-35"/>
      <point x="266" y="-129"/>
      <point x="458" y="-168" type="curve"/>
      <point x="482" y="-102" type="line"/>
      <point x="331" y="-67"/>
      <point x="175" y="-15"/>
      <point x="175" y="93" type="curve" smooth="yes"/>
      <point x="175" y="168"/>
      <point x="253" y="188"/>
      <point x="325" y="188" type="curve"/>
      <point x="622" y="188" type="line"/>
    </contour>
    <contour>
      <point x="232" y="224" type="line"/>
      <point x="172" y="260"/>
      <point x="141" y="282"/>
      <point x="141" y="315" type="curve" smooth="yes"/>
      <point x="141" y="348"/>
      <point x="169" y="372"/>
      <point x="238" y="372" type="curve" smooth="yes"/>
      <point x="450" y="372" type="line"/>
      <point x="370" y="471" type="line"/>
      <point x="214" y="471" type="line" smooth="yes"/>
      <point x="86" y="471"/>
      <point x="49" y="413"/>
      <point x="49" y="363" type="curve" smooth="yes"/>
      <point x="49" y="296"/>
      <point x="116" y="229"/>
      <point x="201" y="190" type="curve"/>
    </contour>
  </outline>
</glyph>
<glyph name="dvHeadline.small" format="1">
  <advance width="116"/>
  <outline>
    <contour>
      <point x="142" y="538" type="line"/>
      <point x="155" y="565" type="line"/>
      <point x="117" y="624" type="line"/>
      <point x="-26" y="624" type="line"/>
      <point x="-39" y="596" type="line"/>
      <point x="0" y="538" type="line"/>
    </contour>
  </outline>
</glyph>
<glyph name="dvK.alt" format="1">
  <advance width="538"/>
  <outline>
    <contour>
      <point x="606" y="538" type="line"/>
      <point x="619" y="565" type="line"/>
      <point x="580" y="624" type="line"/>
      <point x="-26" y="624" type="line"/>
      <point x="-39" y="596" type="line"/>
      <point x="0" y="538" type="line"/>
    </contour>
    <contour>
      <point x="317" y="10" type="line"/>
      <point x="394" y="-36" type="line"/>
      <point x="426" y="-24" type="line"/>
      <point x="426" y="497" type="line"/>
      <point x="352" y="555" type="line"/>
      <point x="317" y="571" type="line"/>
    </contour>
    <contour>
      <point x="701" y="278" type="line"/>
      <point x="661" y="339"/>
      <point x="609" y="377"/>
      <point x="547" y="377" type="curve" smooth="yes"/>
      <point x="487" y="377"/>
      <point x="425" y="335"/>
      <point x="380" y="276" type="curve"/>
      <point x="416" y="181" type="line"/>
      <point x="486" y="260"/>
      <point x="532" y="282"/>
      <point x="577" y="282" type="curve" smooth="yes"/>
      <point x="613" y="282"/>
      <point x="637" y="268"/>
      <point x="664" y="240" type="curve"/>
    </contour>
    <contour>
      <point x="218" y="447" type="line"/>
      <point x="116" y="475"/>
      <point x="14" y="403"/>
      <point x="14" y="301" type="curve" smooth="yes"/>
      <point x="14" y="184"/>
      <point x="145" y="98"/>
      <point x="239" y="98" type="curve" smooth="yes"/>
      <point x="300" y="98"/>
      <point x="345" y="133"/>
      <point x="379" y="181" type="curve"/>
      <point x="338" y="288" type="line"/>
      <point x="299" y="207"/>
      <point x="206" y="162"/>
      <point x="139" y="192" type="curve"/>
      <point x="89" y="267"/>
      <point x="133" y="364"/>
      <point x="229" y="364" type="curve" smooth="yes"/>
      <point x="274" y="364"/>
      <point x="315" y="342"/>
      <point x="361" y="313" type="curve"/>
      <point x="369" y="372" type="line"/>
    </contour>
  </outline>
</glyph>
<glyph name="dvKR" format="1">
  <advance width="614"/>
  <outline>
    <contour>
      <point x="339" y="10" type="line"/>
      <point x="416" y="-36" type="line"/>
      <point x="448" y="-24" type="line"/>
      <point x="448" y="497" type="line"/>
      <point x="374" y="555" type="line"/>
      <point x="339" y="571" type="line"/>
    </contour>
    <contour>
      <point x="23" y="11" type="line"/>
      <point x="104" y="-54" type="line"/>
      <point x="425" y="193" type="line"/>
      <point x="372" y="257" type="line" smooth="yes"/>
    </contour>
    <contour>
      <point x="240" y="447" type="line"/>
      <point x="136" y="475"/>
      <point x="38" y="403"/>
      <point x="38" y="301" type="curve" smooth="yes"/>
      <point x="38" y="183"/>
      <point x="167" y="98"/>
      <point x="262" y="98" type="curve" smooth="yes"/>
      <point x="273" y="98"/>
      <point x="284" y="99"/>
      <point x="294" y="101" type="curve"/>
      <point x="403" y="186" type="line"/>
      <point x="360" y="288" type="line"/>
      <point x="321" y="207"/>
      <point x="231" y="163"/>
      <point x="164" y="194" type="curve"/>
      <point x="114" y="266"/>
      <point x="155" y="364"/>
      <point x="251" y="364" type="curve" smooth="yes"/>
      <point x="296" y="364"/>
      <point x="338" y="342"/>
      <point x="383" y="313" type="curve"/>
      <point x="391" y="372" type="line"/>
    </contour>
    <contour>
      <point x="710" y="323" type="line"/>
      <point x="685" y="380"/>
      <point x="627" y="422"/>
      <point x="568" y="422" type="curve" smooth="yes"/>
      <point x="494" y="422"/>
      <point x="430" y="352"/>
      <point x="388" y="285" type="curve"/>
      <point x="424" y="184" type="line"/>
      <point x="486" y="265"/>
      <point x="545" y="323"/>
      <point x="594" y="323" type="curve" smooth="yes"/>
      <point x="625" y="323"/>
      <point x="645" y="303"/>
      <point x="655" y="285" type="curve" smooth="yes"/>
      <point x="661" y="277" type="line"/>
    </contour>
    <contour>
      <point x="649" y="538" type="line"/>
      <point x="662" y="565" type="line"/>
      <point x="623" y="624" type="line"/>
      <point x="-26" y="624" type="line"/>
      <point x="-39" y="596" type="line"/>
      <point x="0" y="538" type="line"/>
    </contour>
  </outline>
</glyph>
<glyph name="dvKSPLa.MAR" format="1">
  <advance width="2058"/>
  <outline>
    <component base="uni0915094D"/>
    <component base="uni0938094D" xOffset="618"/>
    <component base="uni092A094D" xOffset="1022"/>
    <component base="uni0932.MAR" xOffset="1344"/>
    <contour>
      <point x="1830" y="640" type="move" name="candrabindu"/>
    </contour>
    <contour>
      <point x="2038" y="640" type="move" name="candrabinduCXT"/>
    </contour>
    <contour>
      <point x="1836" y="640" type="move" name="bindu"/>
    </contour>
    <contour>
      <point x="1843" y="470" type="move" name="top"/>
    </contour>
    <contour>
      <point x="1699" y="-52" type="move" name="bottom"/>
    </contour>
  </outline>
</glyph>
<glyph name="dvKSPLa" format="1">
  <advance width="2036"/>
  <outline>
    <component base="uni0915094D"/>
    <component base="uni0938094D" xOffset="589"/>
    <component base="uni092A094D" xOffset="1007"/>
    <component base="uni0932" xOffset="1326"/>
    <contour>
      <point x="1876" y="640" type="move" name="candrabindu"/>
    </contour>
    <contour>
      <point x="2084" y="640" type="move" name="candrabinduCXT"/>
    </contour>
    <contour>
      <point x="1892" y="640" type="move" name="bindu"/>
    </contour>
    <contour>
      <point x="1891" y="470" type="move" name="top"/>
    </contour>
    <contour>
      <point x="1827" y="4" type="move" name="bottom"/>
    </contour>
  </outline>
</glyph>
<glyph name="dvKSPRa" format="1">
  <advance width="1585"/>
  <outline>
    <component base="uni0915094D"/>
    <component base="uni0938094D" xOffset="589"/>
    <component base="dvPRa" xOffset="993"/>
    <contour>
      <point x="1320" y="640" type="move" name="candrabindu"/>
    </contour>
    <contour>
      <point x="1632" y="640" type="move" name="candrabinduCXT"/>
    </contour>
    <contour>
      <point x="1306" y="640" type="move" name="bindu"/>
    </contour>
    <contour>
      <point x="1440" y="470" type="move" name="top"/>
    </contour>
    <contour>
      <point x="1376" y="-21" type="move" name="bottom"/>
    </contour>
  </outline>
</glyph>
<glyph name="dvKSsVa" format="1">
  <advance width="1123"/>
  <outline>
    <component base="dvKSs"/>
    <component base="uni0935" xOffset="533"/>
    <contour>
      <point x="963" y="640" type="move" name="candrabindu"/>
    </contour>
    <contour>
      <point x="1170" y="640" type="move" name="candrabinduCXT"/>
    </contour>
    <contour>
      <point x="979" y="640" type="move" name="bindu"/>
    </contour>
    <contour>
      <point x="978" y="470" type="move" name="top"/>
    </contour>
    <contour>
      <point x="914" y="4" type="move" name="bottom"/>
    </contour>
  </outline>
</glyph>
<glyph name="dvKTYa" format="1">
  <advance width="1535"/>
  <outline>
    <component base="uni0915094D"/>
    <component base="uni0924094D" xOffset="584"/>
    <component base="uni092F" xOffset="925"/>
    <contour>
      <point x="1283" y="640" type="move" name="candrabindu"/>
    </contour>
    <contour>
      <point x="1583" y="640" type="move" name="candrabinduCXT"/>
    </contour>
    <contour>
      <point x="1256" y="640" type="move" name="bindu"/>
    </contour>
    <contour>
      <point x="1390" y="470" type="move" name="top"/>
    </contour>
    <contour>
      <point x="1326" y="4" type="move" name="bottom"/>
    </contour>
  </outline>
</glyph>
<glyph name="dvKYa" format="1">
  <advance width="1204"/>
  <outline>
    <component base="dvK"/>
    <component base="dvYa" xOffset="593"/>
    <contour>
      <point x="951" y="640" type="move" name="candrabindu"/>
    </contour>
    <contour>
      <point x="1251" y="640" type="move" name="candrabinduCXT"/>
    </contour>
    <contour>
      <point x="925" y="640" type="move" name="bindu"/>
    </contour>
    <contour>
      <point x="1059" y="470" type="move" name="top"/>
    </contour>
    <contour>
      <point x="995" y="4" type="move" name="bottom"/>
    </contour>
  </outline>
</glyph>
<glyph name="dvKhhMa" format="1">
  <advance width="1261"/>
  <outline>
    <component base="dvKhh"/>
    <component base="dvMa" xOffset="617"/>
    <contour>
      <point x="989" y="640" type="move" name="candrabindu"/>
    </contour>
    <contour>
      <point x="1309" y="640" type="move" name="candrabinduCXT"/>
    </contour>
    <contour>
      <point x="973" y="640" type="move" name="bindu"/>
    </contour>
    <contour>
      <point x="1116" y="470" type="move" name="top"/>
    </contour>
    <contour>
      <point x="1053" y="4" type="move" name="bottom"/>
    </contour>
  </outline>
</glyph>
<glyph name="dvKhhRa" format="1">
  <advance width="817"/>
  <outline>
    <component base="dvNukta" xOffset="199" yOffset="98"/>
    <component base="dvKhRa"/>
    <contour>
      <point x="507" y="640" type="move" name="candrabindu"/>
    </contour>
    <contour>
      <point x="864" y="640" type="move" name="candrabinduCXT"/>
    </contour>
    <contour>
      <point x="488" y="640" type="move" name="bindu"/>
    </contour>
    <contour>
      <point x="672" y="470" type="move" name="top"/>
    </contour>
    <contour>
      <point x="606" y="-112" type="move" name="bottom"/>
    </contour>
  </outline>
</glyph>
<glyph name="dvKhhSa" format="1">
  <advance width="1350"/>
  <outline>
    <component base="uni0959094D"/>
    <component base="uni0938" xOffset="626"/>
    <contour>
      <point x="1190" y="640" type="move" name="candrabindu"/>
    </contour>
    <contour>
      <point x="1398" y="640" type="move" name="candrabinduCXT"/>
    </contour>
    <contour>
      <point x="1207" y="640" type="move" name="bindu"/>
    </contour>
    <contour>
      <point x="1205" y="470" type="move" name="top"/>
    </contour>
    <contour>
      <point x="1142" y="4" type="move" name="bottom"/>
    </contour>
  </outline>
</glyph>
<glyph name="dvKhhTa" format="1">
  <advance width="1222"/>
  <outline>
    <component base="uni0959094D"/>
    <component base="uni0924" xOffset="629"/>
    <contour>
      <point x="1062" y="640" type="move" name="candrabindu"/>
    </contour>
    <contour>
      <point x="1270" y="640" type="move" name="candrabinduCXT"/>
    </contour>
    <contour>
      <point x="1079" y="640" type="move" name="bindu"/>
    </contour>
    <contour>
      <point x="1077" y="470" type="move" name="top"/>
    </contour>
    <contour>
      <point x="1014" y="4" type="move" name="bottom"/>
    </contour>
  </outline>
</glyph>
<glyph name="dvKhhVa" format="1">
  <advance width="1242"/>
  <outline>
    <component base="uni0959094D"/>
    <component base="uni0935" xOffset="652"/>
    <contour>
      <point x="1082" y="640" type="move" name="candrabindu"/>
    </contour>
    <contour>
      <point x="1289" y="640" type="move" name="candrabinduCXT"/>
    </contour>
    <contour>
      <point x="1098" y="640" type="move" name="bindu"/>
    </contour>
    <contour>
      <point x="1097" y="470" type="move" name="top"/>
    </contour>
    <contour>
      <point x="1033" y="4" type="move" name="bottom"/>
    </contour>
  </outline>
</glyph>
<glyph name="dvKhhYa" format="1">
  <advance width="1246"/>
  <outline>
    <component base="uni0959094D"/>
    <component base="uni092F" xOffset="635"/>
    <contour>
      <point x="993" y="640" type="move" name="candrabindu"/>
    </contour>
    <contour>
      <point x="1293" y="640" type="move" name="candrabinduCXT"/>
    </contour>
    <contour>
      <point x="967" y="640" type="move" name="bindu"/>
    </contour>
    <contour>
      <point x="1101" y="470" type="move" name="top"/>
    </contour>
    <contour>
      <point x="1037" y="4" type="move" name="bottom"/>
    </contour>
  </outline>
</glyph>
<glyph name="dvL.alt" format="1">
  <advance width="502"/>
  <outline>
    <contour>
      <point x="384" y="153" type="line"/>
      <point x="376" y="274"/>
      <point x="428" y="343"/>
      <point x="484" y="343" type="curve" smooth="yes"/>
      <point x="517" y="343"/>
      <point x="549" y="320"/>
      <point x="576" y="262" type="curve"/>
      <point x="626" y="288" type="line"/>
      <point x="589" y="386"/>
      <point x="521" y="425"/>
      <point x="457" y="425" type="curve" smooth="yes"/>
      <point x="365" y="425"/>
      <point x="270" y="342"/>
      <point x="276" y="197" type="curve"/>
      <point x="355" y="141" type="line"/>
    </contour>
    <contour>
      <point x="375" y="300" type="line"/>
      <point x="252" y="420" type="line"/>
      <point x="232" y="432"/>
      <point x="208" y="438"/>
      <point x="184" y="438" type="curve" smooth="yes"/>
      <point x="109" y="438"/>
      <point x="29" y="381"/>
      <point x="29" y="279" type="curve" smooth="yes"/>
      <point x="29" y="181"/>
      <point x="103" y="74"/>
      <point x="283" y="-43" type="curve"/>
      <point x="326" y="14" type="line"/>
      <point x="216" y="87"/>
      <point x="142" y="153"/>
      <point x="142" y="236" type="curve" smooth="yes"/>
      <point x="142" y="295"/>
      <point x="179" y="332"/>
      <point x="230" y="332" type="curve" smooth="yes"/>
      <point x="261" y="332"/>
      <point x="296" y="319"/>
      <point x="326" y="285" type="curve"/>
      <point x="356" y="251" type="line"/>
    </contour>
    <contour>
      <point x="537" y="538" type="line"/>
      <point x="550" y="565" type="line"/>
      <point x="511" y="624" type="line"/>
      <point x="-26" y="624" type="line"/>
      <point x="-39" y="596" type="line"/>
      <point x="0" y="538" type="line"/>
    </contour>
  </outline>
</glyph>
<glyph name="dvL.alt1" format="1">
  <advance width="440"/>
  <outline>
    <contour>
      <point x="381" y="153" type="line"/>
      <point x="373" y="300"/>
      <point x="448" y="361"/>
      <point x="528" y="361" type="curve" smooth="yes"/>
      <point x="553" y="361"/>
      <point x="578" y="355"/>
      <point x="604" y="343" type="curve"/>
      <point x="632" y="394" type="line"/>
      <point x="593" y="421"/>
      <point x="546" y="436"/>
      <point x="497" y="436" type="curve" smooth="yes"/>
      <point x="386" y="436"/>
      <point x="269" y="360"/>
      <point x="276" y="197" type="curve"/>
      <point x="352" y="141" type="line"/>
    </contour>
    <contour>
      <point x="375" y="300" type="line"/>
      <point x="252" y="420" type="line"/>
      <point x="232" y="432"/>
      <point x="208" y="438"/>
      <point x="184" y="438" type="curve" smooth="yes"/>
      <point x="109" y="438"/>
      <point x="29" y="381"/>
      <point x="29" y="279" type="curve" smooth="yes"/>
      <point x="29" y="181"/>
      <point x="103" y="74"/>
      <point x="283" y="-43" type="curve"/>
      <point x="326" y="14" type="line"/>
      <point x="216" y="87"/>
      <point x="142" y="153"/>
      <point x="142" y="236" type="curve" smooth="yes"/>
      <point x="142" y="295"/>
      <point x="179" y="332"/>
      <point x="230" y="332" type="curve" smooth="yes"/>
      <point x="261" y="332"/>
      <point x="296" y="319"/>
      <point x="326" y="285" type="curve"/>
      <point x="356" y="251" type="line"/>
    </contour>
    <contour>
      <point x="508" y="538" type="line"/>
      <point x="521" y="565" type="line"/>
      <point x="482" y="624" type="line"/>
      <point x="-26" y="624" type="line"/>
      <point x="-39" y="596" type="line"/>
      <point x="0" y="538" type="line"/>
    </contour>
  </outline>
</glyph>
<glyph name="dvLKYa" format="1">
  <advance width="1659"/>
  <outline>
    <component base="uni0932094D"/>
    <component base="dvKYa" xOffset="456"/>
    <contour>
      <point x="1407" y="640" type="move" name="candrabindu"/>
    </contour>
    <contour>
      <point x="1707" y="640" type="move" name="candrabinduCXT"/>
    </contour>
    <contour>
      <point x="1380" y="640" type="move" name="bindu"/>
    </contour>
    <contour>
      <point x="1514" y="470" type="move" name="top"/>
    </contour>
    <contour>
      <point x="1450" y="4" type="move" name="bottom"/>
    </contour>
  </outline>
</glyph>
<glyph name="dvLLYa" format="1">
  <advance width="1607"/>
  <outline>
    <component base="dvL"/>
    <component base="dvL.alt" xOffset="480"/>
    <component base="dvYa" xOffset="997"/>
    <contour>
      <point x="1355" y="640" type="move" name="candrabindu"/>
    </contour>
    <contour>
      <point x="1655" y="640" type="move" name="candrabinduCXT"/>
    </contour>
    <contour>
      <point x="1329" y="640" type="move" name="bindu"/>
    </contour>
    <contour>
      <point x="1462" y="470" type="move" name="top"/>
    </contour>
    <contour>
      <point x="1399" y="4" type="move" name="bottom"/>
    </contour>
  </outline>
</glyph>
<glyph name="dvLThYa" format="1">
  <advance width="1490"/>
  <outline>
    <component base="dvL.alt"/>
    <component base="dvTh" xOffset="499"/>
    <component base="dvYa" xOffset="880"/>
    <contour>
      <point x="1238" y="640" type="move" name="candrabindu"/>
    </contour>
    <contour>
      <point x="1538" y="640" type="move" name="candrabinduCXT"/>
    </contour>
    <contour>
      <point x="1212" y="640" type="move" name="bindu"/>
    </contour>
    <contour>
      <point x="1345" y="470" type="move" name="top"/>
    </contour>
    <contour>
      <point x="1282" y="4" type="move" name="bottom"/>
    </contour>
  </outline>
</glyph>
<glyph name="dvLl" format="1">
  <advance width="741"/>
  <outline>
    <contour>
      <point x="405" y="291" type="line"/>
      <point x="279" y="425" type="line"/>
      <point x="259" y="435"/>
      <point x="234" y="443"/>
      <point x="204" y="443" type="curve" smooth="yes"/>
      <point x="109" y="443"/>
      <point x="33" y="359"/>
      <point x="33" y="242" type="curve" smooth="yes"/>
      <point x="33" y="111"/>
      <point x="127" y="-4"/>
      <point x="233" y="-4" type="curve" smooth="yes"/>
      <point x="393" y="-4"/>
      <point x="427" y="287"/>
      <point x="537" y="370" type="curve"/>
      <point x="593" y="354"/>
      <point x="620" y="284"/>
      <point x="620" y="226" type="curve" smooth="yes"/>
      <point x="620" y="157"/>
      <point x="582" y="87"/>
      <point x="507" y="87" type="curve" smooth="yes"/>
      <point x="454" y="87"/>
      <point x="420" y="122"/>
      <point x="375" y="191" type="curve"/>
      <point x="338" y="143" type="line"/>
      <point x="454" y="17" type="line"/>
      <point x="480" y="4"/>
      <point x="507" y="-5"/>
      <point x="538" y="-5" type="curve" smooth="yes"/>
      <point x="634" y="-5"/>
      <point x="712" y="74"/>
      <point x="712" y="193" type="curve" smooth="yes"/>
      <point x="712" y="316"/>
      <point x="630" y="443"/>
      <point x="521" y="443" type="curve" smooth="yes"/>
      <point x="354" y="443"/>
      <point x="349" y="122"/>
      <point x="207" y="65" type="curve"/>
      <point x="164" y="85"/>
      <point x="131" y="141"/>
      <point x="131" y="205" type="curve" smooth="yes"/>
      <point x="131" y="279"/>
      <point x="173" y="344"/>
      <point x="234" y="344" type="curve" smooth="yes"/>
      <point x="279" y="344"/>
      <point x="321" y="307"/>
      <point x="367" y="244" type="curve"/>
    </contour>
    <contour>
      <point x="767" y="538" type="line"/>
      <point x="780" y="565" type="line"/>
      <point x="741" y="624" type="line"/>
      <point x="-26" y="624" type="line"/>
      <point x="-39" y="596" type="line"/>
      <point x="0" y="538" type="line"/>
    </contour>
  </outline>
</glyph>
<glyph name="dvM" format="1">
  <advance width="393"/>
  <outline>
    <contour>
      <point x="30" y="262" type="line"/>
      <point x="54" y="200"/>
      <point x="134" y="120"/>
      <point x="191" y="92" type="curve"/>
      <point x="243" y="116" type="line"/>
      <point x="243" y="269" type="line"/>
      <point x="176" y="306" type="line"/>
      <point x="59" y="306" type="line"/>
    </contour>
    <contour>
      <point x="422" y="538" type="line"/>
      <point x="435" y="565" type="line"/>
      <point x="396" y="624" type="line"/>
      <point x="-26" y="624" type="line"/>
      <point x="-39" y="596" type="line"/>
      <point x="0" y="538" type="line"/>
    </contour>
    <contour>
      <point x="137" y="253" type="line"/>
      <point x="239" y="220" type="line"/>
      <point x="233" y="497" type="line"/>
      <point x="160" y="555" type="line"/>
      <point x="123" y="571" type="line"/>
    </contour>
    <contour>
      <point x="467" y="306" type="line"/>
      <point x="139" y="306" type="line"/>
      <point x="170" y="210" type="line"/>
      <point x="494" y="210" type="line"/>
    </contour>
  </outline>
</glyph>
<glyph name="dvN" format="1">
  <advance width="303"/>
  <outline>
    <contour>
      <point x="342" y="538" type="line"/>
      <point x="355" y="565" type="line"/>
      <point x="316" y="624" type="line"/>
      <point x="-26" y="624" type="line"/>
      <point x="-39" y="596" type="line"/>
      <point x="0" y="538" type="line"/>
    </contour>
    <contour>
      <point x="11" y="311" type="line"/>
      <point x="32" y="245"/>
      <point x="85" y="171"/>
      <point x="136" y="132" type="curve"/>
      <point x="190" y="155" type="line"/>
      <point x="190" y="316" type="line"/>
      <point x="123" y="360" type="line"/>
      <point x="51" y="360" type="line"/>
    </contour>
    <contour>
      <point x="418" y="291" type="line"/>
      <point x="382" y="360" type="line"/>
      <point x="84" y="360" type="line"/>
      <point x="115" y="264" type="line"/>
      <point x="400" y="264" type="line"/>
    </contour>
  </outline>
</glyph>
<glyph name="dvNBh" format="1">
  <advance width="712"/>
  <outline>
    <contour>
      <point x="286" y="538" type="line"/>
      <point x="299" y="565" type="line"/>
      <point x="260" y="624" type="line"/>
      <point x="-26" y="624" type="line"/>
      <point x="-39" y="596" type="line"/>
      <point x="0" y="538" type="line"/>
    </contour>
    <contour>
      <point x="11" y="311" type="line"/>
      <point x="32" y="245"/>
      <point x="85" y="171"/>
      <point x="136" y="132" type="curve"/>
      <point x="190" y="155" type="line"/>
      <point x="190" y="316" type="line"/>
      <point x="123" y="360" type="line"/>
      <point x="51" y="360" type="line"/>
    </contour>
    <contour>
      <point x="462" y="255" type="line"/>
      <point x="411" y="347"/>
      <point x="372" y="360"/>
      <point x="252" y="360" type="curve" smooth="yes"/>
      <point x="76" y="360" type="line"/>
      <point x="76" y="318" type="line"/>
      <point x="143" y="262" type="line"/>
      <point x="294" y="262" type="line" smooth="yes"/>
      <point x="355" y="262"/>
      <point x="374" y="257"/>
      <point x="411" y="216" type="curve"/>
    </contour>
    <component base="dvBh" xOffset="282"/>
  </outline>
</glyph>
<glyph name="dvNCa" format="1">
  <advance width="891"/>
  <outline>
    <contour>
      <point x="342" y="538" type="line"/>
      <point x="355" y="565" type="line"/>
      <point x="316" y="624" type="line"/>
      <point x="-26" y="624" type="line"/>
      <point x="-39" y="596" type="line"/>
      <point x="0" y="538" type="line"/>
    </contour>
    <contour>
      <point x="8" y="250" type="line"/>
      <point x="30" y="187"/>
      <point x="88" y="113"/>
      <point x="133" y="77" type="curve"/>
      <point x="187" y="100" type="line"/>
      <point x="187" y="256" type="line"/>
      <point x="120" y="300" type="line"/>
      <point x="48" y="300" type="line"/>
    </contour>
    <contour>
      <point x="418" y="228" type="line"/>
      <point x="382" y="300" type="line"/>
      <point x="84" y="300" type="line"/>
      <point x="115" y="205" type="line"/>
      <point x="400" y="205" type="line"/>
    </contour>
    <component base="uni091A" xOffset="216"/>
    <contour>
      <point x="731" y="640" type="move" name="candrabindu"/>
    </contour>
    <contour>
      <point x="938" y="640" type="move" name="candrabinduCXT"/>
    </contour>
    <contour>
      <point x="747" y="640" type="move" name="bindu"/>
    </contour>
    <contour>
      <point x="746" y="470" type="move" name="top"/>
    </contour>
    <contour>
      <point x="682" y="4" type="move" name="bottom"/>
    </contour>
  </outline>
</glyph>
<glyph name="dvNJYa" format="1">
  <advance width="1381"/>
  <outline>
    <component base="dvN"/>
    <component base="dvJYa" xOffset="308"/>
    <contour>
      <point x="1128" y="640" type="move" name="candrabindu"/>
    </contour>
    <contour>
      <point x="1428" y="640" type="move" name="candrabinduCXT"/>
    </contour>
    <contour>
      <point x="1102" y="640" type="move" name="bindu"/>
    </contour>
    <contour>
      <point x="1236" y="470" type="move" name="top"/>
    </contour>
    <contour>
      <point x="1172" y="4" type="move" name="bottom"/>
    </contour>
  </outline>
</glyph>
<glyph name="dvNTSa" format="1">
  <advance width="1313"/>
  <outline>
    <component base="uni0928094D"/>
    <component base="uni0924094D.alt1" xOffset="246"/>
    <component base="uni0938" xOffset="588"/>
    <contour>
      <point x="1026" y="640" type="move" name="candrabindu"/>
    </contour>
    <contour>
      <point x="1360" y="640" type="move" name="candrabinduCXT"/>
    </contour>
    <contour>
      <point x="1001" y="640" type="move" name="bindu"/>
    </contour>
    <contour>
      <point x="1168" y="470" type="move" name="top"/>
    </contour>
    <contour>
      <point x="1104" y="4" type="move" name="bottom"/>
    </contour>
  </outline>
</glyph>
<glyph name="dvNTYa" format="1">
  <advance width="1230"/>
  <outline>
    <component base="dvN"/>
    <component base="dvTYa" xOffset="279"/>
    <contour>
      <point x="978" y="640" type="move" name="candrabindu"/>
    </contour>
    <contour>
      <point x="1278" y="640" type="move" name="candrabinduCXT"/>
    </contour>
    <contour>
      <point x="952" y="640" type="move" name="bindu"/>
    </contour>
    <contour>
      <point x="1085" y="470" type="move" name="top"/>
    </contour>
    <contour>
      <point x="1022" y="4" type="move" name="bottom"/>
    </contour>
  </outline>
</glyph>
<glyph name="dvNThVa" format="1">
  <advance width="1260"/>
  <outline>
    <component base="dvN"/>
    <component base="dvTh" xOffset="286"/>
    <component base="dvVa" xOffset="670"/>
    <contour>
      <point x="1100" y="640" type="move" name="candrabindu"/>
    </contour>
    <contour>
      <point x="1307" y="640" type="move" name="candrabinduCXT"/>
    </contour>
    <contour>
      <point x="1116" y="640" type="move" name="bindu"/>
    </contour>
    <contour>
      <point x="1115" y="470" type="move" name="top"/>
    </contour>
    <contour>
      <point x="1051" y="4" type="move" name="bottom"/>
    </contour>
  </outline>
</glyph>
<glyph name="dvNThYa" format="1">
  <advance width="1289"/>
  <outline>
    <component base="dvN"/>
    <component base="dvTh" xOffset="286"/>
    <component base="dvYa" xOffset="679"/>
    <contour>
      <point x="1037" y="640" type="move" name="candrabindu"/>
    </contour>
    <contour>
      <point x="1337" y="640" type="move" name="candrabinduCXT"/>
    </contour>
    <contour>
      <point x="1010" y="640" type="move" name="bindu"/>
    </contour>
    <contour>
      <point x="1144" y="470" type="move" name="top"/>
    </contour>
    <contour>
      <point x="1080" y="4" type="move" name="bottom"/>
    </contour>
  </outline>
</glyph>
<glyph name="dvNn" format="1">
  <advance width="429"/>
  <outline>
    <contour>
      <point x="470" y="538" type="line"/>
      <point x="483" y="565" type="line"/>
      <point x="444" y="624" type="line"/>
      <point x="-31" y="624" type="line"/>
      <point x="-44" y="596" type="line"/>
      <point x="-5" y="538" type="line"/>
    </contour>
    <contour>
      <point x="324" y="555" type="line"/>
      <point x="291" y="571" type="line"/>
      <point x="291" y="300" type="line" smooth="yes"/>
      <point x="291" y="201"/>
      <point x="194" y="206"/>
      <point x="165" y="248" type="curve"/>
      <point x="165" y="497" type="line"/>
      <point x="94" y="555" type="line"/>
      <point x="59" y="571" type="line"/>
      <point x="59" y="333" type="line" smooth="yes"/>
      <point x="59" y="232"/>
      <point x="184" y="136"/>
      <point x="272" y="136" type="curve" smooth="yes"/>
      <point x="332" y="136"/>
      <point x="398" y="168"/>
      <point x="398" y="299" type="curve" smooth="yes"/>
      <point x="398" y="497" type="line"/>
    </contour>
  </outline>
</glyph>
<glyph name="dvOne.ss05" format="1">
  <advance width="438"/>
  <outline>
    <contour>
      <point x="223" y="365" type="line"/>
      <point x="156" y="394"/>
      <point x="114" y="430"/>
      <point x="114" y="482" type="curve" smooth="yes"/>
      <point x="114" y="543"/>
      <point x="169" y="577"/>
      <point x="219" y="553" type="curve"/>
      <point x="239" y="531"/>
      <point x="247" y="487"/>
      <point x="247" y="444" type="curve" smooth="yes"/>
      <point x="247" y="5" type="line"/>
      <point x="316" y="-36" type="line"/>
      <point x="348" y="-24" type="line"/>
      <point x="348" y="398" type="line" smooth="yes"/>
      <point x="348" y="522"/>
      <point x="265" y="647"/>
      <point x="151" y="647" type="curve" smooth="yes"/>
      <point x="69" y="647"/>
      <point x="7" y="585"/>
      <point x="7" y="508" type="curve" smooth="yes"/>
      <point x="7" y="429"/>
      <point x="73" y="358"/>
      <point x="198" y="307" type="curve"/>
    </contour>
  </outline>
</glyph>
<glyph name="dvP" format="1">
  <advance width="345"/>
  <outline>
    <contour>
      <point x="386" y="538" type="line"/>
      <point x="399" y="565" type="line"/>
      <point x="360" y="624" type="line"/>
      <point x="-26" y="624" type="line"/>
      <point x="-39" y="596" type="line"/>
      <point x="0" y="538" type="line"/>
    </contour>
    <contour>
      <point x="393" y="306" type="line"/>
      <point x="361" y="253"/>
      <point x="305" y="222"/>
      <point x="253" y="222" type="curve" smooth="yes"/>
      <point x="219" y="222"/>
      <point x="188" y="236"/>
      <point x="170" y="266" type="curve"/>
      <point x="170" y="497" type="line"/>
      <point x="96" y="555" type="line"/>
      <point x="58" y="571" type="line"/>
      <point x="58" y="366" type="line" smooth="yes"/>
      <point x="58" y="245"/>
      <point x="191" y="127"/>
      <point x="301" y="127" type="curve" smooth="yes"/>
      <point x="355" y="127"/>
      <point x="417" y="156"/>
      <point x="460" y="220" type="curve"/>
    </contour>
  </outline>
</glyph>
<glyph name="dvPTYa" format="1">
  <advance width="1261"/>
  <outline>
    <component base="dvP"/>
    <component base="dvTYa" xOffset="309"/>
    <contour>
      <point x="1008" y="640" type="move" name="candrabindu"/>
    </contour>
    <contour>
      <point x="1308" y="640" type="move" name="candrabinduCXT"/>
    </contour>
    <contour>
      <point x="982" y="640" type="move" name="bindu"/>
    </contour>
    <contour>
      <point x="1116" y="470" type="move" name="top"/>
    </contour>
    <contour>
      <point x="1052" y="4" type="move" name="bottom"/>
    </contour>
  </outline>
</glyph>
